<svg xmlns="http://www.w3.org/2000/svg" xml:space="preserve" style="fill-rule:evenodd;clip-rule:evenodd;stroke-linejoin:round;stroke-miterlimit:2" viewBox="0 0 3766 6473"><path d="M1802.77 6503.44c-4.82-2.89-169.67-14.46-233.3-15.43-20.25 0-26.99-4.82-26.99-18.32 0-10.6 11.56-31.81 26.99-48.2 26.03-27.95 26.03-27.95 146.53-18.31 66.52 4.82 135.93 8.67 154.25 8.67 38.56-.96 71.34 32.78 65.55 69.41-2.89 19.29-8.67 21.21-65.55 24.1-34.71 1.93-65.56.97-67.48-1.92ZM1103.84 6418.6c-161-57.84-280.542-286.32-317.175-610.24-15.425-139.79-19.281-368.26-6.749-468.52 10.605-79.06 64.591-315.25 77.124-331.63 3.856-4.82 13.496-25.07 20.245-43.39 7.712-18.31 26.029-51.09 40.49-71.34 14.46-20.24 26.993-41.45 26.993-45.31 0-4.82 6.748-16.38 13.496-25.06 7.713-9.64 22.173-26.99 31.814-39.53 26.992-34.7 172.562-63.62 201.482-39.52 25.07 21.21 14.46 35.67-31.81 42.42-121.47 18.31-223.659 156.17-267.041 361.51-8.676 39.53-20.244 91.59-26.029 116.65-13.496 62.66-14.46 461.78 0 487.81 5.785 11.57 10.605 35.67 10.605 53.98 0 36.64 17.353 136.9 28.921 165.82 3.856 10.6 11.569 29.88 17.353 43.38 4.82 13.5 19.281 50.13 31.813 81.94 11.569 31.82 27.958 61.7 34.706 65.56 6.748 3.86 12.532 11.57 12.532 17.35 0 4.82 9.64 29.89 21.21 54.95 21.21 45.31 61.7 87.73 120.51 129.18 38.56 27 44.34 65.56 10.6 64.6-12.53 0-34.71-4.82-51.09-10.61ZM1378.59 6420.53c0-5.79 17.35-41.46 39.52-79.05 21.21-38.56 49.17-91.59 62.67-117.62 13.49-26.99 29.88-59.77 37.59-73.26 6.75-13.5 26.03-84.84 42.42-159.07 26.03-118.58 30.85-160.03 35.67-342.24 5.79-200.52 2.89-235.22-26.03-371.15-4.82-26.03-13.5-67.49-18.31-91.59-22.18-113.75-61.7-227.51-98.34-281.5-9.64-13.49-17.35-30.85-17.35-38.56 0-6.75-8.68-18.32-19.28-25.06-24.1-14.46-26.03-53.03-2.89-48.21 9.64 1.93 22.17 13.5 28.92 27 6.75 13.49 12.53 18.31 12.53 12.53 0-19.28 36.63-14.46 42.42 4.82 3.86 9.64 13.49 26.03 23.14 36.63 55.91 60.74 111.83 180.28 132.07 286.32 8.68 43.39 20.25 86.77 25.06 96.41 5.79 9.64 14.47 101.22 20.25 203.41 11.57 187.03 5.78 305.6-22.17 478.17-17.36 106.04-54.95 212.09-126.29 353.8-36.64 74.23-42.42 80.98-95.44 108.94-59.77 30.85-76.16 34.7-76.16 19.28ZM2545.08 6420.53c-120.51-4.82-120.51-4.82-123.4-29.89-2.89-22.17 1.93-26.03 43.38-39.52 46.28-14.46 46.28-14.46 43.39-85.8-3.86-125.33-24.1-114.72 208.23-112.79 109.9 1.92 271.86-3.86 360.55-11.57 88.69-6.75 164.85-9.64 168.71-6.75 11.57 11.57-40.49 97.37-72.3 117.61-16.39 10.61-31.82 29.89-35.67 42.42-2.9 12.53-21.21 41.45-40.49 63.63-39.53 47.24-62.67 53.98-219.8 58.8-53.03.97-122.44 3.86-154.25 5.79-31.82 1.93-111.83.96-178.35-1.93Zm563-154.25c23.14-6.75 15.43-8.67-37.6-4.82-36.63 2.89-123.39 7.71-192.8 11.57-125.33 7.71-125.33 7.71-33.75 12.53 96.41 4.82 214.02-3.85 264.15-19.28ZM1757.46 6379.07c-118.58-8.67-118.58-8.67-118.58-41.45 0-18.31 14.46-57.84 32.78-92.55 18.31-33.74 35.67-74.23 39.52-91.58 9.64-48.2 23.14-53.02 129.18-49.17 53.03.97 98.34 5.79 102.19 8.68 2.89 3.86 6.75 38.56 7.72 77.12 1.92 71.34 1.92 71.34-82.91 72.31-46.28.96-87.73 3.85-90.62 7.71-5.79 5.78 81.94 10.6 139.78 7.71 30.85-.96 30.85-.96 30.85 44.35 0 26.03-4.82 51.09-11.57 57.84-12.53 12.53-8.67 12.53-178.34-.97ZM3200.63 6368.47c0-6.75 6.75-18.32 14.46-25.06 7.71-6.75 14.46-17.36 14.46-23.14 0-5.79 11.57-25.07 26.99-41.45 45.31-52.06 63.63-82.91 80.02-128.22 18.32-53.03 47.24-65.56 47.24-19.28 0 16.38-6.75 42.41-14.46 57.84-9.64 18.32-10.61 28.92-3.86 30.85 7.71 2.89 8.68 17.35 4.82 42.42-6.75 36.63-11.57 42.41-77.12 79.05-76.16 43.38-92.55 48.2-92.55 26.99Z" style="fill:#fff;fill-rule:nonzero" transform="translate(-620.452 -421.391)"/><path d="M1193.49 6327.02c-44.35-6.75-135.93-108.94-163.89-182.21-8.67-24.1-20.24-49.16-26.03-55.91-11.564-13.5-36.629-99.3-68.443-227.52-34.705-142.67-34.705-434.78 0-612.16 5.785-26.03 13.497-79.06 18.317-115.69 12.533-95.44 43.382-169.67 93.516-224.62 23.13-26.99 42.41-52.06 42.41-56.88 0-14.46 67.49-42.42 117.62-48.2 42.42-4.82 48.2-2.89 70.37 22.17 13.5 15.43 29.89 34.71 37.6 42.42 6.75 7.71 22.17 35.67 33.74 62.66 11.57 26.03 24.1 50.13 28.92 53.03 11.57 7.71 68.45 188.95 75.2 239.08 2.89 25.06 9.64 53.02 13.5 61.7 4.82 8.67 9.64 138.82 9.64 289.21.96 213.05-1.93 286.32-13.5 335.49-7.71 34.7-19.28 90.62-26.03 125.32-5.78 33.74-17.35 74.23-25.06 88.69-7.72 14.47-13.5 32.78-13.5 40.49 0 24.1-62.67 114.73-100.26 143.65-32.78 25.06-47.24 27.95-104.12 19.28Zm-45.31-340.31c-7.71-91.58-7.71-91.58-9.64-23.14 0 37.6 1.93 89.66 5.79 115.69 11.56 73.27 13.49 12.53 3.85-92.55Zm139.79-303.67c-2.89-210.16-10.61-379.84-15.43-392.37-8.67-18.32-8.67-16.39-4.82 12.53 2.89 19.28 4.82 160.03 4.82 313.32.97 269.93 6.75 437.67 17.35 437.67 2.9 0 1.93-166.78-1.92-371.15Zm-235.23-348.99c0-206.3-.96-225.58-11.57-199.56-13.49 34.71-7.71 371.16 6.75 357.66 1.93-2.89 4.82-73.26 4.82-158.1ZM2535.44 6085.04c-23.14-7.71-23.14-7.71-21.21-214.02.97-127.25 5.78-210.16 12.53-216.91 5.79-5.78 153.29-10.6 420.33-12.53 410.68-3.85 410.68-3.85 403.93 86.77-3.86 49.16-10.6 107.01-15.42 128.21-4.82 21.21-16.39 72.31-25.07 113.76-8.68 41.46-19.28 77.12-23.14 79.05-17.35 10.61-223.65 33.74-289.21 31.82-39.52-.97-154.25 1.92-255.47 4.82-100.26 3.85-193.77 2.89-207.27-.97Zm539.86-191.84c44.35-4.82 49.17-6.75 29.89-14.46-13.5-4.82-69.41-3.86-134.97 1.92-61.7 4.82-144.6 10.61-184.13 11.57-72.3 1.93-72.3 1.93 14.46 8.68 86.77 5.78 176.42 3.86 274.75-7.71ZM1757.46 6004.06c3.85-23.13 13.49-108.93 21.2-190.88 8.68-81.94 17.36-155.21 19.29-160.99 6.74-19.28 126.29-16.39 134 2.89 2.89 8.68 5.78 99.3 5.78 202.45 0 187.02 0 187.02-92.55 187.02-93.51 0-93.51 0-87.72-40.49ZM1788.31 5582.78c-2.9-9.64-2.9-28.93 0-41.46 4.82-22.17-4.82-114.72-23.14-224.62-8.68-50.13-7.71-59.77 5.78-69.41 19.28-14.46 102.19-16.39 127.26-3.86 18.31 10.61 20.24 34.71 23.13 246.8 1.93 106.04 1.93 106.04-62.66 108.93-56.88 2.9-64.59.97-70.37-16.38ZM2529.66 5473.84c17.35-332.6 14.46-313.32 47.23-320.06 15.43-2.9 186.06-5.79 377.91-5.79 268 0 351.87 2.89 359.59 12.53 25.06 29.89 55.91 378.87 36.63 410.69-4.82 7.71-71.34 10.6-232.33 10.6-123.4-.96-236.2 1.93-250.66 5.79-16.38 3.85-28.92 1.92-33.74-4.82-4.82-9.64-16.39-9.64-44.34-1.93-21.21 5.78-89.66 10.6-152.32 10.6-114.72 0-114.72 0-107.97-117.61ZM1740.1 5184.63c-1.92-6.75-8.67-36.64-14.46-65.56-6.75-28.92-26.03-82.91-44.34-119.54-47.24-95.44-45.31-101.22 23.13-95.44 35.67 3.85 73.27 0 107.01-10.61 28.92-8.67 67.49-15.42 85.8-15.42 32.78 0 32.78 0 26.03 46.27-2.89 25.07-6.75 65.56-6.75 91.59-.96 25.06-3.85 45.31-6.74 45.31-3.86 0-4.83 30.85-2.9 67.48 3.86 67.48 3.86 67.48-79.05 67.48-58.8 0-84.83-3.85-87.73-11.56ZM2560.51 4996.64c8.67-161.96 12.53-178.35 47.23-187.99 22.18-5.79 367.3-4.82 542.76.96 24.1.97 77.12 76.16 98.33 140.75 6.75 21.21 21.21 55.92 30.85 78.09 31.81 71.34 50.13 66.52-273.79 66.52-160.99 0-327.77 3.86-372.12 7.71-79.05 7.71-79.05 7.71-73.26-106.04ZM3413.68 5091.11c-5.78-10.6-10.6-32.77-10.6-48.2 0-16.39-3.86-37.6-8.68-47.24-20.24-40.49-39.52-90.62-39.52-103.15 0-26.99 48.2-16.39 82.9 18.32 33.75 33.74 33.75 33.74 30.85 113.75-2.89 74.24-4.82 80.02-24.1 82.91-13.49 1.93-25.06-3.85-30.85-16.39ZM1603.21 4859.74c-3.86-2.89-18.32-22.17-31.81-41.45-13.5-20.25-29.89-36.64-35.67-36.64-7.72 0-12.54-13.49-12.54-33.74 0-39.52 23.14-47.23 32.78-9.64 5.79 21.21 11.57 24.11 49.17 24.11 28.92 0 49.16 5.78 60.73 17.35 19.28 19.28 111.83 50.13 149.43 50.13 19.28 0 26.03 4.82 26.03 19.28 0 18.31-5.79 19.28-114.72 18.31-62.67-.96-118.58-3.85-123.4-7.71ZM2579.78 4751.77c-1.92-7.71-6.74-32.78-9.64-56.88-1.92-23.14-9.63-44.34-14.46-46.27-5.78-1.93-10.6-9.64-10.6-16.39 0-19.28 181.24-12.53 255.47 9.64 187.03 55.91 236.19 74.23 236.19 89.66 0 14.46-19.28 16.38-199.56 16.38-110.86 0-212.08 3.86-226.54 8.68-20.25 5.79-27.96 4.82-30.86-4.82ZM3871.6 4624.52c-11.57-8.68-20.24-37.6-28.92-98.34-6.75-48.2-19.28-99.29-27.96-115.68-8.67-15.43-19.28-37.6-24.1-48.2-5.78-10.61-24.1-36.64-42.41-56.88-41.46-48.2-64.59-40.49-36.64 11.57 10.61 19.28 19.28 42.41 19.28 50.13 0 8.67 6.75 24.1 14.46 34.7 7.72 9.64 14.47 34.71 14.47 54.95 0 35.67-.97 35.67-37.6 35.67-36.64 0-39.53-1.93-62.67-51.09-13.49-28.92-30.85-57.84-39.52-64.59-37.6-30.85-65.56-97.37-73.27-175.46-10.6-109.9 9.64-145.57 96.4-168.71 64.6-17.35 113.76-15.42 134.01 4.82 9.64 8.68 51.09 45.31 93.51 80.02 117.61 98.33 161.96 158.1 196.66 269.93 19.29 63.63 7.72 145.57-22.17 151.36-15.42 2.89-16.39-.97-11.57-33.74 4.82-25.07 1.93-48.21-8.67-70.38-15.43-33.74-15.43-33.74-13.5 48.2 2.89 139.79 1.93 144.61-25.06 144.61-22.18 0-24.11-3.86-24.11-45.31-.96-26.03-6.75-67.49-14.46-94.48-13.49-48.2-13.49-48.2-13.49 31.82-.97 107.97-18.32 137.85-62.67 105.08Zm51.1-266.08c-11.57-44.35-37.6-92.55-37.6-71.34 0 6.75 9.64 43.38 22.17 80.98 22.18 74.23 36.64 65.56 15.43-9.64ZM2099.69 4461.59c-8.68-6.74-18.31-25.06-21.21-41.45-8.67-34.71-31.81-72.3-44.34-72.3-5.79 0-7.72 15.42-3.86 40.49 5.79 31.81 3.86 42.41-10.6 53.02-10.61 6.75-23.14 12.53-27.96 12.53-5.79 0-40.49-27.96-76.16-61.7-43.38-40.49-84.84-69.41-120.51-83.87-55.91-22.17-125.32-62.66-139.78-80.98-3.86-4.82-9.64-21.21-13.5-35.67-2.89-15.42-8.67-26.99-13.49-26.99-4.83 0-8.68-8.68-8.68-19.28 0-10.61 5.78-19.28 13.5-19.28 7.71 0 18.31-14.46 24.1-31.82 25.06-75.19 112.79-127.25 202.44-119.54 29.89 2.89 73.27 9.64 97.37 16.39 24.1 6.75 75.2 21.21 113.76 31.81 58.81 16.39 79.05 27.96 121.47 68.45 68.45 65.55 80.98 86.76 88.69 155.21 3.86 31.82 10.61 65.56 15.43 76.16 13.49 25.07 0 102.19-16.39 102.19-13.5 0-33.74-53.99-33.74-88.69 0-21.21-34.71-83.87-59.77-108.94-18.32-18.32-18.32-17.35.96 9.64 22.17 31.81 55.91 185.1 46.27 210.16-3.85 9.64-12.53 16.39-21.2 16.39-16.39 0-27.96-22.17-43.39-83.87-5.78-21.21-17.35-48.2-26.99-57.84-8.68-9.64-13.5-13.5-10.6-7.72 15.42 24.1 26.99 89.66 22.17 122.44-6.75 38.56-25.07 47.24-53.99 25.06ZM1500.06 4162.74c-13.5-41.45-13.5-66.52-2.9-87.73 27.96-53.98 155.22-189.91 178.35-189.91 6.75 0 22.18-5.79 33.74-13.5 25.07-15.43 82.91-18.32 100.27-3.86 21.2 17.36 13.49 32.78-23.14 45.31-55.92 19.28-123.4 65.56-161.96 109.9-52.06 60.74-53.02 62.67-64.59 96.41-13.5 38.56-26.03 54.95-43.38 54.95-6.75 0-14.46-5.79-16.39-11.57ZM3480.2 4015.24c0-19.28 4.82-24.1 23.14-24.1 17.35 0 22.17-3.86 19.28-17.35-3.86-10.61 5.78-22.18 26.99-35.67 58.81-35.67 248.73-20.25 248.73 20.24 0 16.39-5.79 17.36-86.77 14.46-64.59-2.89-137.86 21.21-163.89 52.06-6.74 7.71-24.1 14.46-39.52 14.46-23.14 0-27.96-3.85-27.96-24.1ZM3219.91 3965.11c-149.43-83.87-155.21-96.4-152.32-298.85 2.89-130.15 4.82-152.32 18.32-155.21 10.6-1.93 25.06 17.35 47.24 62.66 46.27 96.4 51.09 106.04 102.19 200.52 25.06 48.2 55.91 101.22 68.44 119.54 12.54 18.32 22.17 47.24 22.17 64.59 0 30.85-1.92 32.78-30.84 31.82-17.36-.97-51.1-11.57-75.2-25.07ZM1612.85 3708.68c-54.95-70.38-80.02-101.23-109.9-131.11-13.5-13.5-49.17-57.85-79.05-97.37-55.92-75.2-78.09-93.52-127.26-110.87-22.17-6.75-28.92-15.42-28.92-33.74 0-23.14 1.93-24.1 48.2-21.21 26.03 1.93 52.06 6.75 57.85 11.57 4.82 3.86 25.06 11.57 43.38 16.39 28.92 7.71 39.52 18.32 72.3 80.98 22.17 38.56 62.67 103.15 90.62 142.68 27.96 38.56 53.03 77.12 56.88 86.76 2.89 8.68 15.43 29.89 27.96 48.2 51.09 75.2 5.78 80.98-52.06 7.72ZM2539.3 3736.63c-11.57-46.27-1.93-68.45 31.81-71.34 26.99-2.89 31.81.97 37.6 21.21 7.71 30.85-18.32 73.27-44.35 73.27-11.57 0-21.21-8.68-25.06-23.14ZM2198.02 3526.47c0-13.5 7.72-47.24 16.39-76.16 28.92-94.47 29.89-218.84 1.93-295-35.67-94.47-106.04-218.83-157.14-277.64-72.3-83.87-82.91-104.12-82.91-157.14 0-49.17 11.57-69.41 41.46-69.41 16.39 0 17.35 4.82 11.57 46.27-5.79 43.39-3.86 50.13 39.52 112.8 25.07 37.59 57.84 80.98 72.31 96.4 15.42 16.39 27.95 36.63 27.95 45.31s3.86 18.32 8.68 21.21c19.28 12.53 69.41 126.29 86.76 195.7 32.78 139.79 2.89 367.3-50.13 376.94-11.57 2.89-16.39-2.89-16.39-19.28ZM2556.65 3487.91c-29.89-29.89-4.82-94.48 36.63-94.48 27 0 28.92 2.9 28.92 34.71 0 60.73-33.74 91.58-65.55 59.77ZM2898.88 3380.9c-12.53-32.78-18.31-122.43-7.71-122.43 5.79 0 10.61-6.75 10.61-14.46 0-7.72 6.74-14.46 14.46-14.46 11.56 0 14.46 15.42 14.46 81.94 0 63.63-2.9 81.94-13.5 81.94-7.71 0-15.42-5.78-18.32-12.53ZM1436.43 3263.29c0-39.53 11.57-76.16 43.38-139.79 6.75-13.5 15.43-39.53 19.28-57.84 9.64-48.2 53.03-176.42 63.63-189.92 5.78-5.78 11.57-74.23 14.46-152.32 4.82-141.71 4.82-141.71-24.1-202.45-49.17-101.22-33.74-136.89 25.06-58.8 49.17 64.59 61.7 111.83 62.67 241.97.96 144.61-27 261.26-111.83 461.78-8.68 20.24-15.43 44.34-15.43 53.02 0 23.14-46.27 87.73-62.66 87.73-10.6 0-14.46-11.57-14.46-43.38ZM2571.11 3243.04c-8.68-8.67-8.68-54.95-.97-75.19 15.43-40.49 66.52 4.82 59.78 53.02-1.93 16.39-9.64 24.1-27 26.03-13.49 1.93-27.95 0-31.81-3.86ZM2901.78 3192.91c0-22.17 38.56-150.39 71.34-237.15 13.49-36.64 30.85-95.44 38.56-130.15 12.53-60.73 11.56-65.55-9.64-108.94-12.54-25.06-27-47.23-32.78-51.09-14.46-8.68-11.57-43.38 4.82-43.38 34.7 0 62.66 24.1 85.8 76.16 22.17 49.16 23.14 60.73 15.42 111.83-4.82 31.81-19.28 88.69-32.77 127.25-13.5 37.6-27 83.87-30.85 103.15-2.9 19.28-9.64 37.6-14.46 39.53-3.86 2.89-21.21 33.74-36.64 67.48-28.92 59.77-58.8 82.91-58.8 45.31ZM2390.83 3037.7c0-57.84 19.28-66.52 38.56-19.28 14.47 33.74 4.83 59.77-23.13 64.59-12.54 2.89-15.43-5.78-15.43-45.31ZM2556.65 2978.89c-11.57-15.42-21.21-31.81-21.21-35.67 0-3.85-13.5-23.13-29.89-41.45-16.39-18.32-36.63-44.34-45.31-57.84-8.67-13.5-24.1-29.89-32.77-36.64-36.64-26.99-96.41-130.14-114.73-197.62-28.92-105.08-89.65-255.48-168.7-418.4-62.66-128.22-71.34-152.32-71.34-199.56 0-37.59 3.85-53.98 12.53-53.98 18.32 0 35.67 20.24 35.67 43.38.97 34.71 38.56 105.08 80.02 147.5 33.74 34.7 40.49 48.2 45.31 90.62 3.85 43.38 7.71 51.09 28.92 55.91 16.39 3.86 26.03 15.43 32.78 38.56 11.56 39.53 13.49 42.42 82.9 68.45 28.92 10.61 67.49 30.85 85.8 44.35 30.85 24.1 31.82 26.99 27.96 77.12-3.86 43.38-1.93 51.1 10.61 49.17 7.71-1.93 21.2-15.43 29.88-29.89 13.5-25.06 12.53-29.88-11.57-74.23-38.56-69.41-36.63-80.01 14.46-72.3 27.96 3.85 48.2 14.46 65.56 34.7 13.49 15.43 26.99 27.96 30.85 27.96 2.89 0 16.38-10.6 29.88-24.1 13.5-13.5 34.71-24.1 48.2-24.1 28.93 0 39.53 37.6 28.93 99.29-3.86 22.18-5.79 56.88-4.82 77.13 3.85 68.45-77.13 341.27-106.05 359.59-4.82 2.89-8.68 13.49-8.68 24.1 0 18.31-31.81 56.88-46.27 56.88-4.82 0-17.35-12.54-28.92-28.93ZM2995.29 2520.97c3.85-44.34 1.93-62.66-5.79-62.66-5.78 0-10.6-6.75-10.6-14.46 0-7.71 6.75-14.46 14.46-14.46 7.71 0 14.46 3.86 14.46 8.68 0 5.78 10.61 21.21 24.1 35.67 39.53 43.38 25.07 109.9-24.1 109.9-17.35 0-18.32-5.79-12.53-62.67ZM1974.37 2456.38c-8.68-6.75-22.18-34.7-31.82-62.66-14.46-47.24-14.46-52.06 0-84.84 26.03-53.98 42.42-43.38 40.49 26.03-1.93 59.77-1.93 59.77 33.74 80.02 47.24 25.06 49.17 53.02 4.82 53.02-17.35 0-38.56-5.78-47.23-11.57Z" style="fill:#fff;fill-rule:nonzero" transform="translate(-620.452 -421.391)"/><path d="M2598.1 2224.05c-32.77-32.78-32.77-32.78-35.67-7.71-2.89 23.13-6.75 25.06-41.45 23.13-22.17-.96-62.66-14.46-93.51-30.85-30.85-16.38-60.74-29.88-67.49-29.88-23.13-.97-97.36-80.02-104.11-109.9-4.82-23.14-10.61-28.92-26.03-27-24.1 2.9-46.28-38.56-56.88-108.93-3.86-26.03-11.57-51.1-17.35-54.95-6.75-4.82-6.75-18.32.96-48.21 7.71-28.92 7.71-45.31.96-53.98-5.78-6.75-11.56-41.46-12.53-77.13-1.93-78.08-9.64-104.11-31.81-109.9-14.46-3.85-16.39.97-13.5 32.78 2.89 20.25-.96 43.38-7.71 51.1-9.64 12.53-9.64 18.31 3.86 32.77 18.31 20.25 12.53 68.45-7.72 68.45-23.13 0-111.83-109.9-111.83-138.82 0-8.68-7.71-15.43-19.28-15.43-25.06 0-25.06-25.06-.96-31.81 11.57-2.89 23.14-19.28 30.85-45.31 7.71-23.14 20.24-43.38 30.85-47.24 17.35-6.75 17.35-7.71 1.93-23.14-22.18-22.17-32.78-20.24-39.53 7.72-10.6 44.34-31.81 28.92-30.85-23.14 0-47.24.97-48.2 53.02-81.94 28.93-19.29 56.88-34.71 60.74-34.71 3.85 0 12.53-6.75 19.28-14.46 6.75-7.71 23.14-14.46 35.67-14.46 23.14 0 24.1 1.93 18.31 43.38-6.74 41.45-5.78 43.38 17.36 43.38 26.03 0 28.92 9.64 16.39 42.42-4.82 12.53-1.93 24.1 10.6 36.63 11.57 11.57 17.35 31.82 17.35 63.63 0 25.07 4.82 51.1 10.61 56.88 5.78 5.78 11.57 39.53 12.53 74.23.96 58.81 1.93 62.66 20.25 57.84 27.95-9.64 32.77-21.2 28.92-75.19-2.9-41.45-6.75-50.13-23.14-52.06-29.89-4.82-36.63-26.99-34.7-117.61.96-45.31-1.93-89.66-6.75-98.34-4.82-10.6-3.86-34.7 2.89-61.69 8.67-32.78 17.35-46.28 36.63-53.99 60.74-24.1 138.83-35.67 237.16-36.63 134.96 0 354.76 19.28 363.44 32.77 3.86 5.79 7.71 21.21 7.71 34.71 0 26.99-40.49 57.84-76.16 57.84-11.56 0-20.24 4.82-20.24 9.64 0 5.79-5.78 9.64-13.5 9.64-7.71 0-22.17 10.61-32.78 24.1-21.2 27-20.24 73.27 4.83 173.53 7.71 31.81 16.38 74.23 19.28 93.51 4.82 32.78 2.89 36.64-22.18 42.42-19.28 4.82-37.59.97-62.66-13.5-20.24-11.56-43.38-18.31-52.06-14.46-9.64 2.9-20.24 0-25.06-7.71-5.79-9.64-8.68-9.64-8.68-.96 0 5.78-4.82 11.57-10.6 11.57-11.57 0-134.01 125.32-159.07 161.96-7.71 12.53-13.5 35.66-11.57 53.02 2.89 30.85 2.89 30.85 26.03-7.71 13.5-21.21 26.99-40.49 29.88-43.39 3.86-2.89 10.61-17.35 16.39-33.74 4.82-15.42 23.14-37.6 39.53-48.2 16.39-10.61 32.78-26.99 35.67-35.67 8.68-25.06 41.45-29.88 79.05-12.53 26.03 12.53 48.2 15.42 89.66 10.6 55.91-6.75 55.91-6.75 90.62 33.74 19.28 23.14 34.7 48.21 34.7 57.85 0 26.99 10.61 47.23 25.07 47.23 10.6 0 13.49 17.36 13.49 77.13 0 95.44-14.46 166.78-45.31 219.8-26.02 44.35-35.66 48.2-61.7 25.07-15.42-13.5-17.35-12.54-33.74 14.46-15.42 26.02-54.95 49.16-82.9 49.16-5.79 0-24.11-14.46-41.46-31.81Zm-74.23-299.82c33.74-28.92 118.58-63.63 154.25-63.63 15.42 0 41.45 12.54 62.66 29.89 37.6 30.85 45.31 24.1 20.25-19.28-21.21-35.67-78.09-51.1-114.73-32.78-14.46 7.71-31.81 11.57-39.52 8.68-22.17-8.68-74.23 17.35-103.15 51.09-42.42 51.1-29.89 67.48 20.24 26.03Zm-210.16-78.09c6.75-7.71 17.35-14.46 24.1-14.46s14.46-10.6 16.39-23.13c4.82-22.18 1.93-23.14-21.21-18.32-21.21 3.86-27.96.96-32.78-14.46-3.85-10.61-11.57-24.1-18.31-28.92-8.68-7.72-11.57 4.82-12.54 52.05-1.93 53.03.97 61.7 15.43 61.7 9.64 0 22.17-6.74 28.92-14.46Zm-241.01-274.75c15.42 0 16.39-2.89 6.75-24.1-9.64-19.28-13.5-21.21-24.1-10.61-6.75 6.75-14.47 28.93-16.39 50.14-4.82 34.7-3.86 35.67 5.78 11.56 5.79-15.42 17.35-26.99 27.96-26.99Zm437.67-44.34c8.68-2.9 15.43-11.57 15.43-18.32 0-16.39-22.17-24.1-70.38-24.1-46.27 0-83.87 8.67-83.87 18.31 0 3.86 20.25 11.57 46.28 17.36 58.8 12.53 74.23 13.49 92.54 6.75Zm-114.72-116.65c19.28-10.61 54.95-16.39 106.05-18.32 42.42-.96 80.98-2.89 86.76-2.89 17.36-1.93-28.92-27-61.7-34.71-43.38-9.64-108.93 10.61-146.53 44.35-34.71 30.85-27.96 35.67 15.42 11.57Z" style="fill:#fff;fill-rule:nonzero" transform="translate(-620.452 -421.391)"/><path d="M2794.77 1728.53c-25.07-28.92-72.31-179.31-61.7-195.7 2.89-5.78 18.32-9.64 33.74-9.64 15.43 0 30.85-3.86 33.74-9.64 2.89-4.82 13.5-9.64 22.17-9.64 17.36 0 32.78 50.13 45.31 144.6 9.65 73.27-36.63 123.4-73.26 80.02ZM2750.42 1477.88c-26.99-3.86-31.81-7.71-31.81-30.85 0-32.78 30.85-52.06 78.09-47.24 30.85 2.89 32.77 4.82 32.77 41.46 0 42.41-8.67 46.27-79.05 36.63ZM2699.33 1123.11c0-13.5-42.42-19.28-125.33-17.35-13.49 0-80.01-5.79-149.43-13.5-81.94-9.64-159.06-12.53-223.65-7.71-87.73 5.78-99.3 3.85-99.3-9.64 0-18.32-1.93-17.35 115.68-38.56 157.14-28.92 481.06-16.39 537.94 20.24 27 18.32 24.1 46.28-5.78 50.13-11.57 1.93-21.21 9.64-21.21 17.36 0 7.71-6.75 13.49-14.46 13.49-7.71 0-14.46-6.75-14.46-14.46Z" style="fill:#fff;fill-rule:nonzero" transform="translate(-620.452 -421.391)"/><path d="M2430.36 6890.98c-118.58-9.64-252.58-54.95-300.78-100.26-16.39-15.42-43.38-26.99-79.05-32.78-98.34-15.42-131.11-45.31-132.08-119.54 0-44.34-.96-46.27-21.21-39.52-33.74 10.6-345.12 13.49-480.09 3.85-214.98-14.46-253.54-19.28-287.29-33.74-18.31-7.71-35.67-11.57-37.59-9.64-7.72 7.71-74.24-19.28-124.365-50.13-26.029-16.39-66.519-53.02-88.692-80.98-22.173-27.96-44.346-55.91-48.202-60.73-73.268-89.66-151.355-297.89-185.097-491.66-16.388-95.45-29.885-318.14-24.101-380.8 39.526-386.58 110.865-606.39 257.4-788.59 24.101-28.92 74.231-72.3 118.577-101.23 77.12-50.12 77.12-50.12 82.91-120.5 3.85-41.45 14.46-81.94 26.03-101.22 9.64-18.32 24.1-49.17 30.85-70.38 13.49-44.35 35.67-99.3 48.2-119.54 4.82-7.71 16.39-28.92 25.06-45.31 8.68-17.35 19.28-31.81 24.1-31.81 22.18 0 3.86-37.6-47.23-100.27-30.85-37.59-90.62-118.57-132.08-179.31-41.45-60.73-82.905-119.54-91.581-130.14-9.641-10.61-29.886-43.38-46.274-73.27-16.389-30.85-36.634-66.52-46.275-80.02-25.065-39.52-19.28-159.06 11.569-226.55 12.533-27.95 23.137-59.77 23.137-71.33 0-10.61 8.676-32.78 18.317-49.17 10.604-16.39 32.777-64.59 49.166-107.01 16.389-42.42 36.631-92.55 45.311-110.87 8.68-18.31 18.32-46.27 23.14-62.66 3.85-15.42 20.24-67.48 36.63-114.72 16.39-47.24 29.88-93.51 29.88-103.15 0-16.39 51.1-118.58 68.45-138.82 4.82-4.82 8.68-17.36 8.68-27 0-43.38 111.83-262.22 150.39-293.07 102.19-83.87 128.22-98.33 293.07-160.99 51.09-19.28 115.68-50.13 144.61-68.45 28.92-18.32 71.33-42.42 94.47-53.02 27-13.5 45.31-30.85 53.99-51.1 6.75-17.35 26.99-47.23 43.38-68.44 16.39-20.25 29.89-40.49 29.89-44.35 0-9.64-33.75-38.56-45.31-38.56-11.57 0-51.1-86.76-51.1-112.79 0-9.64-6.75-36.64-15.42-60.74-9.64-27.96-12.54-56.88-8.68-87.73 5.78-44.34 5.78-44.34-35.67-60.73-52.06-21.21-72.3-39.53-96.4-86.77-21.21-41.45-18.32-99.29 6.74-137.85 19.29-27.96 141.72-99.3 184.14-106.05 18.31-2.89 36.63-10.6 40.49-16.39 14.46-23.13 0-252.576-23.14-364.405-12.53-61.699-23.14-124.362-23.14-139.786.97-49.167 43.38-81.944 149.43-115.686 95.44-29.885 117.61-35.669 212.09-49.166 99.3-14.46 439.6 6.748 484.91 30.85 51.1 26.029 53.03 34.705 46.28 153.282-16.39 259.328-1.93 460.811 34.7 480.091 9.64 4.82 53.02 14.46 96.41 20.25 44.34 5.78 91.58 16.39 106.04 24.1 95.44 47.24 48.2 157.14-88.69 208.23-62.66 24.1-62.66 24.1-69.41 113.76-2.89 50.13-4.82 92.55-2.89 95.44 11.56 18.32 14.46 144.61 4.82 200.52-9.64 57.84-8.68 71.34 5.78 104.12 11.57 26.99 16.39 67.48 17.35 142.68 1.93 118.57-1.92 112.79 99.3 161.96 32.78 16.38 65.55 34.7 71.34 42.41 5.78 7.72 16.39 13.5 22.17 13.5 5.79 0 35.67 23.14 65.56 52.06 74.23 71.34 138.82 199.55 148.46 295 2.89 24.1 8.68 53.98 13.5 67.48 4.82 13.5 10.6 40.49 14.46 60.73 2.89 19.28 18.31 67.49 34.7 106.05 15.43 37.6 34.71 102.19 43.38 141.71 14.46 72.31 34.71 122.44 72.31 181.24 11.57 17.36 30.85 68.45 43.38 113.76 12.53 46.27 29.89 94.48 39.52 107.97 37.6 52.06 53.03 83.87 76.17 155.21 34.7 106.05 77.12 198.6 106.04 232.34 6.75 7.71 21.21 38.56 32.78 67.48 20.24 52.06 46.27 107.01 73.26 154.25 9.65 15.42 12.54 39.52 9.65 67.48-3.86 43.38-3.86 43.38 77.12 122.43 83.87 80.98 128.22 153.29 142.68 234.27 8.67 50.13 6.75 239.08-4.82 457.92-5.79 106.04-11.57 220.76-13.5 255.47-1.93 34.71-13.5 182.2-26.03 327.77-15.42 185.1-22.17 338.38-22.17 507.09-.97 183.17-3.86 245.83-12.53 257.4-13.5 16.39-96.41 37.6-110.87 28.92-27.96-17.35 34.7 67.49 92.55 126.29 68.44 68.45 70.37 69.41 151.35 86.77 45.31 8.67 95.44 21.2 112.8 26.02 80.98 25.07 138.82 151.36 90.62 195.7-38.57 35.67-123.4 52.06-270.9 52.06-152.32.97-201.49-7.71-303.67-55.91-77.13-35.67-106.05-41.45-120.51-25.07-15.42 19.29-66.52 29.89-80.02 16.39-5.78-5.78-32.77-10.6-59.77-11.57-68.44-.96-120.5-19.28-143.64-50.13-15.42-21.2-19.28-40.49-19.28-92.54.96-66.52.96-66.52-37.6-42.42-33.74 21.21-180.27 58.81-295.96 76.16-18.31 1.93-88.69 13.49-155.21 24.1-108.94 16.39-184.13 23.14-299.82 26.99-29.88.97-36.63 4.82-36.63 20.25 0 10.6 5.78 19.28 13.5 19.28 7.71 0 37.59 19.28 66.52 43.38 87.72 71.34 108.93 172.56 45.31 217.87-31.82 23.14-139.79 34.71-240.05 26.03Zm-506.12-407.79c9.64-24.1-26.03-57.84-63.63-59.77-99.3-3.85-236.19-14.46-243.9-19.28-8.68-5.78-64.59 50.13-64.59 64.59 0 4.82 7.71 7.71 17.35 7.71 31.81-.96 238.12 13.5 241.97 17.36 1.93 1.93 27 3.85 55.92 3.85 36.63 0 53.02-3.85 56.88-14.46Zm-757.74-74.23c0-6.75-14.46-22.17-31.82-34.7-58.8-41.46-99.29-83.88-120.5-129.19-11.57-25.06-21.21-50.13-21.21-54.95 0-5.78-5.784-13.49-12.533-17.35-6.748-3.86-23.137-33.74-34.705-65.55-12.533-31.82-26.993-68.45-31.814-81.95-5.784-13.49-13.496-32.78-18.316-43.38-3.857-10.61-11.569-49.17-17.353-86.76-5.784-36.64-12.533-82.91-15.425-101.23-23.137-137.86-26.029-448.28-5.784-539.86 5.784-24.1 17.353-76.16 26.029-115.69 43.382-206.3 145.571-343.2 267.041-361.51 37.6-5.79 43.38-9.65 34.71-20.25-13.5-15.42-43.39-17.35-52.06-3.86-4.82 6.75-10.61 7.72-18.32.97-6.75-5.79-16.39-5.79-25.07-.97-7.71 5.79-24.1 9.65-36.63 9.65-21.21 0-43.38 18.31-80.979 65.55-9.64 11.57-14.461 21.21-11.569 21.21 2.893 0-8.676 20.24-26.993 46.27-18.317 25.07-38.561 60.74-46.274 79.05-6.748 18.32-16.389 38.57-20.245 43.39-12.532 16.38-66.519 253.54-77.123 334.52-8.677 73.27-5.784 423.21 3.856 439.6 2.892 3.86 7.712 33.74 10.604 64.59 5.785 62.67 32.778 172.57 61.699 252.58 53.023 148.47 149.424 265.12 247.764 299.82 39.52 13.5 53.02 13.5 53.02 0Zm374.05-126.29c80.01-159.07 119.54-277.64 132.07-392.36 1.93-18.32 8.68-81.95 15.43-141.72 9.64-84.83 9.64-147.5.96-286.32-5.78-98.33-15.42-187.02-20.25-195.7-4.82-9.64-16.38-53.02-25.06-96.41-20.25-106.04-76.16-225.58-132.08-286.32-9.63-10.6-19.28-26.99-23.13-36.63-6.75-22.17-15.43-22.17-30.85 1.93-10.61 17.35-9.64 24.1 5.78 46.27 33.74 50.13 74.23 161 95.44 262.22 22.18 108.94 35.67 175.46 42.42 214.02 9.64 58.81 11.57 263.18 3.86 393.33-6.75 107.97-54.95 354.77-77.13 395.26-7.71 13.49-26.02 50.13-42.41 81.94-15.43 31.81-44.35 84.84-63.63 118.58-33.74 59.77-33.74 59.77 23.14 30.85 53.02-27.96 58.8-34.71 95.44-108.94Zm1285.07 127.26c65.55 0 133.04-3.86 148.46-8.68 16.39-4.82 40.49-10.61 54.95-12.53 16.39-1.93 38.56-17.36 58.81-40.49 28.92-33.75 50.13-72.31 41.45-72.31-1.93 0-26.99 4.82-54.95 10.61-60.73 12.53-375.98 11.57-387.55 0-10.6-10.61 115.69-22.18 378.87-34.71 110.87-5.78 116.65-8.67 153.29-74.23 20.24-36.63 20.24-36.63-16.39-35.67-19.28 0-98.34 5.78-175.46 13.5-85.8 7.71-210.16 11.57-320.06 8.67-165.82-3.85-180.28-2.89-185.1 12.54-5.78 19.28.97 144.6 8.68 157.14 2.89 3.85-19.28 15.42-48.2 25.06-39.53 11.57-53.03 20.24-51.1 31.81 2.9 12.54 23.14 16.39 123.4 20.25 66.52 2.89 127.25 3.85 135.93 2.89 8.68-1.93 69.41-3.85 134.97-3.85Zm-899.46-39.53c6.75-6.75 11.57-26.99 11.57-45.31 0-34.71 0-34.71-82.9-37.6-82.91-2.89-129.19-13.5-129.19-28.92 0-3.86 49.17-7.71 108.94-7.71 107.97.96 107.97.96 105.08-60.74-.96-33.74-4.82-64.59-7.71-67.48-2.89-2.89-44.35-7.71-91.59-9.64-96.4-2.89-109.9 2.89-119.54 50.13-3.85 17.35-21.21 57.84-39.52 91.58-18.32 32.78-32.78 71.34-32.78 83.88 0 20.24 4.82 23.13 36.63 23.13 19.28.97 72.31 4.82 117.62 9.64 45.31 3.86 88.69 8.68 97.36 9.64 7.72 0 19.29-3.85 26.03-10.6Zm1416.18-73.27c5.79-3.85 12.54-21.21 15.43-38.56 3.85-25.06 1.93-30.85-8.68-26.99-17.35 6.74-17.35 2.89 5.79-42.42 10.6-21.21 19.28-47.24 19.28-59.77 0-28.92-14.46-11.57-28.92 35.67-12.54 38.56-28.92 63.63-79.06 122.43-15.42 17.35-26.99 35.67-26.99 40.49s-7.71 17.35-16.39 27.96c-14.46 16.39 50.13-15.43 119.54-58.81Zm-2049.55-3.85c35.67-28.93 92.55-109.9 87.73-126.29-.97-3.86 5.78-23.14 16.38-43.39 9.65-19.28 23.14-61.7 28.93-93.51 6.74-31.81 18.31-87.73 26.03-125.32 7.71-36.64 14.46-84.84 13.49-106.05 0-21.21 0-132.07-.96-245.83 0-113.76-1.93-217.87-3.86-231.37-17.35-103.15-28.92-148.46-54.95-229.44-16.39-52.06-33.74-95.44-37.6-98.34-4.82-2.89-17.35-26.99-28.92-53.02-11.57-26.99-26.99-54.95-33.74-62.66-7.71-7.71-24.1-26.99-37.6-42.42-21.21-24.1-27.95-26.99-62.66-21.21-44.35 6.75-106.04 34.71-106.04 47.24 0 4.82-19.29 29.89-42.42 56.88-50.13 54.95-80.983 129.18-93.515 224.62-4.821 36.64-13.497 91.59-19.281 120.51-18.317 97.37-25.065 177.38-22.173 274.75 1.928 53.02 2.892 127.25 2.892 163.89 0 37.59 8.676 102.19 19.281 144.6 33.741 135.93 57.846 218.84 69.416 232.34 5.78 6.75 17.35 31.81 26.02 55.91 16.39 42.42 60.74 104.12 110.87 152.32 23.14 23.14 41.45 28.92 91.58 35.67 6.75 0 29.89-12.53 51.1-29.88Zm1729.49-224.63c97.37-1.92 238.12-18.31 255.47-28.92 6.75-3.85 10.61-19.28 25.07-91.58 1.93-7.71 7.71-35.67 13.5-62.67 11.56-51.09 13.49-67.48 25.06-172.56 6.75-65.55 6.75-65.55-395.26-60.73-221.73 1.92-405.86 7.71-410.68 12.53-4.82 4.82-9.64 98.33-10.6 206.3-1.93 197.63-1.93 197.63 21.2 203.42 12.54 3.85 101.23 4.82 196.67 1.93 95.44-2.9 221.73-5.79 279.57-7.72Zm-1095.15-212.09c0-97.37-1.93-184.13-4.82-192.8-4.82-10.61-20.25-14.47-56.88-14.47-28.92 0-53.99 3.86-56.88 8.68-3.86 4.82-7.71 45.31-10.6 89.66-5.79 88.69-10.61 128.22-24.1 214.98-5.79 31.81-9.65 60.73-9.65 65.55 0 3.86 36.64 6.75 80.98 6.75 81.95 0 81.95 0 81.95-178.35Zm-15.43-378.87c-3.85-162.92-8.67-214.98-23.13-224.62-17.36-11.57-86.77-10.6-105.08.97-15.43 9.64-14.46 79.05 1.92 109.9 5.79 10.6 11.57 62.66 13.5 115.68.96 53.99 2.89 101.23 2.89 105.08.97 3.86 26.03 6.75 56.88 4.82 54.95-2.89 54.95-2.89 53.02-111.83Zm878.25 90.63c39.52-12.54 46.27-12.54 51.09 0 2.89 8.67 11.57 12.53 21.21 8.67 8.68-3.85 118.58-5.78 243.9-5.78 148.47.96 230.41-1.93 234.27-8.68 19.28-30.85-11.57-362.48-35.67-392.37-6.75-8.67-94.48-11.56-348.02-12.53-187.03 0-352.84 2.89-369.23 5.79-33.74 5.78-27.96-28.93-48.2 310.42-6.75 107.97-6.75 107.97 99.29 107.97 63.63 0 124.36-5.78 151.36-13.49Zm-892.71-431.9c-1.92-27.95-7.71-58.8-11.57-67.48-5.78-11.57-3.85-17.35 4.82-17.35 9.64 0 14.46-14.46 15.43-45.31 0-26.03 3.86-62.67 7.71-81.95 6.75-33.74 5.79-36.63-16.39-36.63-12.53 0-46.27 6.75-75.19 15.42-29.89 8.68-74.23 13.5-107.01 11.57-65.56-3.85-65.56-3.85-18.32 88.7 27 53.98 35.67 78.08 44.35 130.14 8.67 53.02 8.67 53.02 86.76 53.02 73.27 0 73.27 0 69.41-50.13Zm1099.01-51.09c160.03 0 291.14-1.93 291.14-3.86 0-2.89-7.71-22.17-17.35-43.38-9.64-22.17-24.1-56.88-30.85-78.09s-26.99-61.69-44.34-88.69c-32.78-51.09-32.78-51.09-87.73-52.06-190.88-5.78-474.31-4.82-494.56.97-28.92 7.71-33.74 30.85-41.45 176.42-5.78 103.15-5.78 103.15 63.63 96.4 38.56-4.82 200.52-7.71 361.51-7.71Zm462.74-61.7c2.9-67.48 1.93-70.37-30.85-103.15-27.95-27.96-63.62-43.38-63.62-27.96 0 3.86 21.21 54.95 42.41 99.3 4.83 12.53 8.68 33.74 7.72 47.24-1.93 29.88 14.46 63.62 29.88 57.84 6.75-1.93 12.54-29.89 14.46-73.27Zm-1627.3-175.46c0-5.78-7.71-8.67-19.28-5.78-10.61 2.89-40.49-2.89-67.49-13.5-26.99-9.64-60.73-18.31-75.19-18.31-18.32 0-22.17-2.89-12.53-8.68 10.6-6.75 8.67-10.6-7.72-19.28-22.17-12.53-43.38-5.78-34.7 9.64 3.85 4.82.96 8.68-4.82 8.68-6.75 0-9.64-6.75-5.79-14.46 3.86-10.61-.96-14.46-18.31-14.46-13.5 0-24.1 1.92-24.1 4.82 0 6.74 40.49 65.55 50.13 72.3 2.89 2.89 53.98 6.75 112.79 7.71 76.16 1.93 107.01 0 107.01-8.68Zm1006.46-112.79c104.12 1.93 188.95 0 188.95-3.85 0-5.79-132.07-53.03-173.53-60.74-11.56-1.93-36.63-8.68-54.95-15.42-18.31-5.79-44.34-12.54-58.8-15.43-42.42-6.75-186.06-9.64-174.49-1.93 5.78 2.89 12.53 25.07 15.42 48.21 6.75 66.51 7.71 67.48 40.49 55.91 17.35-5.78 103.15-8.68 216.91-6.75Zm1085.51-208.23c0-62.67-26.03-174.49-46.27-202.45-4.82-5.79-7.71-17.35-6.75-25.07.96-7.71 2.89-22.17 2.89-30.85 3.86-44.34 42.42 14.46 58.81 88.7 5.78 24.1 16.39 74.23 25.06 110.86 7.72 37.6 14.46 85.8 14.46 108.94 0 27.95 3.86 40.49 13.5 40.49 17.35 0 22.17-42.42 15.43-149.43-4.82-66.52-12.54-99.29-31.82-140.75-28.92-60.73-31.81-76.16-13.5-76.16 16.39 0 64.6 93.51 64.6 123.4 0 11.57 3.85 21.21 7.71 21.21 8.67 0 12.53 23.14 14.46 88.69 1.93 53.99 12.53 51.09 21.21-5.78 8.67-53.99-10.61-117.62-60.74-202.45-26.99-46.28-59.77-80.98-141.71-149.43-42.42-34.71-83.87-71.34-93.51-80.02-9.64-9.64-28.92-17.35-43.38-17.35-39.53.97-113.76 22.18-132.08 37.6-22.17 18.32-45.31 64.59-39.52 80.02 1.92 6.74 5.78 37.59 8.67 68.44 4.82 55.92 35.67 124.36 68.45 151.36 8.68 6.74 26.03 35.67 39.53 64.59 21.2 44.34 27.95 51.09 53.02 51.09 24.1 0 27.95-3.85 27.95-26.03 0-15.42-6.74-35.67-14.46-45.31-7.71-10.6-14.46-26.03-14.46-34.7 0-7.71-8.67-30.85-19.28-51.1-39.52-73.26 0-95.44 54.95-30.85 59.77 72.31 86.77 130.15 94.48 204.38 7.71 84.84 14.46 107.97 31.81 118.58 26.99 14.46 40.49-15.43 40.49-90.62Zm-1796.98-78.09c-15.42-11.57-16.38-14.46-3.85-14.46 22.17 0 26.99-22.17 15.42-63.63-11.57-42.41-53.98-109.9-69.41-109.9-12.53 0-57.84-66.52-50.13-74.23 8.68-9.64 72.3 44.35 111.83 94.48 21.21 26.99 42.42 66.52 48.2 88.69 15.43 58.81 27.96 85.8 37.6 79.05 9.64-5.78 5.78-58.81-9.64-130.15-10.6-46.27-40.49-96.4-93.51-157.14-33.74-38.56-35.67-56.87-4.82-34.7 31.81 24.1 106.04 108.94 127.25 146.54 11.57 20.24 23.14 54.95 26.03 77.12 1.93 21.21 6.75 41.45 9.64 44.34 10.61 10.61 23.14-24.1 18.32-47.23-3.86-13.5-9.64-50.13-15.43-81.95-13.49-85.8-15.42-89.65-80.01-153.28-53.02-53.02-67.49-61.7-131.11-80.02-39.53-11.56-84.84-22.17-101.23-24.1-15.42-.96-37.59-7.71-48.2-14.46-47.24-30.85-160.99-1.93-212.09 53.02-24.1 25.07-53.98 103.16-49.16 129.19 8.67 50.13 45.31 79.05 152.31 122.43 34.71 13.5 77.13 43.38 119.55 82.91 53.02 50.13 69.41 59.77 82.9 52.06 34.71-18.32 11.57-90.62-45.31-142.68-41.45-37.6-48.2-58.81-21.21-58.81 19.29 0 81.95 55.92 89.66 80.02 3.86 11.56 14.46 26.99 24.1 33.74 9.64 6.75 23.14 30.85 28.92 53.02 11.57 39.53 31.82 64.59 51.1 64.59 5.78 0 1.92-6.75-7.72-14.46Zm-579.38-331.63c15.42-71.34 132.07-180.28 228.47-214.02 26.03-8.67 33.75-15.42 26.03-24.1-10.6-13.5-74.23-9.64-88.69 4.82-5.78 5.78-17.35 10.61-25.06 10.61-26.03 0-158.11 138.82-178.35 187.02-8.68 20.25-7.71 61.7.96 76.16 7.71 12.53 29.89-12.53 36.64-40.49Zm1990.75-102.19c25.06-30.85 99.29-53.99 163.88-53.02 90.62 1.93 94.48.96 62.67-17.35-42.42-23.14-162.93-22.18-203.42 1.92-21.21 12.54-28.92 23.14-26.03 35.67 4.82 17.36-4.82 23.14-32.77 19.28-6.75-.96-12.54 4.82-12.54 13.5 0 18.32 32.78 19.28 48.21 0Zm-221.73-56.88c0-12.53-9.65-36.63-22.18-54.95-12.53-18.31-43.38-71.34-68.44-119.54-51.1-94.48-55.92-104.12-102.19-199.56-17.36-35.67-34.71-62.66-39.53-59.77-4.82 2.89-8.68 67.49-8.68 144.61 0 188.95 7.72 203.41 154.25 286.32 57.84 31.81 86.77 33.74 86.77 2.89Zm-1655.27-238.12c-9.64-16.38-23.14-41.45-30.85-54.95-7.71-14.46-35.67-55.91-62.66-93.51-26.03-36.63-65.55-100.26-87.73-139.79-25.06-46.27-45.31-73.26-57.84-75.19-10.6-1.93-33.74-10.6-51.09-18.32-17.36-8.67-33.75-12.53-37.6-9.64-2.9 3.86-14.46 1.93-24.1-3.85-13.5-7.72-22.18-7.72-29.89 0-13.5 13.49.97 28.92 29.89 34.7 33.74 5.79 74.23 42.42 133.03 120.51 29.89 39.52 63.63 81.94 75.2 92.54 24.1 25.07 51.09 56.88 105.08 126.29 44.35 56.88 64.59 67.49 38.56 21.21Zm927.41 6.75c17.36-26.99 9.64-53.98-15.42-53.98-23.14 0-31.82 20.24-24.1 53.02 7.71 29.88 20.24 30.85 39.52.96Zm-346.09-235.23c25.06-58.8 31.81-231.37 11.57-316.2-15.43-66.52-66.52-180.28-85.8-192.81-4.82-2.89-8.68-12.53-8.68-22.17 0-9.64-8.67-25.07-20.24-35.67-27-25.07-105.08-136.9-120.51-174.49-10.6-24.1-10.6-36.64-1.93-55.92 12.54-28.92 4.82-41.45-16.39-24.1-19.28 16.39-18.31 80.98 1.93 113.76 9.64 14.46 39.53 52.06 66.52 83.87 51.1 59.77 121.47 183.17 157.14 278.61 24.1 64.59 30.85 238.12 10.61 275.71-4.82 8.68-10.61 27-13.5 39.53-2.89 12.53-8.68 35.67-11.57 51.09-8.68 38.57 11.57 25.07 30.85-21.21Zm360.55-20.24c4.82-10.6 9.64-30.85 9.64-44.35 0-21.2-3.85-25.06-21.21-22.17-27.95 3.86-45.31 48.2-26.99 69.41 16.39 20.25 26.03 19.28 38.56-2.89Zm316.21-161.96c0-41.45-2.89-67.48-4.82-57.84-2.89 8.67-7.71 16.39-11.57 16.39-7.71 0-5.78 52.06 3.86 94.47 9.64 39.53 13.49 22.18 12.53-53.02Zm-1419.07-89.65c2.89-13.5 12.53-41.46 20.24-62.67 93.51-244.86 110.87-316.2 110.87-452.13-.97-121.47-15.43-174.5-64.59-236.2-41.46-52.05-43.39-38.56-3.86 42.42 28.92 61.7 28.92 61.7 25.07 211.13-1.93 84.83-7.72 155.21-13.5 161.96-11.57 14.46-54.95 139.78-65.56 190.88-3.85 18.32-12.53 44.34-19.28 57.84-26.03 51.1-41.45 102.19-41.45 134 .96 32.78.96 32.78 24.1 4.82 12.53-15.42 25.06-38.56 27.96-52.05Zm1119.25-4.82c1.93-10.61-3.86-27.96-11.57-38.57-13.49-16.39-16.39-17.35-24.1-4.82-7.71 11.57-7.71 38.56-.96 65.56 2.89 12.53 34.7-6.75 36.63-22.17Zm331.63-77.13c15.43-33.74 33.74-64.59 38.56-67.48 4.82-3.86 6.75-9.64 3.86-14.46s-.96-16.39 3.86-26.03c19.28-36.63 67.48-202.45 70.37-241.01 2.89-52.06-33.74-132.08-67.48-146.54-29.89-14.46-38.56-6.74-19.28 15.43 8.67 9.64 24.1 35.67 35.67 57.84 20.24 39.53 20.24 43.38 5.78 112.79-8.67 39.53-26.03 101.23-39.52 137.86-26.03 67.49-71.34 213.05-71.34 226.55 0 19.28 11.57 2.89 39.52-54.95ZM2622.2 2941.3c0-10.61 3.86-21.21 8.68-24.1 12.53-7.72 57.84-125.33 80.01-208.24 23.14-81.94 38.57-290.18 24.11-304.64-11.57-11.56-56.88 14.46-61.7 35.67-6.75 25.07-37.6 16.39-70.38-20.24-22.17-25.07-86.76-48.2-86.76-30.85 0 3.86 11.57 24.1 24.1 45.31 13.5 21.21 24.1 50.13 24.1 63.63 0 30.85-25.06 62.66-55.91 71.34-22.18 6.74-22.18 5.78-15.43-51.1 5.79-56.88 5.79-57.84-26.03-81.94-18.31-13.5-56.88-33.74-85.8-44.35-69.41-26.03-71.34-28.92-82.91-68.44-5.78-21.21-16.38-34.71-27.95-36.64-29.89-5.78-35.67-16.39-38.56-64.59-1.93-37.6-7.72-51.09-41.46-84.84-41.45-42.41-78.09-111.82-79.05-147.49 0-11.57-6.75-26.03-14.46-32.78-12.53-10.61-14.46-5.79-14.46 33.74 0 36.63 13.5 72.3 71.34 190.88 79.05 162.92 139.79 313.31 168.71 418.4 18.31 67.48 78.08 170.63 114.72 197.62 8.67 6.75 24.1 23.14 32.78 36.64 8.67 13.49 28.92 39.52 45.31 57.84 16.38 18.32 29.88 37.6 29.88 41.45 0 3.86 8.68 20.25 20.25 34.71 20.24 26.99 21.2 26.99 38.56 9.64 9.64-9.64 18.31-26.99 18.31-36.63Zm408.76-382.73c20.24-20.24 19.28-42.42-3.86-71.34-19.28-24.1-19.28-24.1-19.28 16.39 0 22.17-2.89 46.27-5.78 54.95-7.72 20.25 9.64 20.25 28.92 0Zm-987.18-107.01c0-4.82-16.39-16.39-36.64-26.99-35.67-19.28-35.67-20.25-35.67-78.09 0-52.06-1.92-56.88-12.53-41.45-6.75 10.6-13.5 26.03-13.5 35.67-1.92 26.99 22.18 92.55 38.57 106.04 16.38 12.54 59.77 16.39 59.77 4.82Zm669.04-253.54c18.32-32.78 30.85-35.67 53.99-14.46 15.43 14.46 19.28 11.57 41.45-26.03 29.89-52.06 45.31-123.4 45.31-210.16 0-60.74-10.6-86.77-22.17-54.95-1.93 5.78-7.71-8.68-11.57-33.74-9.64-60.74-70.37-134.01-98.33-118.58-25.07 14.46-81.94 10.6-118.58-8.68-37.59-18.31-41.45-19.28-32.78-3.85 4.83 6.74 1.93 8.67-8.67 4.82-9.64-3.86-17.35 0-21.21 10.6-2.89 8.68-19.28 25.07-35.67 35.67-16.39 10.61-34.7 31.81-39.53 48.2-5.78 15.43-14.46 33.74-20.24 39.53-5.79 5.78-19.28 26.03-29.89 45.31-10.6 20.24-23.13 34.7-28.92 32.78-16.39-5.79-17.35-80.98-.96-105.09 20.24-29.88 160.03-176.41 160.03-167.74 0 3.86 7.71 0 17.35-9.64 14.46-14.46 16.39-15.42 19.28-1.93 1.93 9.64 9.64 13.5 21.21 10.61 10.61-2.89 33.74 4.82 52.06 16.39 22.17 13.49 41.45 18.31 54.95 14.46 22.17-7.72 22.17-10.61-3.85-115.69-7.72-31.81-16.39-81.94-20.25-111.83-4.82-46.27-2.89-58.8 14.46-80.01 10.6-13.5 26.03-25.07 33.74-25.07 7.71 0 13.5-3.85 13.5-9.64 0-4.82 8.67-9.64 20.24-9.64 27.96 0 76.16-29.88 76.16-48.2 0-24.1-13.49-36.63-38.56-35.67-13.49 0-66.52-4.82-117.61-10.61-124.36-15.42-289.21-14.46-354.77 1.93-92.55 23.14-104.12 29.89-111.83 70.38-4.82 20.24-5.78 41.45-3.86 46.27 8.68 23.14 12.54 126.29 5.79 163.89-3.86 22.17 9.64 53.02 23.14 53.02 5.78 0 9.64-7.71 9.64-16.39 0-12.53 2.89-13.49 10.6-5.78 5.79 5.78 12.53 31.81 13.5 57.84 1.93 25.07 5.78 58.81 9.64 74.23 5.78 20.25 4.82 26.03-2.89 21.21-6.75-3.86-1.93 7.71 10.6 26.03 18.32 28.92 25.07 32.78 49.17 27.96 26.03-4.82 27.95-2.89 22.17 18.32-3.86 12.53-6.75 28.92-6.75 35.66 0 5.79-5.78 11.57-12.53 11.57-7.71 0-20.25 7.72-29.89 18.32-18.31 19.28-58.8 17.35-67.48-4.82-2.89-7.71-.96-24.1 3.86-37.6 10.6-27.95 1.93-83.87-11.57-76.16-4.82 2.89-6.75 11.57-3.86 19.28 2.89 6.75.97 15.43-3.85 18.32-15.43 9.64-26.03-32.78-27-99.3 0-33.74-4.82-66.51-10.6-72.3-5.79-5.78-10.61-31.81-10.61-56.88 0-33.74-5.78-52.06-20.24-66.52-16.39-16.39-18.32-24.1-9.64-48.2 8.68-25.06 7.71-27.96-9.64-27.96-9.64 0-18.32 4.82-18.32 9.64 0 5.79-8.67 9.64-19.28 9.64-23.14 0-24.1-7.71-5.78-27.95 21.2-24.1 29.88-78.09 12.53-78.09-7.71 0-19.28 6.75-26.03 14.46-6.75 7.71-15.43 14.46-19.28 14.46-4.82 0-30.85 15.43-58.81 33.74-47.24 30.85-51.09 36.64-53.02 74.23-1.93 41.46-1.93 41.46 10.6 10.61 15.43-36.64 23.14-38.56 49.17-12.53 9.64 10.6 26.03 27.95 35.67 37.59 9.64 9.64 25.07 32.78 34.7 50.13 9.65 18.32 25.07 32.78 34.71 32.78 20.25 0 24.1 15.43 28.92 107.01.97 37.6 8.68 77.12 14.46 87.73 9.64 14.46 9.64 26.99 1.93 50.13-8.67 25.06-8.67 29.88 4.82 29.88 11.57 0 13.5 6.75 8.68 34.71-4.82 21.21-2.89 39.52 3.85 47.24 6.75 7.71 8.68 18.31 4.82 24.1-3.85 5.78-1.92 15.42 2.9 22.17 5.78 6.75 10.6 14.46 10.6 19.28 0 3.86 4.82 14.46 9.64 24.1 8.68 15.43 9.64 15.43 15.43 0 11.56-28.92 23.13-19.28 29.88 21.21 4.82 29.89 17.35 50.13 51.09 81.95 24.11 24.1 50.14 43.38 56.88 43.38 6.75 0 36.64 13.49 66.52 28.92 29.89 16.39 67.49 29.88 83.87 31.81 26.03 1.93 29.89-1.93 32.78-24.1 3.86-34.7 12.54-33.74 53.03 6.75 29.88 29.89 36.63 32.78 61.69 24.1 15.43-5.78 35.67-23.14 45.31-38.56Zm-624.7-448.28c-2.89-7.71-.96-14.46 3.86-14.46 5.78 0-9.64-27.96-33.74-61.7-40.49-58.81-42.42-62.66-31.82-98.33 4.83-21.21 14.46-43.38 19.29-49.17 6.74-8.68 4.82-14.46-5.79-18.32-21.21-7.71-26.03-2.89-45.31 50.13-23.14 59.77-9.64 98.34 62.66 175.46 31.82 33.74 39.53 38.56 30.85 16.39Zm762.56-44.35c6.75-12.53 9.64-38.56 6.75-56.88-4.82-32.77-25.06-127.25-27.96-133.03-.96-.97-14.46 3.85-28.92 11.57-15.42 7.71-30.85 12.53-35.67 9.63-17.35-10.6-26.03 6.75-16.39 32.78 5.79 14.46 12.54 36.64 14.46 50.13 10.61 59.77 45.31 119.54 65.56 112.8 5.78-1.93 16.39-13.5 22.17-27Zm-758.7-71.34c0-45.31-20.24-69.41-32.78-38.56-6.75 18.32 12.54 74.23 24.1 66.52 4.82-2.89 8.68-15.42 8.68-27.96Zm727.85-192.8c0-23.14-4.82-29.89-23.13-31.82-30.85-4.82-68.45 16.39-68.45 37.6 0 11.57 9.64 18.32 31.81 21.21 53.02 6.75 59.77 3.85 59.77-26.99Zm-58.8-350.92c30.85-49.16-348.02-81.94-524.44-45.31-39.53 8.68-81.95 16.39-93.52 18.32-11.56 1.93-24.1 5.78-27.95 8.68-2.9 3.85 41.45 3.85 99.29 1.92 56.88-2.89 153.29.97 214.02 7.72 145.57 16.39 324.88 21.21 332.6 8.67Z" style="fill-rule:nonzero" transform="translate(-620.452 -421.391)"/><path d="M1136.61 6130.35c-.96-12.53-2.89-33.74-3.85-47.24-3.86-32.77-6.75-147.5-4.82-207.26.96-43.39 1.92-45.32 11.57-24.11 5.78 13.5 13.49 63.63 18.31 110.87 4.82 48.2 10.61 100.26 12.53 117.61 2.9 21.21-.96 36.64-14.46 52.06-18.31 21.21-18.31 21.21-19.28-1.93ZM1268.69 5984.78c-2.9-70.37-5.79-195.7-5.79-277.64 0-81.95-.96-227.52-1.93-322.96-.96-176.42 7.72-297.89 21.21-289.21 3.86 1.93 7.71 79.05 8.68 170.64.96 91.58 2.89 203.41 4.82 248.72 6.75 152.32 5.78 519.62 0 559.14-11.57 70.38-20.25 40.49-26.99-88.69ZM1175.17 5560.6c0-1.93-1.92-32.78-3.85-70.37-3.86-67.49-3.86-67.49 13.5-17.35 18.31 48.2 17.35 89.65 0 89.65-4.83 0-8.68-.96-9.65-1.93ZM1042.14 5512.4c-10.61-16.39-15.43-60.73-17.36-161.96-1.92-77.12-3.85-146.53-5.78-154.25-2.89-22.17 24.1-125.32 33.74-125.32 3.86 0 7.71 5.78 8.68 12.53 3.85 44.35 2.89 402.01-.97 424.18-4.82 26.03-4.82 26.03-18.31 4.82ZM2769.7 5909.59c-38.56-2.9-75.19-10.61-81.94-16.39-9.64-9.64 7.71-12.54 84.83-13.5 52.06 0 104.12-1.93 114.73-4.82 10.6-1.93 71.34-5.78 135.92-7.71 104.12-3.86 153.29 2.89 137.86 17.35-21.21 21.21-250.65 35.67-391.4 25.07ZM2787.05 5349.48c-49.16-9.64-58.8-16.39-39.52-27.96 22.17-14.46 99.3-10.61 119.54 4.82 17.35 13.5 17.35 14.46-7.71 24.1-14.46 4.82-26.99 9.64-27.96 8.68-.96-.97-21.21-4.82-44.35-9.64ZM2532.55 2789.94c-9.64-9.64-8.68-138.82.96-138.82 4.82 0 15.43 17.35 25.07 37.6 22.17 52.06 2.89 129.18-26.03 101.22ZM2448.68 2028.35c0-7.72 4.82-24.1 11.56-35.67 5.79-11.57 10.61-32.78 9.65-47.24-3.86-49.17 91.58-126.29 135.93-110.86 5.78 1.92 23.13-1.93 37.59-8.68 43.38-22.17 107.01 0 133.04 46.27 33.74 60.74 10.6 73.27-47.24 27-40.49-32.78-63.62-33.75-137.86-.97-54.95 24.1-99.29 66.52-112.79 109.9-12.53 35.67-29.88 48.2-29.88 20.25Z" style="fill-rule:nonzero" transform="translate(-620.452 -421.391)"/><path d="M2671.37 1969.54c-19.28-16.39-21.21-21.21-11.57-39.52 21.21-39.53 44.35-19.29 37.6 31.81-2.89 26.03-2.89 26.03-26.03 7.71ZM2424.57 1532.83c-15.42-3.86-40.48-10.6-54.95-13.5-35.67-7.71-33.74-21.21 4.82-33.74 65.56-22.17 170.64-10.6 170.64 18.32 0 32.77-55.92 46.27-120.51 28.92ZM2336.85 1434.5c-8.68-13.5 59.77-73.27 93.51-80.02 15.42-3.86 29.88-9.64 32.78-13.5 6.75-11.56 100.26 7.72 127.25 25.07 40.49 26.99 21.21 36.63-71.34 36.63-48.2.97-93.51 5.79-101.22 11.57-23.14 18.32-74.23 31.82-80.98 20.25Z" style="fill-rule:nonzero" transform="translate(-620.452 -421.391)"/></svg>