<?xml version="1.0" encoding="UTF-8" standalone="no"?>
<!DOCTYPE svg PUBLIC "-//W3C//DTD SVG 1.1//EN" "http://www.w3.org/Graphics/SVG/1.1/DTD/svg11.dtd">
<svg width="100%" height="100%" viewBox="0 0 3766 6473" version="1.1" xmlns="http://www.w3.org/2000/svg" xmlns:xlink="http://www.w3.org/1999/xlink" xml:space="preserve" xmlns:serif="http://www.serif.com/" style="fill-rule:evenodd;clip-rule:evenodd;stroke-linejoin:round;stroke-miterlimit:2;">
    <g transform="matrix(1,0,0,1,-620.452,-421.391)">
        <path id="pY3zIAjH0" d="M1802.77,6503.44C1797.95,6500.55 1633.1,6488.98 1569.47,6488.01C1549.22,6488.01 1542.48,6483.19 1542.48,6469.69C1542.48,6459.09 1554.04,6437.88 1569.47,6421.49C1595.5,6393.54 1595.5,6393.54 1716,6403.18C1782.52,6408 1851.93,6411.85 1870.25,6411.85C1908.81,6410.89 1941.59,6444.63 1935.8,6481.26C1932.91,6500.55 1927.13,6502.47 1870.25,6505.36C1835.54,6507.29 1804.69,6506.33 1802.77,6503.44Z" style="fill:white;fill-rule:nonzero;"/>
        <path id="pYXT80Pjj" d="M1103.84,6418.6C942.84,6360.76 823.298,6132.28 786.665,5808.36C771.24,5668.57 767.384,5440.1 779.916,5339.84C790.521,5260.78 844.507,5024.59 857.04,5008.21C860.896,5003.39 870.536,4983.14 877.285,4964.82C884.997,4946.51 903.314,4913.73 917.775,4893.48C932.235,4873.24 944.768,4852.03 944.768,4848.17C944.768,4843.35 951.516,4831.79 958.264,4823.11C965.977,4813.47 980.437,4796.12 990.078,4783.58C1017.07,4748.88 1162.64,4719.96 1191.56,4744.06C1216.63,4765.27 1206.02,4779.73 1159.75,4786.48C1038.28,4804.79 936.091,4942.65 892.709,5147.99C884.033,5187.52 872.465,5239.58 866.68,5264.64C853.184,5327.3 852.22,5726.42 866.68,5752.45C872.465,5764.02 877.285,5788.12 877.285,5806.43C877.285,5843.07 894.638,5943.33 906.206,5972.25C910.062,5982.85 917.775,6002.13 923.559,6015.63C928.379,6029.13 942.84,6065.76 955.372,6097.57C966.941,6129.39 983.33,6159.27 990.078,6163.13C996.826,6166.99 1002.61,6174.7 1002.61,6180.48C1002.61,6185.3 1012.25,6210.37 1023.82,6235.43C1045.03,6280.74 1085.52,6323.16 1144.33,6364.61C1182.89,6391.61 1188.67,6430.17 1154.93,6429.21C1142.4,6429.21 1120.22,6424.39 1103.84,6418.6Z" style="fill:white;fill-rule:nonzero;"/>
        <path id="pDYXkJMlg" d="M1378.59,6420.53C1378.59,6414.74 1395.94,6379.07 1418.11,6341.48C1439.32,6302.92 1467.28,6249.89 1480.78,6223.86C1494.27,6196.87 1510.66,6164.09 1518.37,6150.6C1525.12,6137.1 1544.4,6065.76 1560.79,5991.53C1586.82,5872.95 1591.64,5831.5 1596.46,5649.29C1602.25,5448.77 1599.35,5414.07 1570.43,5278.14C1565.61,5252.11 1556.93,5210.65 1552.12,5186.55C1529.94,5072.8 1490.42,4959.04 1453.78,4905.05C1444.14,4891.56 1436.43,4874.2 1436.43,4866.49C1436.43,4859.74 1427.75,4848.17 1417.15,4841.43C1393.05,4826.97 1391.12,4788.4 1414.26,4793.22C1423.9,4795.15 1436.43,4806.72 1443.18,4820.22C1449.93,4833.71 1455.71,4838.53 1455.71,4832.75C1455.71,4813.47 1492.34,4818.29 1498.13,4837.57C1501.99,4847.21 1511.62,4863.6 1521.27,4874.2C1577.18,4934.94 1633.1,5054.48 1653.34,5160.52C1662.02,5203.91 1673.59,5247.29 1678.4,5256.93C1684.19,5266.57 1692.87,5358.15 1698.65,5460.34C1710.22,5647.37 1704.43,5765.94 1676.48,5938.51C1659.12,6044.55 1621.53,6150.6 1550.19,6292.31C1513.55,6366.54 1507.77,6373.29 1454.75,6401.25C1394.98,6432.1 1378.59,6435.95 1378.59,6420.53Z" style="fill:white;fill-rule:nonzero;"/>
        <path id="pFSeryps2" d="M2545.08,6420.53C2424.57,6415.71 2424.57,6415.71 2421.68,6390.64C2418.79,6368.47 2423.61,6364.61 2465.06,6351.12C2511.34,6336.66 2511.34,6336.66 2508.45,6265.32C2504.59,6139.99 2484.35,6150.6 2716.68,6152.53C2826.58,6154.45 2988.54,6148.67 3077.23,6140.96C3165.92,6134.21 3242.08,6131.32 3245.94,6134.21C3257.51,6145.78 3205.45,6231.58 3173.64,6251.82C3157.25,6262.43 3141.82,6281.71 3137.97,6294.24C3135.07,6306.77 3116.76,6335.69 3097.48,6357.87C3057.95,6405.11 3034.81,6411.85 2877.68,6416.67C2824.65,6417.64 2755.24,6420.53 2723.43,6422.46C2691.61,6424.39 2611.6,6423.42 2545.08,6420.53ZM3108.08,6266.28C3131.22,6259.53 3123.51,6257.61 3070.48,6261.46C3033.85,6264.35 2947.09,6269.17 2877.68,6273.03C2752.35,6280.74 2752.35,6280.74 2843.93,6285.56C2940.34,6290.38 3057.95,6281.71 3108.08,6266.28Z" style="fill:white;fill-rule:nonzero;"/>
        <path id="pp3xo6M86" d="M1757.46,6379.07C1638.88,6370.4 1638.88,6370.4 1638.88,6337.62C1638.88,6319.31 1653.34,6279.78 1671.66,6245.07C1689.97,6211.33 1707.33,6170.84 1711.18,6153.49C1720.82,6105.29 1734.32,6100.47 1840.36,6104.32C1893.39,6105.29 1938.7,6110.11 1942.55,6113C1945.44,6116.86 1949.3,6151.56 1950.27,6190.12C1952.19,6261.46 1952.19,6261.46 1867.36,6262.43C1821.08,6263.39 1779.63,6266.28 1776.74,6270.14C1770.95,6275.92 1858.68,6280.74 1916.52,6277.85C1947.37,6276.89 1947.37,6276.89 1947.37,6322.2C1947.37,6348.23 1942.55,6373.29 1935.8,6380.04C1923.27,6392.57 1927.13,6392.57 1757.46,6379.07Z" style="fill:white;fill-rule:nonzero;"/>
        <path id="pOX5tigJS" d="M3200.63,6368.47C3200.63,6361.72 3207.38,6350.15 3215.09,6343.41C3222.8,6336.66 3229.55,6326.05 3229.55,6320.27C3229.55,6314.48 3241.12,6295.2 3256.54,6278.82C3301.85,6226.76 3320.17,6195.91 3336.56,6150.6C3354.88,6097.57 3383.8,6085.04 3383.8,6131.32C3383.8,6147.7 3377.05,6173.73 3369.34,6189.16C3359.7,6207.48 3358.73,6218.08 3365.48,6220.01C3373.19,6222.9 3374.16,6237.36 3370.3,6262.43C3363.55,6299.06 3358.73,6304.84 3293.18,6341.48C3217.02,6384.86 3200.63,6389.68 3200.63,6368.47Z" style="fill:white;fill-rule:nonzero;"/>
        <path id="pemLqcozB" d="M1193.49,6327.02C1149.14,6320.27 1057.56,6218.08 1029.6,6144.81C1020.93,6120.71 1009.36,6095.65 1003.57,6088.9C992.006,6075.4 966.941,5989.6 935.127,5861.38C900.422,5718.71 900.422,5426.6 935.127,5249.22C940.912,5223.19 948.624,5170.16 953.444,5133.53C965.977,5038.09 996.826,4963.86 1046.96,4908.91C1070.09,4881.92 1089.37,4856.85 1089.37,4852.03C1089.37,4837.57 1156.86,4809.61 1206.99,4803.83C1249.41,4799.01 1255.19,4800.94 1277.36,4826C1290.86,4841.43 1307.25,4860.71 1314.96,4868.42C1321.71,4876.13 1337.13,4904.09 1348.7,4931.08C1360.27,4957.11 1372.8,4981.21 1377.62,4984.11C1389.19,4991.82 1446.07,5173.06 1452.82,5223.19C1455.71,5248.25 1462.46,5276.21 1466.32,5284.89C1471.14,5293.56 1475.96,5423.71 1475.96,5574.1C1476.92,5787.15 1474.03,5860.42 1462.46,5909.59C1454.75,5944.29 1443.18,6000.21 1436.43,6034.91C1430.65,6068.65 1419.08,6109.14 1411.37,6123.6C1403.65,6138.07 1397.87,6156.38 1397.87,6164.09C1397.87,6188.19 1335.2,6278.82 1297.61,6307.74C1264.83,6332.8 1250.37,6335.69 1193.49,6327.02ZM1148.18,5986.71C1140.47,5895.13 1140.47,5895.13 1138.54,5963.57C1138.54,6001.17 1140.47,6053.23 1144.33,6079.26C1155.89,6152.53 1157.82,6091.79 1148.18,5986.71ZM1287.97,5683.04C1285.08,5472.88 1277.36,5303.2 1272.54,5290.67C1263.87,5272.35 1263.87,5274.28 1267.72,5303.2C1270.61,5322.48 1272.54,5463.23 1272.54,5616.52C1273.51,5886.45 1279.29,6054.19 1289.89,6054.19C1292.79,6054.19 1291.82,5887.41 1287.97,5683.04ZM1052.74,5334.05C1052.74,5127.75 1051.78,5108.47 1041.17,5134.49C1027.68,5169.2 1033.46,5505.65 1047.92,5492.15C1049.85,5489.26 1052.74,5418.89 1052.74,5334.05Z" style="fill:white;fill-rule:nonzero;"/>
        <path id="ptYhcSCMz" d="M2535.44,6085.04C2512.3,6077.33 2512.3,6077.33 2514.23,5871.02C2515.2,5743.77 2520.01,5660.86 2526.76,5654.11C2532.55,5648.33 2680.05,5643.51 2947.09,5641.58C3357.77,5637.73 3357.77,5637.73 3351.02,5728.35C3347.16,5777.51 3340.42,5835.36 3335.6,5856.56C3330.78,5877.77 3319.21,5928.87 3310.53,5970.32C3301.85,6011.78 3291.25,6047.44 3287.39,6049.37C3270.04,6059.98 3063.74,6083.11 2998.18,6081.19C2958.66,6080.22 2843.93,6083.11 2742.71,6086.01C2642.45,6089.86 2548.94,6088.9 2535.44,6085.04ZM3075.3,5893.2C3119.65,5888.38 3124.47,5886.45 3105.19,5878.74C3091.69,5873.92 3035.78,5874.88 2970.22,5880.66C2908.52,5885.48 2825.62,5891.27 2786.09,5892.23C2713.79,5894.16 2713.79,5894.16 2800.55,5900.91C2887.32,5906.69 2976.97,5904.77 3075.3,5893.2Z" style="fill:white;fill-rule:nonzero;"/>
        <path id="pcE1qzKFr" d="M1757.46,6004.06C1761.31,5980.93 1770.95,5895.13 1778.66,5813.18C1787.34,5731.24 1796.02,5657.97 1797.95,5652.19C1804.69,5632.91 1924.24,5635.8 1931.95,5655.08C1934.84,5663.76 1937.73,5754.38 1937.73,5857.53C1937.73,6044.55 1937.73,6044.55 1845.18,6044.55C1751.67,6044.55 1751.67,6044.55 1757.46,6004.06Z" style="fill:white;fill-rule:nonzero;"/>
        <path id="pdx4UpX05" d="M1788.31,5582.78C1785.41,5573.14 1785.41,5553.85 1788.31,5541.32C1793.13,5519.15 1783.49,5426.6 1765.17,5316.7C1756.49,5266.57 1757.46,5256.93 1770.95,5247.29C1790.23,5232.83 1873.14,5230.9 1898.21,5243.43C1916.52,5254.04 1918.45,5278.14 1921.34,5490.23C1923.27,5596.27 1923.27,5596.27 1858.68,5599.16C1801.8,5602.06 1794.09,5600.13 1788.31,5582.78Z" style="fill:white;fill-rule:nonzero;"/>
        <path id="pN8FCDjWi" d="M2529.66,5473.84C2547.01,5141.24 2544.12,5160.52 2576.89,5153.78C2592.32,5150.88 2762.95,5147.99 2954.8,5147.99C3222.8,5147.99 3306.67,5150.88 3314.39,5160.52C3339.45,5190.41 3370.3,5539.39 3351.02,5571.21C3346.2,5578.92 3279.68,5581.81 3118.69,5581.81C2995.29,5580.85 2882.49,5583.74 2868.03,5587.6C2851.65,5591.45 2839.11,5589.52 2834.29,5582.78C2829.47,5573.14 2817.9,5573.14 2789.95,5580.85C2768.74,5586.63 2700.29,5591.45 2637.63,5591.45C2522.91,5591.45 2522.91,5591.45 2529.66,5473.84Z" style="fill:white;fill-rule:nonzero;"/>
        <path id="p16Ig8nqDL" d="M1740.1,5184.63C1738.18,5177.88 1731.43,5147.99 1725.64,5119.07C1718.89,5090.15 1699.61,5036.16 1681.3,4999.53C1634.06,4904.09 1635.99,4898.31 1704.43,4904.09C1740.1,4907.94 1777.7,4904.09 1811.44,4893.48C1840.36,4884.81 1878.93,4878.06 1897.24,4878.06C1930.02,4878.06 1930.02,4878.06 1923.27,4924.33C1920.38,4949.4 1916.52,4989.89 1916.52,5015.92C1915.56,5040.98 1912.67,5061.23 1909.78,5061.23C1905.92,5061.23 1904.95,5092.08 1906.88,5128.71C1910.74,5196.19 1910.74,5196.19 1827.83,5196.19C1769.03,5196.19 1743,5192.34 1740.1,5184.63Z" style="fill:white;fill-rule:nonzero;"/>
        <path id="pBbEGo9d1" d="M2560.51,4996.64C2569.18,4834.68 2573.04,4818.29 2607.74,4808.65C2629.92,4802.86 2975.04,4803.83 3150.5,4809.61C3174.6,4810.58 3227.62,4885.77 3248.83,4950.36C3255.58,4971.57 3270.04,5006.28 3279.68,5028.45C3311.49,5099.79 3329.81,5094.97 3005.89,5094.97C2844.9,5094.97 2678.12,5098.83 2633.77,5102.68C2554.72,5110.39 2554.72,5110.39 2560.51,4996.64Z" style="fill:white;fill-rule:nonzero;"/>
        <path id="pFP2ItQvu" d="M3413.68,5091.11C3407.9,5080.51 3403.08,5058.34 3403.08,5042.91C3403.08,5026.52 3399.22,5005.31 3394.4,4995.67C3374.16,4955.18 3354.88,4905.05 3354.88,4892.52C3354.88,4865.53 3403.08,4876.13 3437.78,4910.84C3471.53,4944.58 3471.53,4944.58 3468.63,5024.59C3465.74,5098.83 3463.81,5104.61 3444.53,5107.5C3431.04,5109.43 3419.47,5103.65 3413.68,5091.11Z" style="fill:white;fill-rule:nonzero;"/>
        <path id="p19NVFFobd" d="M1603.21,4859.74C1599.35,4856.85 1584.89,4837.57 1571.4,4818.29C1557.9,4798.04 1541.51,4781.65 1535.73,4781.65C1528.01,4781.65 1523.19,4768.16 1523.19,4747.91C1523.19,4708.39 1546.33,4700.68 1555.97,4738.27C1561.76,4759.48 1567.54,4762.38 1605.14,4762.38C1634.06,4762.38 1654.3,4768.16 1665.87,4779.73C1685.15,4799.01 1777.7,4829.86 1815.3,4829.86C1834.58,4829.86 1841.33,4834.68 1841.33,4849.14C1841.33,4867.45 1835.54,4868.42 1726.61,4867.45C1663.94,4866.49 1608.03,4863.6 1603.21,4859.74Z" style="fill:white;fill-rule:nonzero;"/>
        <path id="p3wRhSvn9" d="M2579.78,4751.77C2577.86,4744.06 2573.04,4718.99 2570.14,4694.89C2568.22,4671.75 2560.51,4650.55 2555.68,4648.62C2549.9,4646.69 2545.08,4638.98 2545.08,4632.23C2545.08,4612.95 2726.32,4619.7 2800.55,4641.87C2987.58,4697.78 3036.74,4716.1 3036.74,4731.53C3036.74,4745.99 3017.46,4747.91 2837.18,4747.91C2726.32,4747.91 2625.1,4751.77 2610.64,4756.59C2590.39,4762.38 2582.68,4761.41 2579.78,4751.77Z" style="fill:white;fill-rule:nonzero;"/>
        <path id="pKyQfF0Ip" d="M3871.6,4624.52C3860.03,4615.84 3851.36,4586.92 3842.68,4526.18C3835.93,4477.98 3823.4,4426.89 3814.72,4410.5C3806.05,4395.07 3795.44,4372.9 3790.62,4362.3C3784.84,4351.69 3766.52,4325.66 3748.21,4305.42C3706.75,4257.22 3683.62,4264.93 3711.57,4316.99C3722.18,4336.27 3730.85,4359.4 3730.85,4367.12C3730.85,4375.79 3737.6,4391.22 3745.31,4401.82C3753.03,4411.46 3759.78,4436.53 3759.78,4456.77C3759.78,4492.44 3758.81,4492.44 3722.18,4492.44C3685.54,4492.44 3682.65,4490.51 3659.51,4441.35C3646.02,4412.43 3628.66,4383.51 3619.99,4376.76C3582.39,4345.91 3554.43,4279.39 3546.72,4201.3C3536.12,4091.4 3556.36,4055.73 3643.12,4032.59C3707.72,4015.24 3756.88,4017.17 3777.13,4037.41C3786.77,4046.09 3828.22,4082.72 3870.64,4117.43C3988.25,4215.76 4032.6,4275.53 4067.3,4387.36C4086.59,4450.99 4075.02,4532.93 4045.13,4538.72C4029.71,4541.61 4028.74,4537.75 4033.56,4504.98C4038.38,4479.91 4035.49,4456.77 4024.89,4434.6C4009.46,4400.86 4009.46,4400.86 4011.39,4482.8C4014.28,4622.59 4013.32,4627.41 3986.33,4627.41C3964.15,4627.41 3962.22,4623.55 3962.22,4582.1C3961.26,4556.07 3955.47,4514.61 3947.76,4487.62C3934.27,4439.42 3934.27,4439.42 3934.27,4519.44C3933.3,4627.41 3915.95,4657.29 3871.6,4624.52ZM3922.7,4358.44C3911.13,4314.09 3885.1,4265.89 3885.1,4287.1C3885.1,4293.85 3894.74,4330.48 3907.27,4368.08C3929.45,4442.31 3943.91,4433.64 3922.7,4358.44Z" style="fill:white;fill-rule:nonzero;"/>
        <path id="p919C3zS7" d="M2099.69,4461.59C2091.01,4454.85 2081.38,4436.53 2078.48,4420.14C2069.81,4385.43 2046.67,4347.84 2034.14,4347.84C2028.35,4347.84 2026.42,4363.26 2030.28,4388.33C2036.07,4420.14 2034.14,4430.74 2019.68,4441.35C2009.07,4448.1 1996.54,4453.88 1991.72,4453.88C1985.93,4453.88 1951.23,4425.92 1915.56,4392.18C1872.18,4351.69 1830.72,4322.77 1795.05,4308.31C1739.14,4286.14 1669.73,4245.65 1655.27,4227.33C1651.41,4222.51 1645.63,4206.12 1641.77,4191.66C1638.88,4176.24 1633.1,4164.67 1628.28,4164.67C1623.45,4164.67 1619.6,4155.99 1619.6,4145.39C1619.6,4134.78 1625.38,4126.11 1633.1,4126.11C1640.81,4126.11 1651.41,4111.65 1657.2,4094.29C1682.26,4019.1 1769.99,3967.04 1859.64,3974.75C1889.53,3977.64 1932.91,3984.39 1957.01,3991.14C1981.11,3997.89 2032.21,4012.35 2070.77,4022.95C2129.58,4039.34 2149.82,4050.91 2192.24,4091.4C2260.69,4156.95 2273.22,4178.16 2280.93,4246.61C2284.79,4278.43 2291.54,4312.17 2296.36,4322.77C2309.85,4347.84 2296.36,4424.96 2279.97,4424.96C2266.47,4424.96 2246.23,4370.97 2246.23,4336.27C2246.23,4315.06 2211.52,4252.4 2186.46,4227.33C2168.14,4209.01 2168.14,4209.98 2187.42,4236.97C2209.59,4268.78 2243.33,4422.07 2233.69,4447.13C2229.84,4456.77 2221.16,4463.52 2212.49,4463.52C2196.1,4463.52 2184.53,4441.35 2169.1,4379.65C2163.32,4358.44 2151.75,4331.45 2142.11,4321.81C2133.43,4312.17 2128.61,4308.31 2131.51,4314.09C2146.93,4338.19 2158.5,4403.75 2153.68,4436.53C2146.93,4475.09 2128.61,4483.77 2099.69,4461.59Z" style="fill:white;fill-rule:nonzero;"/>
        <path id="pP0xNw41p" d="M1500.06,4162.74C1486.56,4121.29 1486.56,4096.22 1497.16,4075.01C1525.12,4021.03 1652.38,3885.1 1675.51,3885.1C1682.26,3885.1 1697.69,3879.31 1709.25,3871.6C1734.32,3856.17 1792.16,3853.28 1809.52,3867.74C1830.72,3885.1 1823.01,3900.52 1786.38,3913.05C1730.46,3932.33 1662.98,3978.61 1624.42,4022.95C1572.36,4083.69 1571.4,4085.62 1559.83,4119.36C1546.33,4157.92 1533.8,4174.31 1516.45,4174.31C1509.7,4174.31 1501.99,4168.52 1500.06,4162.74Z" style="fill:white;fill-rule:nonzero;"/>
        <path id="p1035qKJ50" d="M3480.2,4015.24C3480.2,3995.96 3485.02,3991.14 3503.34,3991.14C3520.69,3991.14 3525.51,3987.28 3522.62,3973.79C3518.76,3963.18 3528.4,3951.61 3549.61,3938.12C3608.42,3902.45 3798.34,3917.87 3798.34,3958.36C3798.34,3974.75 3792.55,3975.72 3711.57,3972.82C3646.98,3969.93 3573.71,3994.03 3547.68,4024.88C3540.94,4032.59 3523.58,4039.34 3508.16,4039.34C3485.02,4039.34 3480.2,4035.49 3480.2,4015.24Z" style="fill:white;fill-rule:nonzero;"/>
        <path id="pt6QyxOQp" d="M3219.91,3965.11C3070.48,3881.24 3064.7,3868.71 3067.59,3666.26C3070.48,3536.11 3072.41,3513.94 3085.91,3511.05C3096.51,3509.12 3110.97,3528.4 3133.15,3573.71C3179.42,3670.11 3184.24,3679.75 3235.34,3774.23C3260.4,3822.43 3291.25,3875.45 3303.78,3893.77C3316.32,3912.09 3325.95,3941.01 3325.95,3958.36C3325.95,3989.21 3324.03,3991.14 3295.11,3990.18C3277.75,3989.21 3244.01,3978.61 3219.91,3965.11Z" style="fill:white;fill-rule:nonzero;"/>
        <path id="p14FeKMOHT" d="M1612.85,3708.68C1557.9,3638.3 1532.83,3607.45 1502.95,3577.57C1489.45,3564.07 1453.78,3519.72 1423.9,3480.2C1367.98,3405 1345.81,3386.68 1296.64,3369.33C1274.47,3362.58 1267.72,3353.91 1267.72,3335.59C1267.72,3312.45 1269.65,3311.49 1315.92,3314.38C1341.95,3316.31 1367.98,3321.13 1373.77,3325.95C1378.59,3329.81 1398.83,3337.52 1417.15,3342.34C1446.07,3350.05 1456.67,3360.66 1489.45,3423.32C1511.62,3461.88 1552.12,3526.47 1580.07,3566C1608.03,3604.56 1633.1,3643.12 1636.95,3652.76C1639.84,3661.44 1652.38,3682.65 1664.91,3700.96C1716,3776.16 1670.69,3781.94 1612.85,3708.68Z" style="fill:white;fill-rule:nonzero;"/>
        <path id="pvAKh3lN8" d="M2539.3,3736.63C2527.73,3690.36 2537.37,3668.18 2571.11,3665.29C2598.1,3662.4 2602.92,3666.26 2608.71,3686.5C2616.42,3717.35 2590.39,3759.77 2564.36,3759.77C2552.79,3759.77 2543.15,3751.09 2539.3,3736.63Z" style="fill:white;fill-rule:nonzero;"/>
        <path id="pAAsdGc0x" d="M2198.02,3526.47C2198.02,3512.97 2205.74,3479.23 2214.41,3450.31C2243.33,3355.84 2244.3,3231.47 2216.34,3155.31C2180.67,3060.84 2110.3,2936.48 2059.2,2877.67C1986.9,2793.8 1976.29,2773.55 1976.29,2720.53C1976.29,2671.36 1987.86,2651.12 2017.75,2651.12C2034.14,2651.12 2035.1,2655.94 2029.32,2697.39C2023.53,2740.78 2025.46,2747.52 2068.84,2810.19C2093.91,2847.78 2126.68,2891.17 2141.15,2906.59C2156.57,2922.98 2169.1,2943.22 2169.1,2951.9C2169.1,2960.58 2172.96,2970.22 2177.78,2973.11C2197.06,2985.64 2247.19,3099.4 2264.54,3168.81C2297.32,3308.6 2267.43,3536.11 2214.41,3545.75C2202.84,3548.64 2198.02,3542.86 2198.02,3526.47Z" style="fill:white;fill-rule:nonzero;"/>
        <path id="pulPzI4DC" d="M2556.65,3487.91C2526.76,3458.02 2551.83,3393.43 2593.28,3393.43C2620.28,3393.43 2622.2,3396.33 2622.2,3428.14C2622.2,3488.87 2588.46,3519.72 2556.65,3487.91Z" style="fill:white;fill-rule:nonzero;"/>
        <path id="paFH8hzgl" d="M2898.88,3380.9C2886.35,3348.12 2880.57,3258.47 2891.17,3258.47C2896.96,3258.47 2901.78,3251.72 2901.78,3244.01C2901.78,3236.29 2908.52,3229.55 2916.24,3229.55C2927.8,3229.55 2930.7,3244.97 2930.7,3311.49C2930.7,3375.12 2927.8,3393.43 2917.2,3393.43C2909.49,3393.43 2901.78,3387.65 2898.88,3380.9Z" style="fill:white;fill-rule:nonzero;"/>
        <path id="pkWOwSZIy" d="M1436.43,3263.29C1436.43,3223.76 1448,3187.13 1479.81,3123.5C1486.56,3110 1495.24,3083.97 1499.09,3065.66C1508.73,3017.46 1552.12,2889.24 1562.72,2875.74C1568.5,2869.96 1574.29,2801.51 1577.18,2723.42C1582,2581.71 1582,2581.71 1553.08,2520.97C1503.91,2419.75 1519.34,2384.08 1578.14,2462.17C1627.31,2526.76 1639.84,2574 1640.81,2704.14C1641.77,2848.75 1613.81,2965.4 1528.98,3165.92C1520.3,3186.16 1513.55,3210.26 1513.55,3218.94C1513.55,3242.08 1467.28,3306.67 1450.89,3306.67C1440.29,3306.67 1436.43,3295.1 1436.43,3263.29Z" style="fill:white;fill-rule:nonzero;"/>
        <path id="p1DkNJ2Izq" d="M2571.11,3243.04C2562.43,3234.37 2562.43,3188.09 2570.14,3167.85C2585.57,3127.36 2636.66,3172.67 2629.92,3220.87C2627.99,3237.26 2620.28,3244.97 2602.92,3246.9C2589.43,3248.83 2574.97,3246.9 2571.11,3243.04Z" style="fill:white;fill-rule:nonzero;"/>
        <path id="pFOSmEkQ4" d="M2901.78,3192.91C2901.78,3170.74 2940.34,3042.52 2973.12,2955.76C2986.61,2919.12 3003.97,2860.32 3011.68,2825.61C3024.21,2764.88 3023.24,2760.06 3002.04,2716.67C2989.5,2691.61 2975.04,2669.44 2969.26,2665.58C2954.8,2656.9 2957.69,2622.2 2974.08,2622.2C3008.78,2622.2 3036.74,2646.3 3059.88,2698.36C3082.05,2747.52 3083.02,2759.09 3075.3,2810.19C3070.48,2842 3056.02,2898.88 3042.53,2937.44C3029.03,2975.04 3015.53,3021.31 3011.68,3040.59C3008.78,3059.87 3002.04,3078.19 2997.22,3080.12C2993.36,3083.01 2976.01,3113.86 2960.58,3147.6C2931.66,3207.37 2901.78,3230.51 2901.78,3192.91Z" style="fill:white;fill-rule:nonzero;"/>
        <path id="p13ytjHnh9" d="M2390.83,3037.7C2390.83,2979.86 2410.11,2971.18 2429.39,3018.42C2443.86,3052.16 2434.22,3078.19 2406.26,3083.01C2393.72,3085.9 2390.83,3077.23 2390.83,3037.7Z" style="fill:white;fill-rule:nonzero;"/>
        <path id="pLq9nU79q" d="M2556.65,2978.89C2545.08,2963.47 2535.44,2947.08 2535.44,2943.22C2535.44,2939.37 2521.94,2920.09 2505.55,2901.77C2489.16,2883.45 2468.92,2857.43 2460.24,2843.93C2451.57,2830.43 2436.14,2814.04 2427.47,2807.29C2390.83,2780.3 2331.06,2677.15 2312.74,2609.67C2283.82,2504.59 2223.09,2354.19 2144.04,2191.27C2081.38,2063.05 2072.7,2038.95 2072.7,1991.71C2072.7,1954.12 2076.55,1937.73 2085.23,1937.73C2103.55,1937.73 2120.9,1957.97 2120.9,1981.11C2121.87,2015.82 2159.46,2086.19 2200.92,2128.61C2234.66,2163.31 2241.41,2176.81 2246.23,2219.23C2250.08,2262.61 2253.94,2270.32 2275.15,2275.14C2291.54,2279 2301.18,2290.57 2307.93,2313.7C2319.49,2353.23 2321.42,2356.12 2390.83,2382.15C2419.75,2392.76 2458.32,2413 2476.63,2426.5C2507.48,2450.6 2508.45,2453.49 2504.59,2503.62C2500.73,2547 2502.66,2554.72 2515.2,2552.79C2522.91,2550.86 2536.4,2537.36 2545.08,2522.9C2558.58,2497.84 2557.61,2493.02 2533.51,2448.67C2494.95,2379.26 2496.88,2368.66 2547.97,2376.37C2575.93,2380.22 2596.17,2390.83 2613.53,2411.07C2627.02,2426.5 2640.52,2439.03 2644.38,2439.03C2647.27,2439.03 2660.76,2428.43 2674.26,2414.93C2687.76,2401.43 2708.97,2390.83 2722.46,2390.83C2751.39,2390.83 2761.99,2428.43 2751.39,2490.12C2747.53,2512.3 2745.6,2547 2746.57,2567.25C2750.42,2635.7 2669.44,2908.52 2640.52,2926.84C2635.7,2929.73 2631.84,2940.33 2631.84,2950.94C2631.84,2969.25 2600.03,3007.82 2585.57,3007.82C2580.75,3007.82 2568.22,2995.28 2556.65,2978.89Z" style="fill:white;fill-rule:nonzero;"/>
        <path id="pGDTN9Ylv" d="M2995.29,2520.97C2999.14,2476.63 2997.22,2458.31 2989.5,2458.31C2983.72,2458.31 2978.9,2451.56 2978.9,2443.85C2978.9,2436.14 2985.65,2429.39 2993.36,2429.39C3001.07,2429.39 3007.82,2433.25 3007.82,2438.07C3007.82,2443.85 3018.43,2459.28 3031.92,2473.74C3071.45,2517.12 3056.99,2583.64 3007.82,2583.64C2990.47,2583.64 2989.5,2577.85 2995.29,2520.97Z" style="fill:white;fill-rule:nonzero;"/>
        <path id="p6Yhq4jni" d="M1974.37,2456.38C1965.69,2449.63 1952.19,2421.68 1942.55,2393.72C1928.09,2346.48 1928.09,2341.66 1942.55,2308.88C1968.58,2254.9 1984.97,2265.5 1983.04,2334.91C1981.11,2394.68 1981.11,2394.68 2016.78,2414.93C2064.02,2439.99 2065.95,2467.95 2021.6,2467.95C2004.25,2467.95 1983.04,2462.17 1974.37,2456.38Z" style="fill:white;fill-rule:nonzero;"/>
        <path id="pKZKWEabB" d="M2598.1,2224.05C2565.33,2191.27 2565.33,2191.27 2562.43,2216.34C2559.54,2239.47 2555.68,2241.4 2520.98,2239.47C2498.81,2238.51 2458.32,2225.01 2427.47,2208.62C2396.62,2192.24 2366.73,2178.74 2359.98,2178.74C2336.85,2177.77 2262.62,2098.72 2255.87,2068.84C2251.05,2045.7 2245.26,2039.92 2229.84,2041.84C2205.74,2044.74 2183.56,2003.28 2172.96,1932.91C2169.1,1906.88 2161.39,1881.81 2155.61,1877.96C2148.86,1873.14 2148.86,1859.64 2156.57,1829.75C2164.28,1800.83 2164.28,1784.44 2157.53,1775.77C2151.75,1769.02 2145.97,1734.31 2145,1698.64C2143.07,1620.56 2135.36,1594.53 2113.19,1588.74C2098.73,1584.89 2096.8,1589.71 2099.69,1621.52C2102.58,1641.77 2098.73,1664.9 2091.98,1672.62C2082.34,1685.15 2082.34,1690.93 2095.84,1705.39C2114.15,1725.64 2108.37,1773.84 2088.12,1773.84C2064.99,1773.84 1976.29,1663.94 1976.29,1635.02C1976.29,1626.34 1968.58,1619.59 1957.01,1619.59C1931.95,1619.59 1931.95,1594.53 1956.05,1587.78C1967.62,1584.89 1979.19,1568.5 1986.9,1542.47C1994.61,1519.33 2007.14,1499.09 2017.75,1495.23C2035.1,1488.48 2035.1,1487.52 2019.68,1472.09C1997.5,1449.92 1986.9,1451.85 1980.15,1479.81C1969.55,1524.15 1948.34,1508.73 1949.3,1456.67C1949.3,1409.43 1950.27,1408.47 2002.32,1374.73C2031.25,1355.44 2059.2,1340.02 2063.06,1340.02C2066.91,1340.02 2075.59,1333.27 2082.34,1325.56C2089.09,1317.85 2105.48,1311.1 2118.01,1311.1C2141.15,1311.1 2142.11,1313.03 2136.32,1354.48C2129.58,1395.93 2130.54,1397.86 2153.68,1397.86C2179.71,1397.86 2182.6,1407.5 2170.07,1440.28C2165.25,1452.81 2168.14,1464.38 2180.67,1476.91C2192.24,1488.48 2198.02,1508.73 2198.02,1540.54C2198.02,1565.61 2202.84,1591.64 2208.63,1597.42C2214.41,1603.2 2220.2,1636.95 2221.16,1671.65C2222.12,1730.46 2223.09,1734.31 2241.41,1729.49C2269.36,1719.85 2274.18,1708.29 2270.33,1654.3C2267.43,1612.85 2263.58,1604.17 2247.19,1602.24C2217.3,1597.42 2210.56,1575.25 2212.49,1484.63C2213.45,1439.32 2210.56,1394.97 2205.74,1386.29C2200.92,1375.69 2201.88,1351.59 2208.63,1324.6C2217.3,1291.82 2225.98,1278.32 2245.26,1270.61C2306,1246.51 2384.09,1234.94 2482.42,1233.98C2617.38,1233.98 2837.18,1253.26 2845.86,1266.75C2849.72,1272.54 2853.57,1287.96 2853.57,1301.46C2853.57,1328.45 2813.08,1359.3 2777.41,1359.3C2765.85,1359.3 2757.17,1364.12 2757.17,1368.94C2757.17,1374.73 2751.39,1378.58 2743.67,1378.58C2735.96,1378.58 2721.5,1389.19 2710.89,1402.68C2689.69,1429.68 2690.65,1475.95 2715.72,1576.21C2723.43,1608.02 2732.1,1650.44 2735,1669.72C2739.82,1702.5 2737.89,1706.36 2712.82,1712.14C2693.54,1716.96 2675.23,1713.11 2650.16,1698.64C2629.92,1687.08 2606.78,1680.33 2598.1,1684.18C2588.46,1687.08 2577.86,1684.18 2573.04,1676.47C2567.25,1666.83 2564.36,1666.83 2564.36,1675.51C2564.36,1681.29 2559.54,1687.08 2553.76,1687.08C2542.19,1687.08 2419.75,1812.4 2394.69,1849.04C2386.98,1861.57 2381.19,1884.7 2383.12,1902.06C2386.01,1932.91 2386.01,1932.91 2409.15,1894.35C2422.65,1873.14 2436.14,1853.86 2439.03,1850.96C2442.89,1848.07 2449.64,1833.61 2455.42,1817.22C2460.24,1801.8 2478.56,1779.62 2494.95,1769.02C2511.34,1758.41 2527.73,1742.03 2530.62,1733.35C2539.3,1708.29 2572.07,1703.47 2609.67,1720.82C2635.7,1733.35 2657.87,1736.24 2699.33,1731.42C2755.24,1724.67 2755.24,1724.67 2789.95,1765.16C2809.23,1788.3 2824.65,1813.37 2824.65,1823.01C2824.65,1850 2835.26,1870.24 2849.72,1870.24C2860.32,1870.24 2863.21,1887.6 2863.21,1947.37C2863.21,2042.81 2848.75,2114.15 2817.9,2167.17C2791.88,2211.52 2782.24,2215.37 2756.2,2192.24C2740.78,2178.74 2738.85,2179.7 2722.46,2206.7C2707.04,2232.72 2667.51,2255.86 2639.56,2255.86C2633.77,2255.86 2615.45,2241.4 2598.1,2224.05ZM2523.87,1924.23C2557.61,1895.31 2642.45,1860.6 2678.12,1860.6C2693.54,1860.6 2719.57,1873.14 2740.78,1890.49C2778.38,1921.34 2786.09,1914.59 2761.03,1871.21C2739.82,1835.54 2682.94,1820.11 2646.3,1838.43C2631.84,1846.14 2614.49,1850 2606.78,1847.11C2584.61,1838.43 2532.55,1864.46 2503.63,1898.2C2461.21,1949.3 2473.74,1965.68 2523.87,1924.23ZM2313.71,1846.14C2320.46,1838.43 2331.06,1831.68 2337.81,1831.68C2344.56,1831.68 2352.27,1821.08 2354.2,1808.55C2359.02,1786.37 2356.13,1785.41 2332.99,1790.23C2311.78,1794.09 2305.03,1791.19 2300.21,1775.77C2296.36,1765.16 2288.64,1751.67 2281.9,1746.85C2273.22,1739.13 2270.33,1751.67 2269.36,1798.9C2267.43,1851.93 2270.33,1860.6 2284.79,1860.6C2294.43,1860.6 2306.96,1853.86 2313.71,1846.14ZM2072.7,1571.39C2088.12,1571.39 2089.09,1568.5 2079.45,1547.29C2069.81,1528.01 2065.95,1526.08 2055.35,1536.68C2048.6,1543.43 2040.88,1565.61 2038.96,1586.82C2034.14,1621.52 2035.1,1622.49 2044.74,1598.38C2050.53,1582.96 2062.09,1571.39 2072.7,1571.39ZM2510.37,1527.05C2519.05,1524.15 2525.8,1515.48 2525.8,1508.73C2525.8,1492.34 2503.63,1484.63 2455.42,1484.63C2409.15,1484.63 2371.55,1493.3 2371.55,1502.94C2371.55,1506.8 2391.8,1514.51 2417.83,1520.3C2476.63,1532.83 2492.06,1533.79 2510.37,1527.05ZM2395.65,1410.4C2414.93,1399.79 2450.6,1394.01 2501.7,1392.08C2544.12,1391.12 2582.68,1389.19 2588.46,1389.19C2605.82,1387.26 2559.54,1362.19 2526.76,1354.48C2483.38,1344.84 2417.83,1365.09 2380.23,1398.83C2345.52,1429.68 2352.27,1434.5 2395.65,1410.4Z" style="fill:white;fill-rule:nonzero;"/>
        <path id="pIpQNGo3U" d="M2794.77,1728.53C2769.7,1699.61 2722.46,1549.22 2733.07,1532.83C2735.96,1527.05 2751.39,1523.19 2766.81,1523.19C2782.24,1523.19 2797.66,1519.33 2800.55,1513.55C2803.44,1508.73 2814.05,1503.91 2822.72,1503.91C2840.08,1503.91 2855.5,1554.04 2868.03,1648.51C2877.68,1721.78 2831.4,1771.91 2794.77,1728.53Z" style="fill:white;fill-rule:nonzero;"/>
        <path id="pEtfwrHGW" d="M2750.42,1477.88C2723.43,1474.02 2718.61,1470.17 2718.61,1447.03C2718.61,1414.25 2749.46,1394.97 2796.7,1399.79C2827.55,1402.68 2829.47,1404.61 2829.47,1441.25C2829.47,1483.66 2820.8,1487.52 2750.42,1477.88Z" style="fill:white;fill-rule:nonzero;"/>
        <path id="p10ERdDYMa" d="M2699.33,1123.11C2699.33,1109.61 2656.91,1103.83 2574,1105.76C2560.51,1105.76 2493.99,1099.97 2424.57,1092.26C2342.63,1082.62 2265.51,1079.73 2200.92,1084.55C2113.19,1090.33 2101.62,1088.4 2101.62,1074.91C2101.62,1056.59 2099.69,1057.56 2217.3,1036.35C2374.44,1007.43 2698.36,1019.96 2755.24,1056.59C2782.24,1074.91 2779.34,1102.87 2749.46,1106.72C2737.89,1108.65 2728.25,1116.36 2728.25,1124.08C2728.25,1131.79 2721.5,1137.57 2713.79,1137.57C2706.08,1137.57 2699.33,1130.82 2699.33,1123.11Z" style="fill:white;fill-rule:nonzero;"/>
    </g>
    <g transform="matrix(1,0,0,1,-620.452,-421.391)">
        <path id="pc2WoARac" d="M2430.36,6890.98C2311.78,6881.34 2177.78,6836.03 2129.58,6790.72C2113.19,6775.3 2086.2,6763.73 2050.53,6757.94C1952.19,6742.52 1919.42,6712.63 1918.45,6638.4C1918.45,6594.06 1917.49,6592.13 1897.24,6598.88C1863.5,6609.48 1552.12,6612.37 1417.15,6602.73C1202.17,6588.27 1163.61,6583.45 1129.86,6568.99C1111.55,6561.28 1094.19,6557.42 1092.27,6559.35C1084.55,6567.06 1018.03,6540.07 967.905,6509.22C941.876,6492.83 901.386,6456.2 879.213,6428.24C857.04,6400.28 834.867,6372.33 831.011,6367.51C757.743,6277.85 679.656,6069.62 645.914,5875.85C629.526,5780.4 616.029,5557.71 621.813,5495.05C661.339,5108.47 732.678,4888.66 879.213,4706.46C903.314,4677.54 953.444,4634.16 997.79,4605.23C1074.91,4555.11 1074.91,4555.11 1080.7,4484.73C1084.55,4443.28 1095.16,4402.79 1106.73,4383.51C1116.37,4365.19 1130.83,4334.34 1137.58,4313.13C1151.07,4268.78 1173.25,4213.83 1185.78,4193.59C1190.6,4185.88 1202.17,4164.67 1210.84,4148.28C1219.52,4130.93 1230.12,4116.47 1234.94,4116.47C1257.12,4116.47 1238.8,4078.87 1187.71,4016.2C1156.86,3978.61 1097.09,3897.63 1055.63,3836.89C1014.18,3776.16 972.725,3717.35 964.049,3706.75C954.408,3696.14 934.163,3663.37 917.775,3633.48C901.386,3602.63 881.141,3566.96 871.5,3553.46C846.435,3513.94 852.22,3394.4 883.069,3326.91C895.602,3298.96 906.206,3267.14 906.206,3255.58C906.206,3244.97 914.882,3222.8 924.523,3206.41C935.127,3190.02 957.3,3141.82 973.689,3099.4C990.078,3056.98 1010.32,3006.85 1019,2988.53C1027.68,2970.22 1037.32,2942.26 1042.14,2925.87C1045.99,2910.45 1062.38,2858.39 1078.77,2811.15C1095.16,2763.91 1108.65,2717.64 1108.65,2708C1108.65,2691.61 1159.75,2589.42 1177.1,2569.18C1181.92,2564.36 1185.78,2551.82 1185.78,2542.18C1185.78,2498.8 1297.61,2279.96 1336.17,2249.11C1438.36,2165.24 1464.39,2150.78 1629.24,2088.12C1680.33,2068.84 1744.92,2037.99 1773.85,2019.67C1802.77,2001.35 1845.18,1977.25 1868.32,1966.65C1895.32,1953.15 1913.63,1935.8 1922.31,1915.55C1929.06,1898.2 1949.3,1868.32 1965.69,1847.11C1982.08,1826.86 1995.58,1806.62 1995.58,1802.76C1995.58,1793.12 1961.83,1764.2 1950.27,1764.2C1938.7,1764.2 1899.17,1677.44 1899.17,1651.41C1899.17,1641.77 1892.42,1614.77 1883.75,1590.67C1874.11,1562.71 1871.21,1533.79 1875.07,1502.94C1880.85,1458.6 1880.85,1458.6 1839.4,1442.21C1787.34,1421 1767.1,1402.68 1743,1355.44C1721.79,1313.99 1724.68,1256.15 1749.74,1217.59C1769.03,1189.63 1891.46,1118.29 1933.88,1111.54C1952.19,1108.65 1970.51,1100.94 1974.37,1095.15C1988.83,1072.02 1974.37,842.574 1951.23,730.745C1938.7,669.046 1928.09,606.383 1928.09,590.959C1929.06,541.792 1971.47,509.015 2077.52,475.273C2172.96,445.388 2195.13,439.604 2289.61,426.107C2388.91,411.647 2729.21,432.855 2774.52,456.957C2825.62,482.986 2827.55,491.662 2820.8,610.239C2804.41,869.567 2818.87,1071.05 2855.5,1090.33C2865.14,1095.15 2908.52,1104.79 2951.91,1110.58C2996.25,1116.36 3043.49,1126.97 3057.95,1134.68C3153.39,1181.92 3106.15,1291.82 2969.26,1342.91C2906.6,1367.01 2906.6,1367.01 2899.85,1456.67C2896.96,1506.8 2895.03,1549.22 2896.96,1552.11C2908.52,1570.43 2911.42,1696.72 2901.78,1752.63C2892.14,1810.47 2893.1,1823.97 2907.56,1856.75C2919.13,1883.74 2923.95,1924.23 2924.91,1999.43C2926.84,2118 2922.99,2112.22 3024.21,2161.39C3056.99,2177.77 3089.76,2196.09 3095.55,2203.8C3101.33,2211.52 3111.94,2217.3 3117.72,2217.3C3123.51,2217.3 3153.39,2240.44 3183.28,2269.36C3257.51,2340.7 3322.1,2468.91 3331.74,2564.36C3334.63,2588.46 3340.42,2618.34 3345.24,2631.84C3350.06,2645.34 3355.84,2672.33 3359.7,2692.57C3362.59,2711.85 3378.01,2760.06 3394.4,2798.62C3409.83,2836.22 3429.11,2900.81 3437.78,2940.33C3452.24,3012.64 3472.49,3062.77 3510.09,3121.57C3521.66,3138.93 3540.94,3190.02 3553.47,3235.33C3566,3281.6 3583.36,3329.81 3592.99,3343.3C3630.59,3395.36 3646.02,3427.17 3669.16,3498.51C3703.86,3604.56 3746.28,3697.11 3775.2,3730.85C3781.95,3738.56 3796.41,3769.41 3807.98,3798.33C3828.22,3850.39 3854.25,3905.34 3881.24,3952.58C3890.89,3968 3893.78,3992.1 3890.89,4020.06C3887.03,4063.44 3887.03,4063.44 3968.01,4142.49C4051.88,4223.47 4096.23,4295.78 4110.69,4376.76C4119.36,4426.89 4117.44,4615.84 4105.87,4834.68C4100.08,4940.72 4094.3,5055.44 4092.37,5090.15C4090.44,5124.86 4078.87,5272.35 4066.34,5417.92C4050.92,5603.02 4044.17,5756.3 4044.17,5925.01C4043.2,6108.18 4040.31,6170.84 4031.64,6182.41C4018.14,6198.8 3935.23,6220.01 3920.77,6211.33C3892.81,6193.98 3955.47,6278.82 4013.32,6337.62C4081.76,6406.07 4083.69,6407.03 4164.67,6424.39C4209.98,6433.06 4260.11,6445.59 4277.47,6450.41C4358.45,6475.48 4416.29,6601.77 4368.09,6646.11C4329.52,6681.78 4244.69,6698.17 4097.19,6698.17C3944.87,6699.14 3895.7,6690.46 3793.52,6642.26C3716.39,6606.59 3687.47,6600.81 3673.01,6617.19C3657.59,6636.48 3606.49,6647.08 3592.99,6633.58C3587.21,6627.8 3560.22,6622.98 3533.22,6622.01C3464.78,6621.05 3412.72,6602.73 3389.58,6571.88C3374.16,6550.68 3370.3,6531.39 3370.3,6479.34C3371.26,6412.82 3371.26,6412.82 3332.7,6436.92C3298.96,6458.13 3152.43,6495.73 3036.74,6513.08C3018.43,6515.01 2948.05,6526.57 2881.53,6537.18C2772.59,6553.57 2697.4,6560.32 2581.71,6564.17C2551.83,6565.14 2545.08,6568.99 2545.08,6584.42C2545.08,6595.02 2550.86,6603.7 2558.58,6603.7C2566.29,6603.7 2596.17,6622.98 2625.1,6647.08C2712.82,6718.42 2734.03,6819.64 2670.41,6864.95C2638.59,6888.09 2530.62,6899.66 2430.36,6890.98ZM1924.24,6483.19C1933.88,6459.09 1898.21,6425.35 1860.61,6423.42C1761.31,6419.57 1624.42,6408.96 1616.71,6404.14C1608.03,6398.36 1552.12,6454.27 1552.12,6468.73C1552.12,6473.55 1559.83,6476.44 1569.47,6476.44C1601.28,6475.48 1807.59,6489.94 1811.44,6493.8C1813.37,6495.73 1838.44,6497.65 1867.36,6497.65C1903.99,6497.65 1920.38,6493.8 1924.24,6483.19ZM1166.5,6408.96C1166.5,6402.21 1152.04,6386.79 1134.68,6374.26C1075.88,6332.8 1035.39,6290.38 1014.18,6245.07C1002.61,6220.01 992.97,6194.94 992.97,6190.12C992.97,6184.34 987.186,6176.63 980.437,6172.77C973.689,6168.91 957.3,6139.03 945.732,6107.22C933.199,6075.4 918.739,6038.77 913.918,6025.27C908.134,6011.78 900.422,5992.49 895.602,5981.89C891.745,5971.28 884.033,5932.72 878.249,5895.13C872.465,5858.49 865.716,5812.22 862.824,5793.9C839.687,5656.04 836.795,5345.62 857.04,5254.04C862.824,5229.94 874.393,5177.88 883.069,5138.35C926.451,4932.05 1028.64,4795.15 1150.11,4776.84C1187.71,4771.05 1193.49,4767.19 1184.82,4756.59C1171.32,4741.17 1141.43,4739.24 1132.76,4752.73C1127.94,4759.48 1122.15,4760.45 1114.44,4753.7C1107.69,4747.91 1098.05,4747.91 1089.37,4752.73C1081.66,4758.52 1065.27,4762.38 1052.74,4762.38C1031.53,4762.38 1009.36,4780.69 971.761,4827.93C962.121,4839.5 957.3,4849.14 960.192,4849.14C963.085,4849.14 951.516,4869.38 933.199,4895.41C914.882,4920.48 894.638,4956.15 886.925,4974.46C880.177,4992.78 870.536,5013.03 866.68,5017.85C854.148,5034.23 800.161,5271.39 789.557,5352.37C780.88,5425.64 783.773,5775.58 793.413,5791.97C796.305,5795.83 801.125,5825.71 804.017,5856.56C809.802,5919.23 836.795,6029.13 865.716,6109.14C918.739,6257.61 1015.14,6374.26 1113.48,6408.96C1153,6422.46 1166.5,6422.46 1166.5,6408.96ZM1540.55,6282.67C1620.56,6123.6 1660.09,6005.03 1672.62,5890.31C1674.55,5871.99 1681.3,5808.36 1688.05,5748.59C1697.69,5663.76 1697.69,5601.09 1689.01,5462.27C1683.23,5363.94 1673.59,5275.25 1668.76,5266.57C1663.94,5256.93 1652.38,5213.55 1643.7,5170.16C1623.45,5064.12 1567.54,4944.58 1511.62,4883.84C1501.99,4873.24 1492.34,4856.85 1488.49,4847.21C1481.74,4825.04 1473.06,4825.04 1457.64,4849.14C1447.03,4866.49 1448,4873.24 1463.42,4895.41C1497.16,4945.54 1537.65,5056.41 1558.86,5157.63C1581.04,5266.57 1594.53,5333.09 1601.28,5371.65C1610.92,5430.46 1612.85,5634.83 1605.14,5764.98C1598.39,5872.95 1550.19,6119.75 1528.01,6160.24C1520.3,6173.73 1501.99,6210.37 1485.6,6242.18C1470.17,6273.99 1441.25,6327.02 1421.97,6360.76C1388.23,6420.53 1388.23,6420.53 1445.11,6391.61C1498.13,6363.65 1503.91,6356.9 1540.55,6282.67ZM2825.62,6409.93C2891.17,6409.93 2958.66,6406.07 2974.08,6401.25C2990.47,6396.43 3014.57,6390.64 3029.03,6388.72C3045.42,6386.79 3067.59,6371.36 3087.84,6348.23C3116.76,6314.48 3137.97,6275.92 3129.29,6275.92C3127.36,6275.92 3102.3,6280.74 3074.34,6286.53C3013.61,6299.06 2698.36,6298.1 2686.79,6286.53C2676.19,6275.92 2802.48,6264.35 3065.66,6251.82C3176.53,6246.04 3182.31,6243.15 3218.95,6177.59C3239.19,6140.96 3239.19,6140.96 3202.56,6141.92C3183.28,6141.92 3104.22,6147.7 3027.1,6155.42C2941.3,6163.13 2816.94,6166.99 2707.04,6164.09C2541.22,6160.24 2526.76,6161.2 2521.94,6176.63C2516.16,6195.91 2522.91,6321.23 2530.62,6333.77C2533.51,6337.62 2511.34,6349.19 2482.42,6358.83C2442.89,6370.4 2429.39,6379.07 2431.32,6390.64C2434.22,6403.18 2454.46,6407.03 2554.72,6410.89C2621.24,6413.78 2681.97,6414.74 2690.65,6413.78C2699.33,6411.85 2760.06,6409.93 2825.62,6409.93ZM1926.16,6370.4C1932.91,6363.65 1937.73,6343.41 1937.73,6325.09C1937.73,6290.38 1937.73,6290.38 1854.83,6287.49C1771.92,6284.6 1725.64,6273.99 1725.64,6258.57C1725.64,6254.71 1774.81,6250.86 1834.58,6250.86C1942.55,6251.82 1942.55,6251.82 1939.66,6190.12C1938.7,6156.38 1934.84,6125.53 1931.95,6122.64C1929.06,6119.75 1887.6,6114.93 1840.36,6113C1743.96,6110.11 1730.46,6115.89 1720.82,6163.13C1716.97,6180.48 1699.61,6220.97 1681.3,6254.71C1662.98,6287.49 1648.52,6326.05 1648.52,6338.59C1648.52,6358.83 1653.34,6361.72 1685.15,6361.72C1704.43,6362.69 1757.46,6366.54 1802.77,6371.36C1848.08,6375.22 1891.46,6380.04 1900.13,6381C1907.85,6381 1919.42,6377.15 1926.16,6370.4ZM3342.34,6297.13C3348.13,6293.28 3354.88,6275.92 3357.77,6258.57C3361.62,6233.51 3359.7,6227.72 3349.09,6231.58C3331.74,6238.32 3331.74,6234.47 3354.88,6189.16C3365.48,6167.95 3374.16,6141.92 3374.16,6129.39C3374.16,6100.47 3359.7,6117.82 3345.24,6165.06C3332.7,6203.62 3316.32,6228.69 3266.18,6287.49C3250.76,6304.84 3239.19,6323.16 3239.19,6327.98C3239.19,6332.8 3231.48,6345.33 3222.8,6355.94C3208.34,6372.33 3272.93,6340.51 3342.34,6297.13ZM1292.79,6293.28C1328.46,6264.35 1385.34,6183.38 1380.52,6166.99C1379.55,6163.13 1386.3,6143.85 1396.9,6123.6C1406.55,6104.32 1420.04,6061.9 1425.83,6030.09C1432.57,5998.28 1444.14,5942.36 1451.86,5904.77C1459.57,5868.13 1466.32,5819.93 1465.35,5798.72C1465.35,5777.51 1465.35,5666.65 1464.39,5552.89C1464.39,5439.13 1462.46,5335.02 1460.53,5321.52C1443.18,5218.37 1431.61,5173.06 1405.58,5092.08C1389.19,5040.02 1371.84,4996.64 1367.98,4993.74C1363.16,4990.85 1350.63,4966.75 1339.06,4940.72C1327.49,4913.73 1312.07,4885.77 1305.32,4878.06C1297.61,4870.35 1281.22,4851.07 1267.72,4835.64C1246.51,4811.54 1239.77,4808.65 1205.06,4814.43C1160.71,4821.18 1099.02,4849.14 1099.02,4861.67C1099.02,4866.49 1079.73,4891.56 1056.6,4918.55C1006.47,4973.5 975.617,5047.73 963.085,5143.17C958.264,5179.81 949.588,5234.76 943.804,5263.68C925.487,5361.05 918.739,5441.06 921.631,5538.43C923.559,5591.45 924.523,5665.68 924.523,5702.32C924.523,5739.91 933.199,5804.51 943.804,5846.92C977.545,5982.85 1001.65,6065.76 1013.22,6079.26C1019,6086.01 1030.57,6111.07 1039.24,6135.17C1055.63,6177.59 1099.98,6239.29 1150.11,6287.49C1173.25,6310.63 1191.56,6316.41 1241.69,6323.16C1248.44,6323.16 1271.58,6310.63 1292.79,6293.28ZM3022.28,6068.65C3119.65,6066.73 3260.4,6050.34 3277.75,6039.73C3284.5,6035.88 3288.36,6020.45 3302.82,5948.15C3304.75,5940.44 3310.53,5912.48 3316.32,5885.48C3327.88,5834.39 3329.81,5818 3341.38,5712.92C3348.13,5647.37 3348.13,5647.37 2946.12,5652.19C2724.39,5654.11 2540.26,5659.9 2535.44,5664.72C2530.62,5669.54 2525.8,5763.05 2524.84,5871.02C2522.91,6068.65 2522.91,6068.65 2546.04,6074.44C2558.58,6078.29 2647.27,6079.26 2742.71,6076.37C2838.15,6073.47 2964.44,6070.58 3022.28,6068.65ZM1927.13,5856.56C1927.13,5759.19 1925.2,5672.43 1922.31,5663.76C1917.49,5653.15 1902.06,5649.29 1865.43,5649.29C1836.51,5649.29 1811.44,5653.15 1808.55,5657.97C1804.69,5662.79 1800.84,5703.28 1797.95,5747.63C1792.16,5836.32 1787.34,5875.85 1773.85,5962.61C1768.06,5994.42 1764.2,6023.34 1764.2,6028.16C1764.2,6032.02 1800.84,6034.91 1845.18,6034.91C1927.13,6034.91 1927.13,6034.91 1927.13,5856.56ZM1911.7,5477.69C1907.85,5314.77 1903.03,5262.71 1888.57,5253.07C1871.21,5241.5 1801.8,5242.47 1783.49,5254.04C1768.06,5263.68 1769.03,5333.09 1785.41,5363.94C1791.2,5374.54 1796.98,5426.6 1798.91,5479.62C1799.87,5533.61 1801.8,5580.85 1801.8,5584.7C1802.77,5588.56 1827.83,5591.45 1858.68,5589.52C1913.63,5586.63 1913.63,5586.63 1911.7,5477.69ZM2789.95,5568.32C2829.47,5555.78 2836.22,5555.78 2841.04,5568.32C2843.93,5576.99 2852.61,5580.85 2862.25,5576.99C2870.93,5573.14 2980.83,5571.21 3106.15,5571.21C3254.62,5572.17 3336.56,5569.28 3340.42,5562.53C3359.7,5531.68 3328.85,5200.05 3304.75,5170.16C3298,5161.49 3210.27,5158.6 2956.73,5157.63C2769.7,5157.63 2603.89,5160.52 2587.5,5163.42C2553.76,5169.2 2559.54,5134.49 2539.3,5473.84C2532.55,5581.81 2532.55,5581.81 2638.59,5581.81C2702.22,5581.81 2762.95,5576.03 2789.95,5568.32ZM1897.24,5136.42C1895.32,5108.47 1889.53,5077.62 1885.67,5068.94C1879.89,5057.37 1881.82,5051.59 1890.49,5051.59C1900.13,5051.59 1904.95,5037.13 1905.92,5006.28C1905.92,4980.25 1909.78,4943.61 1913.63,4924.33C1920.38,4890.59 1919.42,4887.7 1897.24,4887.7C1884.71,4887.7 1850.97,4894.45 1822.05,4903.12C1792.16,4911.8 1747.82,4916.62 1715.04,4914.69C1649.48,4910.84 1649.48,4910.84 1696.72,5003.39C1723.72,5057.37 1732.39,5081.47 1741.07,5133.53C1749.74,5186.55 1749.74,5186.55 1827.83,5186.55C1901.1,5186.55 1901.1,5186.55 1897.24,5136.42ZM2996.25,5085.33C3156.28,5085.33 3287.39,5083.4 3287.39,5081.47C3287.39,5078.58 3279.68,5059.3 3270.04,5038.09C3260.4,5015.92 3245.94,4981.21 3239.19,4960C3232.44,4938.79 3212.2,4898.31 3194.85,4871.31C3162.07,4820.22 3162.07,4820.22 3107.12,4819.25C2916.24,4813.47 2632.81,4814.43 2612.56,4820.22C2583.64,4827.93 2578.82,4851.07 2571.11,4996.64C2565.33,5099.79 2565.33,5099.79 2634.74,5093.04C2673.3,5088.22 2835.26,5085.33 2996.25,5085.33ZM3458.99,5023.63C3461.89,4956.15 3460.92,4953.26 3428.14,4920.48C3400.19,4892.52 3364.52,4877.1 3364.52,4892.52C3364.52,4896.38 3385.73,4947.47 3406.93,4991.82C3411.76,5004.35 3415.61,5025.56 3414.65,5039.06C3412.72,5068.94 3429.11,5102.68 3444.53,5096.9C3451.28,5094.97 3457.07,5067.01 3458.99,5023.63ZM1831.69,4848.17C1831.69,4842.39 1823.98,4839.5 1812.41,4842.39C1801.8,4845.28 1771.92,4839.5 1744.92,4828.89C1717.93,4819.25 1684.19,4810.58 1669.73,4810.58C1651.41,4810.58 1647.56,4807.69 1657.2,4801.9C1667.8,4795.15 1665.87,4791.3 1649.48,4782.62C1627.31,4770.09 1606.1,4776.84 1614.78,4792.26C1618.63,4797.08 1615.74,4800.94 1609.96,4800.94C1603.21,4800.94 1600.32,4794.19 1604.17,4786.48C1608.03,4775.87 1603.21,4772.02 1585.86,4772.02C1572.36,4772.02 1561.76,4773.94 1561.76,4776.84C1561.76,4783.58 1602.25,4842.39 1611.89,4849.14C1614.78,4852.03 1665.87,4855.89 1724.68,4856.85C1800.84,4858.78 1831.69,4856.85 1831.69,4848.17ZM2838.15,4735.38C2942.27,4737.31 3027.1,4735.38 3027.1,4731.53C3027.1,4725.74 2895.03,4678.5 2853.57,4670.79C2842.01,4668.86 2816.94,4662.11 2798.62,4655.37C2780.31,4649.58 2754.28,4642.83 2739.82,4639.94C2697.4,4633.19 2553.76,4630.3 2565.33,4638.01C2571.11,4640.9 2577.86,4663.08 2580.75,4686.22C2587.5,4752.73 2588.46,4753.7 2621.24,4742.13C2638.59,4736.35 2724.39,4733.45 2838.15,4735.38ZM3923.66,4527.15C3923.66,4464.48 3897.63,4352.66 3877.39,4324.7C3872.57,4318.91 3869.68,4307.35 3870.64,4299.63C3871.6,4291.92 3873.53,4277.46 3873.53,4268.78C3877.39,4224.44 3915.95,4283.24 3932.34,4357.48C3938.12,4381.58 3948.73,4431.71 3957.4,4468.34C3965.12,4505.94 3971.86,4554.14 3971.86,4577.28C3971.86,4605.23 3975.72,4617.77 3985.36,4617.77C4002.71,4617.77 4007.53,4575.35 4000.79,4468.34C3995.97,4401.82 3988.25,4369.05 3968.97,4327.59C3940.05,4266.86 3937.16,4251.43 3955.47,4251.43C3971.86,4251.43 4020.07,4344.94 4020.07,4374.83C4020.07,4386.4 4023.92,4396.04 4027.78,4396.04C4036.45,4396.04 4040.31,4419.18 4042.24,4484.73C4044.17,4538.72 4054.77,4535.82 4063.45,4478.95C4072.12,4424.96 4052.84,4361.33 4002.71,4276.5C3975.72,4230.22 3942.94,4195.52 3861,4127.07C3818.58,4092.36 3777.13,4055.73 3767.49,4047.05C3757.85,4037.41 3738.57,4029.7 3724.11,4029.7C3684.58,4030.67 3610.35,4051.88 3592.03,4067.3C3569.86,4085.62 3546.72,4131.89 3552.51,4147.32C3554.43,4154.06 3558.29,4184.91 3561.18,4215.76C3566,4271.68 3596.85,4340.12 3629.63,4367.12C3638.31,4373.86 3655.66,4402.79 3669.16,4431.71C3690.36,4476.05 3697.11,4482.8 3722.18,4482.8C3746.28,4482.8 3750.13,4478.95 3750.13,4456.77C3750.13,4441.35 3743.39,4421.1 3735.67,4411.46C3727.96,4400.86 3721.21,4385.43 3721.21,4376.76C3721.21,4369.05 3712.54,4345.91 3701.93,4325.66C3662.41,4252.4 3701.93,4230.22 3756.88,4294.81C3816.65,4367.12 3843.65,4424.96 3851.36,4499.19C3859.07,4584.03 3865.82,4607.16 3883.17,4617.77C3910.16,4632.23 3923.66,4602.34 3923.66,4527.15ZM2126.68,4449.06C2111.26,4437.49 2110.3,4434.6 2122.83,4434.6C2145,4434.6 2149.82,4412.43 2138.25,4370.97C2126.68,4328.56 2084.27,4261.07 2068.84,4261.07C2056.31,4261.07 2011,4194.55 2018.71,4186.84C2027.39,4177.2 2091.01,4231.19 2130.54,4281.32C2151.75,4308.31 2172.96,4347.84 2178.74,4370.01C2194.17,4428.82 2206.7,4455.81 2216.34,4449.06C2225.98,4443.28 2222.12,4390.25 2206.7,4318.91C2196.1,4272.64 2166.21,4222.51 2113.19,4161.77C2079.45,4123.21 2077.52,4104.9 2108.37,4127.07C2140.18,4151.17 2214.41,4236.01 2235.62,4273.61C2247.19,4293.85 2258.76,4328.56 2261.65,4350.73C2263.58,4371.94 2268.4,4392.18 2271.29,4395.07C2281.9,4405.68 2294.43,4370.97 2289.61,4347.84C2285.75,4334.34 2279.97,4297.71 2274.18,4265.89C2260.69,4180.09 2258.76,4176.24 2194.17,4112.61C2141.15,4059.59 2126.68,4050.91 2063.06,4032.59C2023.53,4021.03 1978.22,4010.42 1961.83,4008.49C1946.41,4007.53 1924.24,4000.78 1913.63,3994.03C1866.39,3963.18 1752.64,3992.1 1701.54,4047.05C1677.44,4072.12 1647.56,4150.21 1652.38,4176.24C1661.05,4226.37 1697.69,4255.29 1804.69,4298.67C1839.4,4312.17 1881.82,4342.05 1924.24,4381.58C1977.26,4431.71 1993.65,4441.35 2007.14,4433.64C2041.85,4415.32 2018.71,4343.02 1961.83,4290.96C1920.38,4253.36 1913.63,4232.15 1940.62,4232.15C1959.91,4232.15 2022.57,4288.07 2030.28,4312.17C2034.14,4323.73 2044.74,4339.16 2054.38,4345.91C2064.02,4352.66 2077.52,4376.76 2083.3,4398.93C2094.87,4438.46 2115.12,4463.52 2134.4,4463.52C2140.18,4463.52 2136.32,4456.77 2126.68,4449.06ZM1547.3,4117.43C1562.72,4046.09 1679.37,3937.15 1775.77,3903.41C1801.8,3894.74 1809.52,3887.99 1801.8,3879.31C1791.2,3865.81 1727.57,3869.67 1713.11,3884.13C1707.33,3889.91 1695.76,3894.74 1688.05,3894.74C1662.02,3894.74 1529.94,4033.56 1509.7,4081.76C1501.02,4102.01 1501.99,4143.46 1510.66,4157.92C1518.37,4170.45 1540.55,4145.39 1547.3,4117.43ZM3538.05,4015.24C3563.11,3984.39 3637.34,3961.25 3701.93,3962.22C3792.55,3964.15 3796.41,3963.18 3764.6,3944.87C3722.18,3921.73 3601.67,3922.69 3561.18,3946.79C3539.97,3959.33 3532.26,3969.93 3535.15,3982.46C3539.97,3999.82 3530.33,4005.6 3502.38,4001.74C3495.63,4000.78 3489.84,4006.56 3489.84,4015.24C3489.84,4033.56 3522.62,4034.52 3538.05,4015.24ZM3316.32,3958.36C3316.32,3945.83 3306.67,3921.73 3294.14,3903.41C3281.61,3885.1 3250.76,3832.07 3225.7,3783.87C3174.6,3689.39 3169.78,3679.75 3123.51,3584.31C3106.15,3548.64 3088.8,3521.65 3083.98,3524.54C3079.16,3527.43 3075.3,3592.03 3075.3,3669.15C3075.3,3858.1 3083.02,3872.56 3229.55,3955.47C3287.39,3987.28 3316.32,3989.21 3316.32,3958.36ZM1661.05,3720.24C1651.41,3703.86 1637.91,3678.79 1630.2,3665.29C1622.49,3650.83 1594.53,3609.38 1567.54,3571.78C1541.51,3535.15 1501.99,3471.52 1479.81,3431.99C1454.75,3385.72 1434.5,3358.73 1421.97,3356.8C1411.37,3354.87 1388.23,3346.2 1370.88,3338.48C1353.52,3329.81 1337.13,3325.95 1333.28,3328.84C1330.38,3332.7 1318.82,3330.77 1309.18,3324.99C1295.68,3317.27 1287,3317.27 1279.29,3324.99C1265.79,3338.48 1280.26,3353.91 1309.18,3359.69C1342.92,3365.48 1383.41,3402.11 1442.21,3480.2C1472.1,3519.72 1505.84,3562.14 1517.41,3572.74C1541.51,3597.81 1568.5,3629.62 1622.49,3699.03C1666.84,3755.91 1687.08,3766.52 1661.05,3720.24ZM2588.46,3726.99C2605.82,3700 2598.1,3673.01 2573.04,3673.01C2549.9,3673.01 2541.22,3693.25 2548.94,3726.03C2556.65,3755.91 2569.18,3756.88 2588.46,3726.99ZM2242.37,3491.76C2267.43,3432.96 2274.18,3260.39 2253.94,3175.56C2238.51,3109.04 2187.42,2995.28 2168.14,2982.75C2163.32,2979.86 2159.46,2970.22 2159.46,2960.58C2159.46,2950.94 2150.79,2935.51 2139.22,2924.91C2112.22,2899.84 2034.14,2788.01 2018.71,2750.42C2008.11,2726.32 2008.11,2713.78 2016.78,2694.5C2029.32,2665.58 2021.6,2653.05 2000.39,2670.4C1981.11,2686.79 1982.08,2751.38 2002.32,2784.16C2011.96,2798.62 2041.85,2836.22 2068.84,2868.03C2119.94,2927.8 2190.31,3051.2 2225.98,3146.64C2250.08,3211.23 2256.83,3384.76 2236.59,3422.35C2231.77,3431.03 2225.98,3449.35 2223.09,3461.88C2220.2,3474.41 2214.41,3497.55 2211.52,3512.97C2202.84,3551.54 2223.09,3538.04 2242.37,3491.76ZM2602.92,3471.52C2607.74,3460.92 2612.56,3440.67 2612.56,3427.17C2612.56,3405.97 2608.71,3402.11 2591.35,3405C2563.4,3408.86 2546.04,3453.2 2564.36,3474.41C2580.75,3494.66 2590.39,3493.69 2602.92,3471.52ZM2919.13,3309.56C2919.13,3268.11 2916.24,3242.08 2914.31,3251.72C2911.42,3260.39 2906.6,3268.11 2902.74,3268.11C2895.03,3268.11 2896.96,3320.17 2906.6,3362.58C2916.24,3402.11 2920.09,3384.76 2919.13,3309.56ZM1500.06,3219.91C1502.95,3206.41 1512.59,3178.45 1520.3,3157.24C1613.81,2912.38 1631.17,2841.04 1631.17,2705.11C1630.2,2583.64 1615.74,2530.61 1566.58,2468.91C1525.12,2416.86 1523.19,2430.35 1562.72,2511.33C1591.64,2573.03 1591.64,2573.03 1587.79,2722.46C1585.86,2807.29 1580.07,2877.67 1574.29,2884.42C1562.72,2898.88 1519.34,3024.2 1508.73,3075.3C1504.88,3093.62 1496.2,3119.64 1489.45,3133.14C1463.42,3184.24 1448,3235.33 1448,3267.14C1448.96,3299.92 1448.96,3299.92 1472.1,3271.96C1484.63,3256.54 1497.16,3233.4 1500.06,3219.91ZM2619.31,3215.09C2621.24,3204.48 2615.45,3187.13 2607.74,3176.52C2594.25,3160.13 2591.35,3159.17 2583.64,3171.7C2575.93,3183.27 2575.93,3210.26 2582.68,3237.26C2585.57,3249.79 2617.38,3230.51 2619.31,3215.09ZM2950.94,3137.96C2966.37,3104.22 2984.68,3073.37 2989.5,3070.48C2994.32,3066.62 2996.25,3060.84 2993.36,3056.02C2990.47,3051.2 2992.4,3039.63 2997.22,3029.99C3016.5,2993.36 3064.7,2827.54 3067.59,2788.98C3070.48,2736.92 3033.85,2656.9 3000.11,2642.44C2970.22,2627.98 2961.55,2635.7 2980.83,2657.87C2989.5,2667.51 3004.93,2693.54 3016.5,2715.71C3036.74,2755.24 3036.74,2759.09 3022.28,2828.5C3013.61,2868.03 2996.25,2929.73 2982.76,2966.36C2956.73,3033.85 2911.42,3179.41 2911.42,3192.91C2911.42,3212.19 2922.99,3195.8 2950.94,3137.96ZM2622.2,2941.3C2622.2,2930.69 2626.06,2920.09 2630.88,2917.2C2643.41,2909.48 2688.72,2791.87 2710.89,2708.96C2734.03,2627.02 2749.46,2418.78 2735,2404.32C2723.43,2392.76 2678.12,2418.78 2673.3,2439.99C2666.55,2465.06 2635.7,2456.38 2602.92,2419.75C2580.75,2394.68 2516.16,2371.55 2516.16,2388.9C2516.16,2392.76 2527.73,2413 2540.26,2434.21C2553.76,2455.42 2564.36,2484.34 2564.36,2497.84C2564.36,2528.69 2539.3,2560.5 2508.45,2569.18C2486.27,2575.92 2486.27,2574.96 2493.02,2518.08C2498.81,2461.2 2498.81,2460.24 2466.99,2436.14C2448.68,2422.64 2410.11,2402.4 2381.19,2391.79C2311.78,2365.76 2309.85,2362.87 2298.28,2323.35C2292.5,2302.14 2281.9,2288.64 2270.33,2286.71C2240.44,2280.93 2234.66,2270.32 2231.77,2222.12C2229.84,2184.52 2224.05,2171.03 2190.31,2137.28C2148.86,2094.87 2112.22,2025.46 2111.26,1989.79C2111.26,1978.22 2104.51,1963.76 2096.8,1957.01C2084.27,1946.4 2082.34,1951.22 2082.34,1990.75C2082.34,2027.38 2095.84,2063.05 2153.68,2181.63C2232.73,2344.55 2293.47,2494.94 2322.39,2600.03C2340.7,2667.51 2400.47,2770.66 2437.11,2797.65C2445.78,2804.4 2461.21,2820.79 2469.89,2834.29C2478.56,2847.78 2498.81,2873.81 2515.2,2892.13C2531.58,2910.45 2545.08,2929.73 2545.08,2933.58C2545.08,2937.44 2553.76,2953.83 2565.33,2968.29C2585.57,2995.28 2586.53,2995.28 2603.89,2977.93C2613.53,2968.29 2622.2,2950.94 2622.2,2941.3ZM3030.96,2558.57C3051.2,2538.33 3050.24,2516.15 3027.1,2487.23C3007.82,2463.13 3007.82,2463.13 3007.82,2503.62C3007.82,2525.79 3004.93,2549.89 3002.04,2558.57C2994.32,2578.82 3011.68,2578.82 3030.96,2558.57ZM2043.78,2451.56C2043.78,2446.74 2027.39,2435.17 2007.14,2424.57C1971.47,2405.29 1971.47,2404.32 1971.47,2346.48C1971.47,2294.42 1969.55,2289.6 1958.94,2305.03C1952.19,2315.63 1945.44,2331.06 1945.44,2340.7C1943.52,2367.69 1967.62,2433.25 1984.01,2446.74C2000.39,2459.28 2043.78,2463.13 2043.78,2451.56ZM2712.82,2198.02C2731.14,2165.24 2743.67,2162.35 2766.81,2183.56C2782.24,2198.02 2786.09,2195.13 2808.26,2157.53C2838.15,2105.47 2853.57,2034.13 2853.57,1947.37C2853.57,1886.63 2842.97,1860.6 2831.4,1892.42C2829.47,1898.2 2823.69,1883.74 2819.83,1858.68C2810.19,1797.94 2749.46,1724.67 2721.5,1740.1C2696.43,1754.56 2639.56,1750.7 2602.92,1731.42C2565.33,1713.11 2561.47,1712.14 2570.14,1727.57C2574.97,1734.31 2572.07,1736.24 2561.47,1732.39C2551.83,1728.53 2544.12,1732.39 2540.26,1742.99C2537.37,1751.67 2520.98,1768.06 2504.59,1778.66C2488.2,1789.27 2469.89,1810.47 2465.06,1826.86C2459.28,1842.29 2450.6,1860.6 2444.82,1866.39C2439.03,1872.17 2425.54,1892.42 2414.93,1911.7C2404.33,1931.94 2391.8,1946.4 2386.01,1944.48C2369.62,1938.69 2368.66,1863.5 2385.05,1839.39C2405.29,1809.51 2545.08,1662.98 2545.08,1671.65C2545.08,1675.51 2552.79,1671.65 2562.43,1662.01C2576.89,1647.55 2578.82,1646.59 2581.71,1660.08C2583.64,1669.72 2591.35,1673.58 2602.92,1670.69C2613.53,1667.8 2636.66,1675.51 2654.98,1687.08C2677.15,1700.57 2696.43,1705.39 2709.93,1701.54C2732.1,1693.82 2732.1,1690.93 2706.08,1585.85C2698.36,1554.04 2689.69,1503.91 2685.83,1474.02C2681.01,1427.75 2682.94,1415.22 2700.29,1394.01C2710.89,1380.51 2726.32,1368.94 2734.03,1368.94C2741.74,1368.94 2747.53,1365.09 2747.53,1359.3C2747.53,1354.48 2756.2,1349.66 2767.77,1349.66C2795.73,1349.66 2843.93,1319.78 2843.93,1301.46C2843.93,1277.36 2830.44,1264.83 2805.37,1265.79C2791.88,1265.79 2738.85,1260.97 2687.76,1255.18C2563.4,1239.76 2398.55,1240.72 2332.99,1257.11C2240.44,1280.25 2228.87,1287 2221.16,1327.49C2216.34,1347.73 2215.38,1368.94 2217.3,1373.76C2225.98,1396.9 2229.84,1500.05 2223.09,1537.65C2219.23,1559.82 2232.73,1590.67 2246.23,1590.67C2252.01,1590.67 2255.87,1582.96 2255.87,1574.28C2255.87,1561.75 2258.76,1560.79 2266.47,1568.5C2272.26,1574.28 2279,1600.31 2279.97,1626.34C2281.9,1651.41 2285.75,1685.15 2289.61,1700.57C2295.39,1720.82 2294.43,1726.6 2286.72,1721.78C2279.97,1717.92 2284.79,1729.49 2297.32,1747.81C2315.64,1776.73 2322.39,1780.59 2346.49,1775.77C2372.52,1770.95 2374.44,1772.88 2368.66,1794.09C2364.8,1806.62 2361.91,1823.01 2361.91,1829.75C2361.91,1835.54 2356.13,1841.32 2349.38,1841.32C2341.67,1841.32 2329.13,1849.04 2319.49,1859.64C2301.18,1878.92 2260.69,1876.99 2252.01,1854.82C2249.12,1847.11 2251.05,1830.72 2255.87,1817.22C2266.47,1789.27 2257.8,1733.35 2244.3,1741.06C2239.48,1743.95 2237.55,1752.63 2240.44,1760.34C2243.33,1767.09 2241.41,1775.77 2236.59,1778.66C2221.16,1788.3 2210.56,1745.88 2209.59,1679.36C2209.59,1645.62 2204.77,1612.85 2198.99,1607.06C2193.2,1601.28 2188.38,1575.25 2188.38,1550.18C2188.38,1516.44 2182.6,1498.12 2168.14,1483.66C2151.75,1467.27 2149.82,1459.56 2158.5,1435.46C2167.18,1410.4 2166.21,1407.5 2148.86,1407.5C2139.22,1407.5 2130.54,1412.32 2130.54,1417.14C2130.54,1422.93 2121.87,1426.78 2111.26,1426.78C2088.12,1426.78 2087.16,1419.07 2105.48,1398.83C2126.68,1374.73 2135.36,1320.74 2118.01,1320.74C2110.3,1320.74 2098.73,1327.49 2091.98,1335.2C2085.23,1342.91 2076.55,1349.66 2072.7,1349.66C2067.88,1349.66 2041.85,1365.09 2013.89,1383.4C1966.65,1414.25 1962.8,1420.04 1960.87,1457.63C1958.94,1499.09 1958.94,1499.09 1971.47,1468.24C1986.9,1431.6 1994.61,1429.68 2020.64,1455.71C2030.28,1466.31 2046.67,1483.66 2056.31,1493.3C2065.95,1502.94 2081.38,1526.08 2091.01,1543.43C2100.66,1561.75 2116.08,1576.21 2125.72,1576.21C2145.97,1576.21 2149.82,1591.64 2154.64,1683.22C2155.61,1720.82 2163.32,1760.34 2169.1,1770.95C2178.74,1785.41 2178.74,1797.94 2171.03,1821.08C2162.36,1846.14 2162.36,1850.96 2175.85,1850.96C2187.42,1850.96 2189.35,1857.71 2184.53,1885.67C2179.71,1906.88 2181.64,1925.19 2188.38,1932.91C2195.13,1940.62 2197.06,1951.22 2193.2,1957.01C2189.35,1962.79 2191.28,1972.43 2196.1,1979.18C2201.88,1985.93 2206.7,1993.64 2206.7,1998.46C2206.7,2002.32 2211.52,2012.92 2216.34,2022.56C2225.02,2037.99 2225.98,2037.99 2231.77,2022.56C2243.33,1993.64 2254.9,2003.28 2261.65,2043.77C2266.47,2073.66 2279,2093.9 2312.74,2125.72C2336.85,2149.82 2362.88,2169.1 2369.62,2169.1C2376.37,2169.1 2406.26,2182.59 2436.14,2198.02C2466.03,2214.41 2503.63,2227.9 2520.01,2229.83C2546.04,2231.76 2549.9,2227.9 2552.79,2205.73C2556.65,2171.03 2565.33,2171.99 2605.82,2212.48C2635.7,2242.37 2642.45,2245.26 2667.51,2236.58C2682.94,2230.8 2703.18,2213.44 2712.82,2198.02ZM2088.12,1749.74C2085.23,1742.03 2087.16,1735.28 2091.98,1735.28C2097.76,1735.28 2082.34,1707.32 2058.24,1673.58C2017.75,1614.77 2015.82,1610.92 2026.42,1575.25C2031.25,1554.04 2040.88,1531.87 2045.71,1526.08C2052.45,1517.4 2050.53,1511.62 2039.92,1507.76C2018.71,1500.05 2013.89,1504.87 1994.61,1557.89C1971.47,1617.66 1984.97,1656.23 2057.27,1733.35C2089.09,1767.09 2096.8,1771.91 2088.12,1749.74ZM2850.68,1705.39C2857.43,1692.86 2860.32,1666.83 2857.43,1648.51C2852.61,1615.74 2832.37,1521.26 2829.47,1515.48C2828.51,1514.51 2815.01,1519.33 2800.55,1527.05C2785.13,1534.76 2769.7,1539.58 2764.88,1536.68C2747.53,1526.08 2738.85,1543.43 2748.49,1569.46C2754.28,1583.92 2761.03,1606.1 2762.95,1619.59C2773.56,1679.36 2808.26,1739.13 2828.51,1732.39C2834.29,1730.46 2844.9,1718.89 2850.68,1705.39ZM2091.98,1634.05C2091.98,1588.74 2071.74,1564.64 2059.2,1595.49C2052.45,1613.81 2071.74,1669.72 2083.3,1662.01C2088.12,1659.12 2091.98,1646.59 2091.98,1634.05ZM2819.83,1441.25C2819.83,1418.11 2815.01,1411.36 2796.7,1409.43C2765.85,1404.61 2728.25,1425.82 2728.25,1447.03C2728.25,1458.6 2737.89,1465.35 2760.06,1468.24C2813.08,1474.99 2819.83,1472.09 2819.83,1441.25ZM2761.03,1090.33C2791.88,1041.17 2413.01,1008.39 2236.59,1045.02C2197.06,1053.7 2154.64,1061.41 2143.07,1063.34C2131.51,1065.27 2118.97,1069.12 2115.12,1072.02C2112.22,1075.87 2156.57,1075.87 2214.41,1073.94C2271.29,1071.05 2367.7,1074.91 2428.43,1081.66C2574,1098.05 2753.31,1102.87 2761.03,1090.33Z" style="fill-rule:nonzero;"/>
        <path id="p15F79w1Lr" d="M1136.61,6130.35C1135.65,6117.82 1133.72,6096.61 1132.76,6083.11C1128.9,6050.34 1126.01,5935.61 1127.94,5875.85C1128.9,5832.46 1129.86,5830.53 1139.51,5851.74C1145.29,5865.24 1153,5915.37 1157.82,5962.61C1162.64,6010.81 1168.43,6062.87 1170.35,6080.22C1173.25,6101.43 1169.39,6116.86 1155.89,6132.28C1137.58,6153.49 1137.58,6153.49 1136.61,6130.35Z" style="fill-rule:nonzero;"/>
        <path id="pgDKpjaqL" d="M1268.69,5984.78C1265.79,5914.41 1262.9,5789.08 1262.9,5707.14C1262.9,5625.19 1261.94,5479.62 1260.97,5384.18C1260.01,5207.76 1268.69,5086.29 1282.18,5094.97C1286.04,5096.9 1289.89,5174.02 1290.86,5265.61C1291.82,5357.19 1293.75,5469.02 1295.68,5514.33C1302.43,5666.65 1301.46,6033.95 1295.68,6073.47C1284.11,6143.85 1275.43,6113.96 1268.69,5984.78Z" style="fill-rule:nonzero;"/>
        <path id="p120tAnig8" d="M1175.17,5560.6C1175.17,5558.67 1173.25,5527.82 1171.32,5490.23C1167.46,5422.74 1167.46,5422.74 1184.82,5472.88C1203.13,5521.08 1202.17,5562.53 1184.82,5562.53C1179.99,5562.53 1176.14,5561.57 1175.17,5560.6Z" style="fill-rule:nonzero;"/>
        <path id="p5dVmfWG1" d="M1042.14,5512.4C1031.53,5496.01 1026.71,5451.67 1024.78,5350.44C1022.86,5273.32 1020.93,5203.91 1019,5196.19C1016.11,5174.02 1043.1,5070.87 1052.74,5070.87C1056.6,5070.87 1060.45,5076.65 1061.42,5083.4C1065.27,5127.75 1064.31,5485.41 1060.45,5507.58C1055.63,5533.61 1055.63,5533.61 1042.14,5512.4Z" style="fill-rule:nonzero;"/>
        <path id="p43KROzU0" d="M2769.7,5909.59C2731.14,5906.69 2694.51,5898.98 2687.76,5893.2C2678.12,5883.56 2695.47,5880.66 2772.59,5879.7C2824.65,5879.7 2876.71,5877.77 2887.32,5874.88C2897.92,5872.95 2958.66,5869.1 3023.24,5867.17C3127.36,5863.31 3176.53,5870.06 3161.1,5884.52C3139.89,5905.73 2910.45,5920.19 2769.7,5909.59Z" style="fill-rule:nonzero;"/>
        <path id="p18GPj74M6" d="M2787.05,5349.48C2737.89,5339.84 2728.25,5333.09 2747.53,5321.52C2769.7,5307.06 2846.83,5310.91 2867.07,5326.34C2884.42,5339.84 2884.42,5340.8 2859.36,5350.44C2844.9,5355.26 2832.37,5360.08 2831.4,5359.12C2830.44,5358.15 2810.19,5354.3 2787.05,5349.48Z" style="fill-rule:nonzero;"/>
        <path id="pbsyxHs1" d="M2532.55,2789.94C2522.91,2780.3 2523.87,2651.12 2533.51,2651.12C2538.33,2651.12 2548.94,2668.47 2558.58,2688.72C2580.75,2740.78 2561.47,2817.9 2532.55,2789.94Z" style="fill-rule:nonzero;"/>
        <path id="pnNSf2SjU" d="M2448.68,2028.35C2448.68,2020.63 2453.5,2004.25 2460.24,1992.68C2466.03,1981.11 2470.85,1959.9 2469.89,1945.44C2466.03,1896.27 2561.47,1819.15 2605.82,1834.58C2611.6,1836.5 2628.95,1832.65 2643.41,1825.9C2686.79,1803.73 2750.42,1825.9 2776.45,1872.17C2810.19,1932.91 2787.05,1945.44 2729.21,1899.17C2688.72,1866.39 2665.59,1865.42 2591.35,1898.2C2536.4,1922.3 2492.06,1964.72 2478.56,2008.1C2466.03,2043.77 2448.68,2056.3 2448.68,2028.35Z" style="fill-rule:nonzero;"/>
        <path id="pNrbJKbpm" d="M2671.37,1969.54C2652.09,1953.15 2650.16,1948.33 2659.8,1930.02C2681.01,1890.49 2704.15,1910.73 2697.4,1961.83C2694.51,1987.86 2694.51,1987.86 2671.37,1969.54Z" style="fill-rule:nonzero;"/>
        <path id="pIWrn4zh1" d="M2424.57,1532.83C2409.15,1528.97 2384.09,1522.23 2369.62,1519.33C2333.95,1511.62 2335.88,1498.12 2374.44,1485.59C2440,1463.42 2545.08,1474.99 2545.08,1503.91C2545.08,1536.68 2489.16,1550.18 2424.57,1532.83Z" style="fill-rule:nonzero;"/>
        <path id="peXBeU5kW" d="M2336.85,1434.5C2328.17,1421 2396.62,1361.23 2430.36,1354.48C2445.78,1350.62 2460.24,1344.84 2463.14,1340.98C2469.89,1329.42 2563.4,1348.7 2590.39,1366.05C2630.88,1393.04 2611.6,1402.68 2519.05,1402.68C2470.85,1403.65 2425.54,1408.47 2417.83,1414.25C2394.69,1432.57 2343.6,1446.07 2336.85,1434.5Z" style="fill-rule:nonzero;"/>
    </g>
</svg>
