<svg class="img-fluid safari" id="outputsvg" xmlns="http://www.w3.org/2000/svg" style="transform: matrix(13.78585, 0, 0, 13.78585, 0, 0); transform-origin: 50% 50%; cursor: move; max-height: 6892.925px; transition: transform 200ms ease-in-out; position: absolute; left: -3176.462402px; top: -3176.462402px; width: 6892.925px; max-width: 6892.925px; height: 6892.925px;" width="6892.925" height="6892.925" viewBox="0 0 10240 10240"><g id="l6w1R65WKpEjTk3YLz8wt5Q" fill="rgb(235,218,199)" style="transform: none;"><g style="transform: none;"><path id="pOf3JVkJ2" d="M0 5120 l0 -5120 5120 0 5120 0 0 5120 0 5120 -5120 0 -5120 0 0 -5120z m2904 3262 c3 -5 -8 -16 -24 -25 -17 -10 -72 -81 -129 -167 -122 -180 -128 -207 -57 -234 128 -49 186 -144 157 -253 -28 -102 -112 -150 -285 -161 -61 -4 -159 -6 -218 -4 l-108 3 15 29 c13 24 15 90 15 395 0 320 -2 369 -16 390 l-16 25 95 0 95 0 -13 -27 c-9 -19 -15 -80 -17 -188 l-3 -160 66 -3 c74 -3 72 -5 120 83 89 163 168 265 227 291 31 14 89 18 96 6z m4693 -14 c112 -41 211 -128 252 -221 41 -92 46 -114 46 -197 -1 -189 -113 -342 -300 -411 -162 -60 -370 4 -473 144 -70 94 -96 169 -95 271 2 187 118 349 293 414 78 29 201 29 277 0z m-5869 0 c-31 -25 -37 -106 -35 -458 l2 -345 107 0 c117 0 124 3 158 69 l15 29 3 -57 c2 -32 1 -60 -2 -63 -4 -4 -604 -7 -663 -4 -9 1 -13 19 -13 59 l0 57 17 -34 c23 -47 64 -61 173 -61 l91 0 -3 389 c-3 366 -4 390 -22 410 l-19 21 103 0 c85 0 101 -2 88 -12z m1532 -3 c-13 -15 -9 -101 6 -154 13 -43 -12 -14 -26 31 -15 48 -63 123 -82 131 -7 3 16 6 51 6 56 1 62 -1 51 -14z m631 -20 c-34 -39 -50 -73 -85 -180 -21 -62 -40 -116 -118 -325 -11 -30 -24 -64 -28 -75 -5 -11 -14 -36 -20 -55 -58 -168 -57 -165 -87 -171 -47 -9 -71 5 -83 51 -6 23 -13 47 -16 55 -4 10 5 15 31 17 l37 3 59 175 c32 96 58 187 59 203 l0 27 -94 0 c-51 0 -120 3 -154 6 l-61 7 -3 -39 c-3 -38 -4 -36 -32 44 -15 46 -26 86 -23 89 3 3 11 -13 18 -36 l12 -41 182 0 181 0 32 94 c33 96 40 150 22 161 -29 18 0 25 96 25 l106 0 -31 -35z m748 6 c85 -30 159 -78 203 -132 39 -48 88 -148 88 -179 0 -10 5 -31 11 -47 13 -36 -5 -140 -38 -207 -51 -106 -120 -168 -231 -210 -83 -30 -122 -35 -341 -41 l-174 -5 19 21 c18 20 19 41 19 404 0 369 -1 384 -20 405 l-20 22 210 -4 c184 -4 218 -8 274 -27z m746 -1 c-13 -26 -15 -82 -13 -402 2 -205 7 -381 12 -390 7 -17 0 -18 -84 -18 -85 0 -91 1 -79 17 11 13 14 89 14 398 0 363 -1 384 -19 404 l-19 21 102 0 102 0 -16 -30z m681 8 c-14 -19 -16 -75 -16 -410 l0 -388 79 0 c116 0 137 6 172 54 l30 41 -3 -60 -3 -60 -225 -1 c-124 -1 -276 1 -337 4 l-113 5 0 51 0 51 34 -40 33 -39 107 -4 106 -4 0 382 c0 378 -3 411 -34 432 -6 4 33 8 87 8 l98 0 -15 -22z m687 -10 c-16 -30 -18 -71 -21 -391 -3 -336 -2 -360 16 -390 l18 -32 -84 2 c-89 2 -103 6 -84 25 19 19 17 754 -2 791 l-15 27 95 0 95 0 -18 -32z m1505 1 c-23 -30 -23 -36 -26 -330 l-3 -299 40 0 c23 0 41 3 41 8 0 4 17 26 39 49 21 24 50 58 65 77 14 19 32 40 39 48 7 7 51 60 97 118 47 58 89 110 95 117 5 6 51 63 100 127 50 63 95 114 100 112 6 -2 12 -145 15 -392 5 -351 7 -393 23 -417 l17 -27 -54 0 -54 0 19 50 c17 44 19 78 19 285 l0 235 -37 0 c-40 -1 -44 -5 -188 -189 -54 -70 -279 -346 -293 -360 -16 -16 -101 -30 -138 -23 l-22 4 19 32 c18 29 19 53 19 374 0 286 -3 349 -15 379 -9 21 -21 41 -28 45 -7 4 21 8 61 8 l73 0 -23 -31z m-4888 -449 c0 -13 -1 -13 -10 0 -5 8 -10 22 -10 30 0 13 1 13 10 0 5 -8 10 -22 10 -30z m2344 -773 c36 -11 33 -12 -50 -12 -107 0 -147 -19 -209 -98 l-40 -52 -3 42 c-2 23 1 51 7 61 29 54 200 87 295 59z m1229 -2 c227 -59 370 -276 328 -499 -26 -140 -130 -270 -256 -320 -120 -48 -210 -45 -331 10 -165 75 -277 306 -232 479 26 97 57 154 118 215 61 61 120 93 208 115 75 18 97 18 165 0z m-2673 -53 c-84 -84 -210 -280 -210 -326 0 -29 4 -36 19 -36 11 0 23 -4 26 -10 3 -5 14 -10 24 -10 27 0 109 -77 126 -117 43 -102 -15 -206 -142 -256 -39 -15 -85 -20 -251 -24 l-204 -6 19 34 c17 31 18 63 18 400 0 295 -3 369 -14 382 -12 16 -6 17 73 17 l87 0 -15 -22 c-13 -18 -16 -54 -16 -186 l0 -163 72 3 72 3 82 135 c45 74 95 149 110 168 37 41 98 72 146 72 l36 0 -58 -58z m-1728 39 c-10 -6 -15 -56 -19 -199 l-6 -191 37 -7 c59 -11 191 0 219 19 24 16 25 15 31 -15 3 -17 6 -40 6 -51 0 -20 0 -20 -23 1 -21 20 -34 22 -145 22 l-122 0 2 -187 3 -188 90 1 c50 0 117 4 150 8 54 7 65 13 103 52 l42 45 -6 -58 c-4 -32 -9 -60 -11 -63 -3 -3 -122 -6 -265 -7 l-260 -1 19 20 c17 19 18 48 21 390 2 322 1 374 -13 394 l-15 24 87 0 c52 0 82 -4 75 -9z m786 -18 c-26 -61 -16 -755 11 -787 12 -14 4 -16 -78 -16 -90 0 -103 4 -78 28 9 10 13 103 15 378 2 305 1 370 -12 395 l-14 29 84 0 84 0 -12 -27z m1831 -17 c6 -25 11 -57 11 -72 0 -27 0 -27 -36 14 -20 24 -52 49 -71 57 -36 15 -287 40 -303 30 -6 -4 -10 -88 -10 -201 l0 -194 103 0 c81 0 111 4 140 19 l37 19 0 -46 c0 -43 -1 -44 -18 -29 -15 14 -41 17 -140 17 l-122 0 0 -192 0 -191 118 6 c143 8 184 19 224 60 l31 32 -6 -49 c-2 -27 -10 -52 -17 -56 -7 -4 -108 -7 -224 -5 -277 3 -274 3 -256 15 13 8 15 64 18 382 3 363 2 373 -18 400 l-21 28 275 0 274 0 11 -44z m2485 17 c-10 -21 -14 -71 -14 -205 l0 -176 104 -1 c81 0 111 4 140 18 34 18 36 18 36 1 0 -10 3 -32 7 -51 l6 -33 -28 22 c-25 20 -39 22 -146 22 l-119 0 0 -191 0 -192 118 7 c166 9 179 13 223 59 l39 39 0 -45 c0 -78 2 -77 -124 -77 -61 0 -174 3 -252 7 l-141 6 15 31 c13 26 15 80 14 356 -3 345 -6 385 -30 413 -14 16 -10 17 76 17 l91 0 -15 -27z m-1839 -2 c69 -42 114 -111 122 -186 10 -88 -51 -158 -209 -239 -136 -71 -155 -84 -177 -120 -23 -37 -29 -143 -11 -190 14 -39 65 -59 145 -60 87 -1 136 21 182 82 l33 44 0 -50 0 -50 -52 -22 c-32 -14 -81 -25 -123 -28 -99 -6 -168 21 -232 92 -94 102 -90 191 10 281 27 25 53 45 58 45 4 0 30 13 56 28 26 15 64 34 83 42 55 23 96 52 121 89 20 29 24 46 24 113 0 79 -1 80 -37 114 -42 38 -39 44 7 15z m-658 -1228 c31 -46 43 -82 43 -128 0 -45 0 -45 36 -45 19 0 42 7 50 15 21 21 91 38 111 27 13 -8 10 -11 -18 -17 -55 -12 -168 -76 -194 -110 -14 -17 -32 -49 -41 -71 l-17 -39 -13 39 c-29 82 -90 137 -191 170 -29 10 -53 22 -53 27 0 16 44 10 85 -11 22 -11 54 -20 72 -20 32 0 33 2 33 40 0 53 45 150 70 150 5 0 17 -12 27 -27z m-522 -245 c187 -38 333 -131 388 -247 32 -67 31 -171 -3 -236 -52 -101 -155 -132 -236 -70 -62 47 -64 103 -4 135 17 9 25 6 50 -19 17 -16 30 -37 30 -45 0 -28 67 -21 95 10 22 24 25 36 25 104 0 85 -14 129 -56 179 -44 52 -84 65 -214 65 -138 1 -191 -12 -282 -70 -93 -60 -143 -107 -199 -191 -71 -105 -102 -202 -115 -360 -3 -46 -10 -83 -15 -83 -21 0 -59 68 -59 107 0 40 30 145 56 195 8 15 14 41 14 58 0 27 -3 30 -33 30 -40 0 -62 -22 -140 -140 -131 -202 -177 -334 -177 -517 0 -180 46 -273 136 -273 63 0 89 -33 64 -80 -46 -86 -208 -3 -261 134 -46 119 -27 243 67 444 24 51 44 107 44 123 0 29 -2 30 -37 27 -33 -3 -41 -10 -91 -83 -114 -167 -161 -309 -162 -480 0 -236 57 -381 198 -495 150 -122 173 -162 97 -168 -33 -2 -52 4 -102 37 -59 38 -115 100 -128 142 -5 14 -16 19 -46 19 -36 0 -39 -2 -39 -28 0 -43 47 -161 91 -229 96 -147 201 -196 300 -140 l40 22 24 -28 c42 -48 27 -93 -45 -136 -45 -27 -85 -26 -157 1 -120 45 -214 178 -269 383 -41 154 -43 174 -33 330 5 83 14 168 19 190 5 22 10 64 10 93 l0 53 -37 -3 -38 -3 -31 -95 c-33 -98 -54 -270 -54 -436 0 -234 94 -561 211 -731 68 -98 205 -203 266 -203 11 0 28 -6 39 -14 18 -14 18 -15 0 -22 -43 -17 -103 -9 -160 21 -77 40 -138 106 -199 215 -21 39 -30 45 -61 48 -34 3 -36 1 -36 -25 0 -42 104 -308 130 -333 3 -3 10 -14 16 -25 6 -11 23 -41 38 -67 l28 -48 -32 0 -33 0 5 -49 c6 -64 96 -244 198 -396 60 -88 205 -252 253 -285 20 -14 37 -28 37 -32 0 -5 4 -8 10 -8 5 0 36 -17 69 -38 161 -105 405 -131 568 -61 61 26 89 52 119 111 27 52 34 154 12 176 -7 7 -31 12 -53 12 -73 0 -111 73 -62 117 44 40 60 44 105 22 44 -22 73 -60 97 -128 11 -33 12 -53 4 -99 -33 -180 -217 -322 -417 -322 -170 0 -409 113 -581 274 -73 68 -159 178 -196 249 -27 51 -33 57 -61 57 -30 0 -32 -2 -38 -49 -3 -27 -16 -62 -29 -77 l-22 -29 -6 135 c-4 74 -11 153 -17 175 -12 47 -22 91 -81 365 -16 74 -39 183 -52 243 l-22 107 -33 0 c-31 0 -33 -2 -40 -47 -8 -55 2 -213 18 -283 9 -41 8 -66 -8 -147 -11 -58 -19 -140 -19 -200 0 -57 -2 -103 -5 -103 -3 0 -22 13 -41 30 -67 54 -95 151 -69 239 5 19 12 68 16 109 l7 74 -39 -4 c-21 -3 -63 -16 -92 -29 l-52 -23 -27 26 -26 26 32 31 c17 17 55 48 84 70 105 77 155 165 168 296 4 44 8 223 8 398 l-1 318 -37 -3 -36 -3 -17 -75 c-9 -41 -22 -115 -28 -164 -27 -218 -80 -317 -186 -346 -38 -11 -47 -10 -69 4 l-26 17 26 20 c23 19 105 171 105 196 0 6 17 64 39 129 41 125 68 181 163 331 32 51 58 95 58 97 0 3 16 32 35 65 22 38 35 72 35 95 0 33 -2 36 -31 36 -36 0 -29 6 -146 -136 -86 -103 -141 -152 -198 -174 -26 -10 -27 -11 14 104 40 113 97 175 217 236 104 52 176 103 229 162 73 80 115 151 115 193 0 33 -2 35 -33 35 -22 0 -41 -8 -56 -24 -33 -35 -125 -96 -168 -112 -21 -7 -55 -13 -76 -14 -84 -1 -133 110 -70 160 38 30 67 23 71 -17 3 -32 5 -33 50 -33 59 0 165 51 272 132 41 31 101 70 133 86 52 27 93 58 182 137 17 15 40 33 53 42 15 11 22 25 22 49 0 32 -2 34 -33 34 -18 0 -58 -13 -88 -29 -119 -64 -231 -86 -289 -56 -26 13 -50 42 -50 59 0 3 36 6 79 6 172 0 290 44 661 245 74 40 145 76 158 80 17 5 22 14 22 42 l0 36 -72 -6 c-84 -7 -166 -27 -235 -58 -100 -45 -112 -49 -142 -55 -17 -4 -31 -4 -31 -1 0 12 122 82 210 120 171 75 386 100 555 65z m1334 -5 c133 -30 338 -114 406 -167 20 -15 20 -15 -2 -16 -12 0 -35 5 -50 11 -15 6 -37 15 -48 19 -11 4 -38 15 -60 25 -82 36 -194 65 -250 65 -44 0 -45 -1 -45 -32 0 -30 5 -36 58 -63 31 -16 84 -46 117 -65 33 -20 74 -42 90 -50 17 -8 32 -17 35 -20 11 -11 220 -110 233 -110 7 0 17 -4 23 -9 21 -21 180 -51 266 -51 98 0 105 -6 57 -51 -26 -24 -40 -29 -80 -29 -55 0 -191 47 -249 87 -19 12 -49 23 -67 23 -31 0 -33 -2 -33 -33 0 -28 11 -42 83 -106 45 -40 143 -114 217 -164 74 -50 137 -93 140 -96 9 -11 45 -32 107 -61 76 -37 153 -42 153 -11 0 59 37 67 81 20 35 -37 36 -61 8 -101 -33 -46 -78 -61 -127 -44 -45 16 -105 46 -112 55 -3 4 -15 14 -28 23 -12 8 -42 34 -67 57 -34 32 -51 41 -79 41 -34 0 -36 -2 -36 -34 0 -19 4 -37 9 -40 5 -3 24 -32 41 -63 18 -31 69 -93 114 -137 65 -65 100 -91 179 -131 124 -62 176 -107 215 -187 56 -115 79 -178 64 -178 -28 0 -110 60 -153 114 -28 33 -60 72 -72 86 -12 14 -39 47 -61 73 -32 39 -44 47 -72 47 -31 0 -34 -3 -34 -30 0 -27 47 -122 113 -232 12 -20 45 -74 73 -120 54 -90 80 -151 114 -268 39 -134 81 -228 121 -274 l39 -44 -26 -17 c-49 -32 -133 3 -180 74 -34 52 -53 131 -79 324 -8 60 -20 124 -27 143 -10 29 -17 34 -44 34 l-31 0 -8 -297 c-11 -479 12 -579 165 -701 76 -59 110 -93 110 -107 0 -7 -9 -20 -20 -30 -19 -17 -22 -17 -65 -1 -25 10 -47 22 -50 27 -4 5 -24 9 -46 9 -47 0 -47 0 -22 -132 22 -115 21 -163 -3 -213 -18 -39 -77 -105 -94 -105 -6 0 -10 40 -10 93 0 50 -6 121 -12 157 -13 72 -13 125 -3 373 l7 168 -38 -3 c-31 -2 -40 -8 -45 -28 -6 -21 -7 -20 -8 13 -1 35 -3 37 -34 37 -31 0 -36 -5 -68 -65 -72 -138 -183 -224 -294 -228 -83 -3 -88 15 -13 43 138 50 248 154 323 305 76 155 123 328 146 538 19 180 -16 472 -69 586 -15 31 -23 36 -55 39 -37 3 -37 3 -37 -36 0 -22 7 -79 16 -128 25 -138 22 -349 -5 -449 -29 -107 -47 -156 -88 -242 -35 -75 -119 -177 -154 -188 -23 -8 -59 19 -59 42 0 8 26 42 58 76 122 129 202 275 202 366 l0 51 -35 0 c-30 0 -37 -5 -49 -34 -34 -81 -157 -172 -223 -164 -55 6 -40 34 94 167 125 125 136 140 184 256 29 71 37 271 14 367 -38 166 -74 247 -155 357 -55 74 -63 81 -95 81 -31 0 -35 -3 -35 -27 0 -15 17 -61 39 -103 100 -195 125 -356 72 -475 -27 -60 -109 -141 -160 -156 -44 -13 -71 -3 -97 36 -15 23 -15 27 0 50 13 20 25 25 61 25 39 0 47 4 78 43 19 23 40 60 46 82 19 68 14 251 -9 341 -36 137 -132 316 -232 430 -23 26 -38 34 -64 34 -31 0 -34 -2 -34 -31 0 -17 13 -59 29 -93 45 -97 56 -154 36 -204 -9 -22 -27 -47 -39 -55 l-22 -15 -12 127 c-20 204 -65 307 -192 431 -121 119 -212 155 -395 155 -94 0 -128 -4 -157 -18 -82 -39 -126 -134 -115 -249 6 -73 33 -108 83 -108 28 0 36 5 50 35 29 62 74 66 105 8 25 -47 -50 -133 -117 -133 -41 0 -110 37 -135 71 -30 42 -59 118 -59 152 0 80 62 196 134 251 149 113 416 159 635 109z m-1269 -253 c0 -5 -7 -10 -15 -10 -30 0 -111 -45 -156 -87 -76 -71 -111 -160 -113 -285 l-1 -79 -25 30 c-14 16 -31 50 -38 74 -22 74 15 173 93 252 45 44 95 75 164 100 43 16 91 19 91 5z m940 -3 c94 -33 196 -122 243 -211 28 -54 27 -138 -2 -194 -33 -64 -41 -61 -41 18 0 165 -103 325 -244 379 -45 18 -47 20 -21 20 17 1 46 -5 65 -12z m-965 -833 c-40 -21 -64 -43 -84 -79 -14 -26 -16 -83 -19 -452 l-3 -421 54 -7 c30 -4 140 -5 244 -3 215 3 207 1 268 91 l32 47 6 -97 c4 -54 7 -124 7 -155 l0 -58 -45 35 c-75 57 -121 65 -357 65 l-208 0 0 -424 0 -424 63 -6 c104 -10 611 -13 797 -5 199 8 259 22 312 72 19 17 44 53 56 80 12 26 29 47 37 47 11 0 15 -13 17 -47 2 -68 -2 -185 -8 -205 -5 -17 -53 -18 -827 -17 -640 0 -818 3 -803 12 60 38 102 77 120 112 21 39 21 51 24 825 4 932 2 960 -81 1010 l-32 20 230 0 c215 0 228 -1 200 -16z m1089 6 c-31 -12 -72 -66 -84 -108 -6 -23 -10 -285 -12 -672 l-1 -635 144 -3 c145 -3 241 8 290 34 15 7 43 39 63 71 l36 57 0 -84 c0 -47 -3 -102 -6 -122 l-7 -38 -592 0 c-462 0 -595 3 -603 13 -9 11 -53 189 -48 194 1 1 28 -22 60 -52 33 -32 72 -59 94 -65 20 -5 113 -10 205 -10 l168 0 -3 658 -3 657 -24 41 c-13 23 -37 48 -55 57 -29 15 -18 16 184 16 126 0 206 -4 194 -9z m1077 -1607 c-12 -60 -31 -146 -41 -193 -11 -47 -26 -119 -35 -160 -8 -41 -26 -129 -40 -195 -20 -95 -24 -135 -19 -195 l6 -75 -25 33 c-14 19 -29 52 -32 74 -7 38 -8 39 -42 36 -28 -2 -38 -10 -56 -43 -88 -162 -286 -349 -462 -438 -138 -69 -188 -82 -315 -82 -108 1 -119 2 -180 32 -157 76 -262 250 -230 381 13 57 58 115 105 138 30 14 36 14 63 0 16 -8 37 -27 47 -42 15 -23 15 -30 4 -53 -21 -39 -40 -50 -85 -51 -49 0 -54 -8 -54 -91 0 -73 23 -123 80 -171 57 -49 126 -70 250 -75 126 -6 210 11 311 62 62 31 85 45 153 95 50 36 197 191 237 249 24 35 63 90 86 123 65 95 156 284 161 339 4 47 4 48 -26 51 l-31 3 42 70 c51 85 122 229 131 269 4 15 10 26 13 22 3 -3 -4 -54 -16 -113z m-3001 -544 c3 -3 34 -25 69 -48 74 -50 181 -101 213 -101 13 -1 34 -7 48 -14 l25 -14 -38 -18 c-31 -15 -37 -23 -37 -50 0 -25 5 -34 23 -39 12 -3 31 -10 42 -15 56 -23 138 -51 205 -70 149 -41 180 -51 175 -60 -3 -5 -30 -17 -60 -26 -49 -16 -62 -16 -108 -4 -201 50 -367 180 -627 489 -100 119 -107 140 -19 56 46 -44 86 -83 89 -86z m2709 114 c-18 -27 -57 -77 -87 -113 -56 -66 -270 -282 -307 -310 -137 -105 -292 -169 -375 -155 -39 7 -97 40 -83 48 8 5 16 7 183 57 58 17 135 43 172 58 66 26 68 28 68 62 0 31 -4 37 -32 49 l-33 13 95 31 c127 43 250 124 365 244 33 34 61 62 63 62 2 1 -11 -20 -29 -46z m-1404 -340 c4 -10 15 -49 25 -88 43 -167 118 -305 244 -444 24 -27 35 -46 28 -49 -16 -5 -70 29 -106 67 -22 23 -39 31 -64 31 l-35 0 7 -67 c9 -97 -20 -187 -91 -281 -28 -38 -34 -34 -82 46 -44 75 -70 175 -64 245 l5 57 -33 0 c-25 0 -42 -8 -63 -30 -25 -27 -94 -70 -111 -70 -3 0 25 39 63 88 138 177 183 261 222 419 10 39 21 76 25 82 9 16 22 13 30 -6z"></path><path id="pchbvV4fG" d="M2395 7969 c-3 -13 -4 -112 -3 -219 l3 -195 75 -3 c81 -3 154 11 184 37 69 60 88 241 33 323 -33 49 -80 67 -190 75 -95 6 -96 6 -102 -18z"></path><path id="p13lGvrWKV" d="M7352 8356 c-19 -7 -52 -30 -74 -51 -80 -79 -108 -171 -108 -360 1 -201 36 -306 122 -363 38 -25 51 -27 153 -30 125 -4 163 8 217 65 72 77 93 156 93 348 0 194 -14 242 -97 330 -30 32 -61 55 -87 63 -50 15 -174 14 -219 -2z"></path><path id="pjqW7auEC" d="M4327 8249 c-6 -95 -12 -637 -8 -676 2 -20 55 -24 164 -13 124 12 163 27 222 81 78 72 111 189 103 360 -8 161 -70 273 -183 332 -33 17 -63 22 -166 25 l-126 4 -6 -113z"></path><path id="p1CdR6MhRB" d="M6781 7113 c-31 -6 -90 -44 -118 -74 -60 -67 -83 -157 -83 -334 0 -186 20 -261 86 -329 50 -52 89 -69 171 -74 120 -8 221 46 267 142 25 54 46 161 46 243 1 279 -90 422 -274 429 -39 1 -82 0 -95 -3z"></path><path id="pcpZ98Dta" d="M3810 6520 l0 -210 89 0 c178 0 231 49 231 213 0 67 -4 87 -24 121 -39 66 -85 86 -200 86 l-96 0 0 -210z"></path></g></g><g id="l64oFWjWVtKGOkH9S8CB4xC" fill="rgb(202,50,2)" style="transform: none;"><g style="transform: none;"><path id="pp2AFfww7" d="M7410 8423 c-126 -8 -259 -81 -326 -181 -68 -98 -86 -159 -88 -287 -1 -108 2 -126 42 -215 79 -179 289 -286 495 -251 40 7 81 16 92 20 143 55 229 142 286 291 19 48 19 253 0 300 -44 114 -58 136 -123 198 -104 97 -217 135 -378 125z m131 -95 c26 -8 57 -31 87 -63 79 -84 96 -139 97 -300 0 -160 -25 -245 -93 -318 -50 -53 -96 -69 -187 -65 -69 2 -88 7 -123 30 -81 54 -121 163 -122 333 0 157 32 256 108 330 64 61 145 80 233 53z"></path><path id="pBOUeIp3u" d="M2778 8407 c-60 -28 -139 -130 -227 -292 -45 -83 -49 -86 -90 -83 l-36 3 4 130 c1 71 7 140 12 152 5 13 22 32 39 41 17 9 29 24 28 32 -3 13 -31 15 -172 18 -116 2 -173 -1 -180 -9 -8 -8 -6 -14 9 -23 11 -6 32 -24 47 -40 l28 -28 0 -342 c0 -319 -1 -343 -19 -373 -11 -17 -29 -34 -39 -37 -24 -8 -37 -37 -22 -46 20 -12 432 -8 500 5 135 25 196 71 224 169 13 43 14 64 5 112 -6 32 -17 71 -25 86 -18 35 -81 81 -140 104 -24 9 -44 19 -44 21 0 2 45 71 100 152 94 140 134 182 193 204 21 8 22 21 1 37 -21 18 -162 23 -196 7z m-178 -475 c62 -30 102 -124 84 -198 -10 -41 -39 -96 -60 -115 -27 -23 -101 -41 -154 -37 l-45 3 -2 174 c-1 95 1 179 4 187 7 19 124 9 173 -14z"></path><path id="pNVk0tPR4" d="M8720 8299 c-52 -66 -100 -126 -105 -132 -6 -7 -48 -59 -95 -117 -46 -58 -90 -111 -97 -118 -7 -8 -25 -29 -39 -48 -15 -19 -44 -53 -65 -77 -22 -23 -39 -45 -39 -49 0 -5 -5 -8 -11 -8 -7 0 -9 84 -7 268 3 298 4 303 74 344 19 11 34 26 34 34 0 11 -29 14 -155 14 -142 0 -155 -2 -155 -18 0 -10 15 -26 34 -36 62 -33 66 -56 66 -409 0 -292 -1 -314 -20 -344 -10 -18 -33 -39 -50 -48 -16 -8 -30 -23 -30 -33 0 -15 14 -17 117 -19 111 -2 142 4 168 31 12 12 244 298 290 357 93 119 151 188 158 189 4 0 7 -92 7 -204 0 -227 -8 -267 -62 -323 -16 -17 -28 -35 -25 -40 5 -7 224 -11 260 -4 17 3 4 28 -30 57 -49 41 -51 64 -52 485 -1 368 -1 369 -50 369 -21 0 -44 -23 -121 -121z"></path><path id="pR8iNQvac" d="M1455 8400 c-8 -13 12 -40 29 -40 7 0 23 -12 37 -26 l24 -26 3 -359 3 -359 -63 0 c-91 1 -116 15 -152 85 -48 92 -60 82 -64 -49 -2 -77 1 -112 9 -117 16 -9 703 -9 718 0 8 5 11 42 9 117 -3 100 -5 109 -23 111 -15 2 -26 -10 -44 -50 -40 -85 -50 -91 -139 -92 l-77 0 0 325 c0 179 4 344 9 368 8 36 17 48 48 65 22 13 37 28 35 37 -2 13 -31 15 -179 18 -117 2 -179 -1 -183 -8z"></path><path id="p13WQML6lK" d="M3087 8403 c-15 -14 -5 -32 27 -52 31 -20 86 -89 86 -110 0 -5 7 -26 16 -47 18 -41 132 -365 140 -399 3 -11 10 -29 14 -40 5 -11 23 -60 40 -110 51 -146 47 -140 115 -141 33 -1 66 2 74 6 12 6 23 34 71 170 6 19 15 44 20 55 4 11 17 45 28 75 78 209 97 263 118 325 38 117 53 146 105 200 69 73 62 76 -146 73 -179 -3 -206 -11 -147 -45 52 -30 53 -41 19 -142 l-31 -91 -151 0 -151 0 -22 68 c-38 115 -38 126 -5 150 48 37 54 43 48 53 -7 10 -258 13 -268 2z m412 -363 l107 0 -56 -170 c-31 -93 -59 -172 -62 -175 -6 -6 -50 110 -93 245 -15 47 -30 91 -33 99 -4 10 -1 13 12 8 10 -4 66 -7 125 -7z"></path><path id="py93Xn8vf" d="M4080 8393 c1 -10 15 -27 33 -38 57 -36 57 -38 55 -413 l-3 -344 -26 -21 c-14 -12 -35 -27 -45 -33 -16 -10 -17 -13 -5 -28 12 -15 37 -17 217 -15 112 1 236 8 276 14 178 29 284 102 351 241 30 60 52 179 44 231 -35 216 -124 329 -308 394 -59 21 -86 23 -326 27 -250 4 -263 3 -263 -15z m515 -91 c138 -70 210 -250 175 -439 -17 -91 -43 -144 -95 -192 -51 -47 -93 -66 -161 -75 -70 -9 -152 -11 -159 -4 -7 7 -6 371 3 672 l2 69 98 -5 c71 -4 108 -10 137 -26z"></path><path id="p19zhtyorO" d="M5133 8395 c-3 -10 8 -28 33 -49 l39 -34 3 -313 c4 -373 0 -404 -48 -437 -19 -13 -35 -31 -35 -40 0 -15 18 -17 167 -18 91 -1 172 3 180 8 10 7 6 15 -18 36 -17 15 -36 37 -43 49 -15 30 -16 685 0 716 6 12 25 34 42 48 50 43 33 49 -149 49 -139 0 -166 -2 -171 -15z"></path><path id="pUNkrFtFD" d="M5807 8396 c-4 -10 7 -22 32 -37 22 -12 44 -32 50 -46 7 -16 11 -140 11 -375 l0 -351 -77 5 c-73 5 -79 7 -106 39 -16 19 -37 51 -48 72 -33 63 -47 49 -51 -52 -2 -49 -1 -102 2 -117 l5 -29 365 0 365 0 0 115 c0 97 -2 115 -16 118 -10 2 -22 -11 -33 -35 -9 -21 -30 -53 -45 -72 -26 -32 -32 -34 -104 -39 l-77 -5 0 359 c0 394 -1 389 60 414 19 8 30 19 28 29 -3 14 -27 16 -179 19 -149 2 -178 0 -182 -12z"></path><path id="pjStA0ZCl" d="M6504 8399 c-4 -7 9 -25 32 -44 l39 -33 3 -353 c2 -247 -1 -360 -8 -375 -7 -11 -25 -28 -41 -38 -16 -9 -29 -25 -29 -36 0 -17 11 -18 177 -17 194 2 212 8 145 51 -21 13 -44 37 -51 54 -9 21 -11 114 -9 353 4 357 5 363 65 399 63 37 40 45 -145 48 -121 2 -173 -1 -178 -9z"></path><path id="poC83kM6F" d="M5519 7160 c-57 -10 -117 -37 -128 -59 -13 -25 -23 -218 -12 -225 15 -10 38 4 50 30 20 45 95 131 131 152 76 44 163 37 214 -17 23 -24 28 -38 28 -80 0 -55 -28 -110 -67 -130 -11 -6 -27 -15 -35 -20 -8 -6 -42 -23 -75 -39 -147 -72 -196 -110 -226 -180 -38 -87 -19 -178 54 -258 69 -76 129 -97 262 -92 76 3 112 10 153 27 l52 23 0 104 c0 94 -2 104 -18 104 -11 0 -28 -17 -41 -41 -70 -124 -168 -164 -269 -110 -45 24 -56 111 -21 167 22 36 41 49 177 120 162 83 214 145 213 253 -1 205 -181 315 -442 271z"></path><path id="pqgO5Plfe" d="M6765 7159 c-167 -38 -277 -134 -329 -291 -60 -179 -15 -381 113 -506 125 -122 324 -156 496 -87 127 52 230 181 256 321 18 93 7 230 -23 296 -95 207 -301 315 -513 267z m199 -103 c91 -53 131 -130 148 -279 19 -167 -15 -300 -94 -377 -106 -101 -259 -86 -346 35 -42 58 -53 97 -59 220 -9 172 17 284 80 354 28 31 87 68 118 74 44 9 112 -3 153 -27z"></path><path id="pT1F55Vmq" d="M4185 7140 c-54 -27 -83 -62 -179 -220 l-82 -135 -42 -3 -42 -3 0 137 0 137 40 37 c22 20 40 42 40 48 0 9 -47 12 -164 12 -183 0 -205 -8 -138 -51 27 -18 38 -34 45 -64 4 -22 7 -177 5 -345 -3 -331 -3 -331 -62 -382 -55 -47 -36 -50 240 -46 220 4 255 7 297 24 110 46 157 111 157 217 0 36 -7 80 -15 100 -17 40 -99 117 -126 117 -10 0 -21 5 -24 10 -3 6 -15 10 -26 10 -10 0 -19 3 -19 6 0 13 151 233 190 277 23 26 60 57 81 68 73 37 38 69 -74 69 -42 0 -75 -7 -102 -20z m-171 -464 c54 -32 86 -89 86 -154 0 -121 -67 -182 -201 -182 l-59 0 0 180 0 180 67 0 c52 0 75 -5 107 -24z"></path><path id="pEo0b5fmx" d="M4745 7152 c-115 -1 -214 -7 -219 -12 -6 -6 8 -26 38 -53 l47 -44 -3 -346 -3 -345 -24 -21 c-13 -11 -32 -23 -42 -26 -32 -11 -21 -32 19 -38 62 -9 556 -7 571 2 12 8 30 113 31 189 0 41 -29 44 -52 4 -29 -49 -76 -91 -115 -101 -21 -6 -77 -13 -125 -17 l-88 -7 0 162 0 161 94 0 94 0 28 -33 c16 -19 34 -42 40 -53 9 -14 15 -16 24 -8 8 8 9 47 4 138 -6 107 -9 126 -23 126 -9 0 -25 -14 -35 -31 -24 -41 -71 -59 -156 -59 l-70 0 0 163 c0 90 2 166 4 168 10 10 215 -12 250 -26 23 -10 58 -43 97 -90 101 -123 106 -111 58 143 l-10 52 -47 1 c-26 1 -76 2 -112 3 -36 0 -159 0 -275 -2z"></path><path id="pGcVVFXxW" d="M2300 7131 c0 -11 9 -22 20 -26 11 -3 29 -18 40 -32 19 -25 20 -39 20 -354 0 -191 -4 -339 -10 -354 -5 -14 -26 -35 -45 -47 -22 -12 -35 -27 -33 -37 3 -14 36 -16 315 -18 172 -1 315 2 318 7 3 4 8 56 12 114 6 102 5 106 -15 106 -13 0 -33 -18 -56 -50 -19 -27 -46 -56 -58 -64 -22 -15 -161 -34 -223 -32 l-30 1 -3 158 -3 157 95 0 95 0 37 -45 c20 -25 43 -45 52 -45 14 0 15 44 2 268 0 1 -7 2 -15 2 -8 0 -26 -18 -40 -40 -29 -46 -74 -63 -151 -56 -27 3 -55 5 -63 5 -12 1 -13 27 -8 162 6 148 8 163 28 180 12 10 30 21 41 25 10 3 17 11 15 17 -2 8 -54 13 -170 15 -160 2 -167 2 -167 -17z"></path><path id="pdEWw8feQ" d="M3080 7136 c0 -8 16 -23 35 -35 19 -11 40 -32 45 -46 11 -29 14 -622 4 -674 -4 -17 -23 -47 -42 -66 -25 -24 -33 -38 -26 -45 7 -7 69 -10 170 -8 132 3 159 6 161 18 2 8 -12 24 -29 35 -18 12 -35 33 -40 50 -13 48 -13 666 0 697 6 14 25 34 41 44 64 38 43 44 -144 44 -143 0 -175 -3 -175 -14z"></path><path id="paOBgjUCE" d="M7400 7138 c0 -6 17 -26 39 -44 28 -24 40 -44 44 -71 8 -48 9 -598 2 -638 -5 -27 -58 -85 -77 -85 -19 0 -6 -28 15 -33 12 -3 152 -5 311 -6 227 -1 291 1 298 11 4 7 8 61 8 121 0 98 -2 107 -19 107 -11 0 -23 -12 -31 -30 -7 -17 -29 -48 -50 -69 -41 -42 -52 -45 -197 -57 l-83 -6 0 161 0 161 92 0 92 0 42 -46 c25 -27 48 -43 55 -39 8 5 9 44 5 133 -3 69 -8 128 -11 131 -4 3 -26 -16 -49 -42 -24 -26 -52 -47 -62 -48 -11 -1 -52 -2 -91 -2 l-73 -2 0 142 c0 78 4 153 10 167 5 14 27 37 49 52 23 14 38 30 35 35 -8 14 -354 11 -354 -3z"></path><path id="pxRFMUWu7" d="M5085 5923 c-37 -40 -65 -107 -65 -154 0 -22 -3 -39 -7 -37 -67 35 -92 40 -153 35 -130 -11 -133 -36 -10 -81 148 -54 189 -89 230 -198 12 -33 28 -58 35 -58 8 0 26 26 41 58 14 31 36 71 49 88 28 37 119 87 209 115 105 32 101 63 -9 74 -66 7 -134 -6 -159 -30 -22 -23 -26 -19 -26 29 0 67 -43 151 -90 176 -15 8 -24 5 -45 -17z"></path><path id="pgL8OeIxH" d="M4355 5663 c-167 -13 -355 -81 -507 -185 -62 -41 -66 -49 -43 -68 20 -16 129 -9 175 12 19 9 57 25 83 37 57 25 137 47 204 56 l48 5 -50 -23 c-27 -13 -93 -48 -145 -77 -106 -59 -329 -171 -375 -188 -74 -28 -158 -45 -255 -51 -105 -6 -105 -6 -108 -33 -4 -34 22 -74 62 -95 67 -35 221 -9 345 58 56 30 79 34 39 6 -13 -8 -36 -27 -53 -42 -89 -79 -130 -110 -182 -137 -32 -16 -92 -55 -133 -86 -79 -59 -212 -132 -242 -132 -13 0 -18 8 -18 29 0 40 -21 54 -69 46 -61 -10 -88 -36 -96 -94 -8 -58 11 -112 50 -137 31 -20 111 -23 172 -5 45 12 129 66 181 114 41 39 41 29 -1 -36 -76 -118 -163 -193 -311 -267 -77 -40 -145 -95 -175 -143 -24 -40 -103 -258 -96 -266 11 -10 41 -10 75 0 71 22 130 71 222 183 134 161 145 170 83 65 -19 -33 -35 -62 -35 -65 0 -2 -28 -48 -61 -102 -93 -146 -126 -216 -165 -342 -64 -208 -111 -302 -159 -320 -33 -13 -32 -35 4 -71 23 -23 38 -29 72 -29 156 0 227 97 259 356 14 108 39 232 49 238 10 6 11 -556 2 -652 -13 -128 -63 -216 -168 -293 -89 -66 -113 -94 -113 -132 0 -75 79 -98 178 -52 l52 24 -6 -42 c-3 -23 -10 -58 -15 -77 -17 -68 -10 -181 14 -229 31 -61 86 -103 134 -105 33 -1 38 2 35 19 -8 61 -2 220 12 285 18 84 21 169 7 217 -14 48 -22 204 -13 237 7 25 11 13 31 -80 31 -145 92 -431 110 -509 5 -22 14 -65 21 -95 6 -30 13 -62 15 -70 2 -8 4 -66 4 -127 l1 -113 34 0 c45 0 73 35 82 102 l7 49 35 -63 c113 -205 340 -396 567 -477 170 -60 365 -54 484 16 62 36 128 99 158 150 103 177 39 403 -120 420 -75 8 -142 -56 -134 -128 7 -55 42 -89 92 -89 48 0 65 -13 65 -52 0 -35 -40 -115 -72 -145 -55 -51 -206 -91 -305 -79 -82 10 -207 54 -274 98 -33 21 -64 38 -69 38 -6 0 -10 3 -10 8 0 4 -17 18 -37 32 -48 33 -193 197 -253 285 -98 146 -227 403 -192 381 6 -3 26 -35 46 -70 30 -53 104 -157 125 -176 3 -3 31 -34 61 -70 144 -171 296 -306 409 -360 90 -44 179 -70 237 -70 55 0 156 31 187 58 16 15 16 16 -10 34 -28 18 -62 30 -203 68 -67 19 -149 47 -205 70 -11 5 -31 12 -44 15 -23 7 -22 8 15 29 30 16 40 28 42 52 3 26 -1 31 -31 42 -18 7 -41 12 -50 12 -10 0 -46 13 -81 29 -192 87 -377 271 -502 501 -10 19 -21 37 -24 40 -10 10 -80 166 -104 235 -23 62 -23 67 -6 45 11 -14 20 -29 20 -33 0 -14 61 -99 101 -142 21 -22 63 -54 95 -70 50 -26 68 -30 135 -30 86 1 109 12 109 55 0 27 -30 50 -66 50 -8 0 -39 12 -69 26 -196 96 -341 382 -396 776 -18 133 2 380 42 502 17 50 34 95 40 101 12 12 12 -27 -1 -80 -5 -22 -15 -117 -21 -212 -10 -170 -7 -223 21 -318 41 -136 56 -178 83 -235 42 -89 125 -170 200 -198 77 -29 169 -30 217 -1 55 33 70 57 70 117 0 46 -4 58 -29 83 -36 36 -52 36 -119 2 -51 -26 -54 -26 -87 -10 -82 39 -174 156 -219 280 -28 77 -22 88 13 22 27 -51 69 -91 135 -130 57 -34 161 -39 183 -10 30 42 1 104 -77 163 -152 114 -215 209 -246 367 -39 200 5 384 141 589 70 104 87 119 47 39 -81 -162 -107 -253 -107 -378 0 -130 26 -200 96 -266 69 -65 174 -90 226 -54 29 20 44 76 32 117 -11 40 -24 48 -75 48 -153 0 -180 317 -49 574 46 88 155 254 185 281 l23 20 -16 -30 c-55 -108 -75 -268 -40 -321 24 -37 84 -76 99 -63 6 5 15 49 18 97 13 162 43 259 115 365 27 40 67 90 91 111 63 56 169 121 225 137 68 19 210 17 256 -4 102 -45 156 -204 93 -272 l-26 -29 -13 31 c-29 68 -105 84 -157 33 -28 -28 -30 -35 -26 -81 8 -83 70 -129 175 -129 106 0 176 66 203 193 12 58 -1 154 -30 214 -53 110 -198 201 -385 242 -52 11 -230 20 -300 14z"></path><path id="pLEjIMHwp" d="M5710 5667 c-3 -3 -30 -6 -60 -8 -106 -5 -277 -65 -356 -125 -45 -35 -108 -127 -123 -179 -26 -95 -7 -206 48 -284 52 -73 194 -96 264 -43 42 32 71 93 62 133 -22 99 -150 107 -186 12 l-10 -26 -24 23 c-48 45 -40 155 16 224 46 55 89 71 194 71 150 0 251 -43 365 -155 128 -125 173 -226 192 -435 6 -71 16 -133 21 -137 25 -16 91 33 112 84 26 67 15 157 -35 263 -13 28 -26 55 -29 60 -12 27 39 -29 92 -100 120 -161 197 -364 197 -519 0 -103 -13 -150 -57 -203 -31 -39 -39 -43 -78 -43 -53 0 -75 -25 -75 -83 0 -29 7 -46 29 -68 75 -75 232 -7 298 130 23 46 28 72 31 154 6 127 -23 241 -98 385 -20 39 -36 72 -34 72 10 0 127 -168 145 -208 29 -62 63 -174 79 -255 11 -56 12 -86 1 -169 -7 -55 -16 -108 -21 -117 -4 -9 -18 -40 -31 -70 -18 -42 -54 -84 -150 -180 -130 -130 -153 -167 -129 -212 9 -15 22 -19 67 -19 101 0 208 72 251 169 14 31 17 33 20 14 4 -28 -56 -159 -105 -226 -20 -29 -63 -80 -95 -114 -53 -56 -58 -65 -58 -106 0 -37 5 -49 26 -66 48 -38 95 -22 167 59 66 73 120 191 168 365 19 68 22 105 22 250 0 114 -6 199 -17 259 -19 104 -19 109 -6 101 31 -19 75 -190 85 -325 14 -188 8 -293 -27 -445 -78 -350 -220 -557 -435 -635 -66 -24 -82 -44 -63 -79 22 -41 155 -39 245 5 62 30 139 113 184 199 19 36 36 63 38 61 2 -2 -7 -37 -21 -77 -44 -130 -162 -339 -271 -478 -102 -132 -299 -272 -433 -310 -86 -25 -103 -41 -82 -81 6 -11 22 -23 35 -26 14 -3 25 -9 25 -13 0 -9 -122 -56 -240 -91 -164 -49 -173 -52 -203 -69 -16 -9 -29 -20 -29 -25 0 -5 23 -23 52 -39 133 -74 314 -31 515 123 42 32 242 234 300 302 33 39 95 123 138 187 43 64 76 105 72 91 -13 -45 -116 -247 -158 -308 -23 -33 -62 -88 -86 -123 -40 -58 -187 -213 -237 -249 -68 -50 -91 -64 -153 -95 -133 -67 -284 -82 -408 -40 -93 32 -173 121 -173 194 0 51 9 61 54 61 61 1 96 38 96 105 0 90 -100 143 -188 99 -117 -58 -146 -240 -64 -400 31 -60 118 -141 192 -177 64 -31 67 -32 210 -32 127 0 153 3 210 24 146 53 258 121 384 234 72 65 178 195 211 260 27 52 32 53 40 9 3 -20 16 -52 28 -69 18 -27 28 -33 60 -33 42 0 41 -2 28 105 -6 45 -2 84 16 170 13 60 30 144 38 185 9 41 23 103 31 138 8 35 19 87 24 115 20 117 62 303 72 312 10 10 7 -99 -8 -331 -5 -79 -3 -122 5 -145 7 -19 15 -98 18 -177 3 -78 10 -145 15 -148 19 -12 99 39 128 81 54 79 59 136 27 313 -7 39 -13 72 -13 72 1 0 23 -11 50 -25 121 -61 220 4 154 101 -12 18 -34 39 -49 48 -43 25 -126 104 -149 141 -46 74 -66 202 -64 395 1 74 3 205 3 290 2 145 3 153 16 121 8 -18 22 -83 30 -145 26 -201 45 -278 82 -330 37 -53 101 -86 169 -86 46 0 57 4 88 34 38 35 46 56 22 56 -8 0 -32 20 -54 45 -41 47 -82 140 -122 275 -34 117 -60 178 -114 268 -28 46 -55 91 -61 100 -5 10 -19 33 -31 52 -12 19 -38 67 -58 105 -34 63 -35 67 -11 40 37 -40 93 -107 154 -181 56 -69 119 -110 186 -120 36 -5 46 -3 51 10 3 9 2 22 -4 29 -5 6 -12 26 -16 42 -9 36 -27 79 -68 163 -39 80 -91 125 -215 187 -79 40 -114 66 -179 130 -44 44 -93 103 -109 130 -16 28 -35 58 -43 68 -28 32 -1 17 43 -24 25 -23 55 -49 67 -57 13 -9 25 -19 28 -23 11 -15 122 -61 160 -66 89 -12 160 46 160 131 0 54 -20 90 -61 112 -57 29 -109 9 -109 -42 0 -15 -6 -24 -15 -24 -24 0 -168 71 -185 91 -3 3 -66 46 -140 96 -114 76 -222 162 -290 231 -13 13 -13 14 0 7 8 -5 26 -16 40 -25 37 -25 156 -70 214 -81 78 -15 132 -3 173 38 27 28 33 41 31 66 l-3 32 -110 6 c-102 5 -227 31 -249 50 -6 5 -16 9 -23 9 -13 0 -222 99 -233 110 -3 3 -18 12 -35 20 -16 8 -57 30 -90 50 -33 19 -86 49 -117 65 -32 17 -53 32 -47 34 18 6 151 -33 224 -65 40 -17 51 -21 111 -44 46 -17 134 -9 148 13 14 23 -8 41 -134 106 -100 52 -204 90 -313 115 -67 16 -268 32 -277 23z"></path><path id="pbbLkUJLM" d="M4569 5385 c-99 -36 -189 -106 -225 -176 -66 -128 -57 -244 27 -331 48 -51 86 -65 74 -27 -12 35 -9 172 4 214 22 72 53 124 100 168 54 51 105 77 181 92 65 14 71 32 20 57 -41 21 -129 23 -181 3z"></path><path id="pmVkZyD9s" d="M5488 5384 c-16 -8 -28 -23 -28 -34 0 -16 7 -20 38 -20 108 -1 234 -117 282 -261 19 -54 21 -77 16 -151 -7 -100 0 -107 54 -62 53 45 73 98 74 194 1 69 -3 93 -21 126 -48 90 -149 178 -243 211 -48 17 -139 15 -172 -3z"></path><path id="pdThLvK9C" d="M5478 4572 l-218 -2 0 -25 c0 -16 7 -26 23 -30 63 -18 96 -39 118 -78 l24 -42 3 -627 3 -628 -138 0 c-76 0 -155 5 -176 11 -24 6 -61 33 -104 75 -52 51 -72 64 -92 62 -23 -3 -26 -7 -23 -38 4 -58 43 -224 56 -237 9 -10 152 -13 630 -13 340 0 621 2 624 4 5 6 19 241 16 271 -1 11 -3 23 -3 28 -1 4 -14 7 -30 7 -24 0 -34 -9 -65 -60 -21 -33 -47 -65 -59 -72 -46 -25 -131 -36 -253 -35 l-126 2 1 605 c1 375 5 619 12 643 14 52 60 101 109 116 40 12 51 30 28 49 -18 14 -109 17 -360 14z"></path><path id="pLVDN6tzl" d="M4160 4547 c0 -18 11 -27 49 -44 110 -46 110 -44 110 -953 0 -477 -3 -761 -10 -790 -14 -59 -48 -102 -113 -141 -53 -32 -67 -51 -59 -76 4 -10 185 -13 864 -13 l859 0 7 28 c4 15 7 87 7 160 0 138 -5 154 -43 147 -9 -2 -24 -4 -33 -4 -11 -1 -27 -20 -40 -48 -40 -86 -77 -114 -183 -138 -56 -13 -138 -16 -478 -16 -225 0 -431 4 -458 7 l-49 7 0 394 0 395 198 -4 c221 -3 251 -11 330 -83 24 -21 49 -35 59 -33 17 3 18 18 16 192 -1 105 -7 194 -12 199 -18 18 -56 -2 -83 -46 -58 -92 -56 -91 -261 -94 -100 0 -197 1 -215 4 l-33 5 3 392 c3 350 5 394 20 423 16 28 75 83 90 83 3 0 22 7 42 15 32 14 35 18 26 35 -10 19 -22 20 -310 20 l-300 0 0 -23z"></path><path id="p11hpCQnMo" d="M5086 2201 c-9 -10 -25 -52 -35 -92 -41 -164 -88 -251 -240 -444 -39 -49 -71 -98 -71 -107 0 -52 128 -18 197 52 l32 33 -6 -54 c-9 -94 49 -249 126 -331 l28 -30 40 46 c77 87 119 203 111 306 l-4 59 44 -40 c67 -63 137 -85 175 -56 16 11 15 16 -13 57 -16 25 -53 72 -80 105 -97 115 -163 245 -201 393 -28 116 -62 149 -103 103z"></path></g></g></svg>